<?xml version="1.0" encoding="UTF-8"?>
<svg xmlns="http://www.w3.org/2000/svg" xmlns:xlink="http://www.w3.org/1999/xlink" width="50px" height="50px" viewBox="0 0 50 50" version="1.1">
<g id="surface1">
<path style="stroke-width:1.91;stroke-linecap:butt;stroke-linejoin:miter;stroke:rgb(0.784314%,0.784314%,0.784314%);stroke-opacity:1;stroke-miterlimit:10;" d="M 12.309375 5.319375 L 15.549375 5.319375 C 16.764375 5.319375 17.750625 6.305625 17.750625 7.520625 L 17.750625 10.760625 C 17.750625 11.975625 16.764375 12.96 15.549375 12.96 L 12.309375 12.96 C 11.094375 12.96 10.11 11.975625 10.11 10.760625 L 10.11 7.520625 C 10.11 6.305625 11.094375 5.319375 12.309375 5.319375 Z M 12.309375 5.319375 " transform="matrix(2.083333,0,0,2.083333,0,0)"/>
<path style="stroke-width:1.91;stroke-linecap:butt;stroke-linejoin:miter;stroke:rgb(0.784314%,0.784314%,0.784314%);stroke-opacity:1;stroke-miterlimit:10;" d="M 23.480625 7.23 L 17.750625 7.23 L 17.750625 11.04 L 23.480625 11.04 " transform="matrix(2.083333,0,0,2.083333,0,0)"/>
<path style="stroke-width:1.91;stroke-linecap:butt;stroke-linejoin:miter;stroke:rgb(0.784314%,0.784314%,0.784314%);stroke-opacity:1;stroke-miterlimit:10;" d="M 10.11 7.23 L 9.159375 7.23 C 7.633125 7.23 6.170625 7.839375 5.094375 8.923125 C 4.018125 10.005 3.42 11.473125 3.429375 12.999375 L 3.429375 14.91 L 7.250625 14.91 L 7.250625 12.999375 C 7.250625 12.495 7.45125 12.009375 7.809375 11.653125 C 8.169375 11.296875 8.655 11.098125 9.159375 11.1 L 10.11 11.1 Z M 10.11 7.23 " transform="matrix(2.083333,0,0,2.083333,0,0)"/>
<path style="stroke-width:1.91;stroke-linecap:butt;stroke-linejoin:miter;stroke:rgb(0.784314%,0.784314%,0.784314%);stroke-opacity:1;stroke-miterlimit:10;" d="M 1.520625 14.859375 L 9.159375 14.859375 " transform="matrix(2.083333,0,0,2.083333,0,0)"/>
<path style="stroke-width:1.91;stroke-linecap:butt;stroke-linejoin:miter;stroke:rgb(0.784314%,0.784314%,0.784314%);stroke-opacity:1;stroke-miterlimit:10;" d="M 9.159375 1.5 L 18.699375 1.5 " transform="matrix(2.083333,0,0,2.083333,0,0)"/>
<path style="stroke-width:1.91;stroke-linecap:butt;stroke-linejoin:miter;stroke:rgb(0.784314%,0.784314%,0.784314%);stroke-opacity:1;stroke-miterlimit:10;" d="M 13.929375 5.319375 L 13.929375 1.5 " transform="matrix(2.083333,0,0,2.083333,0,0)"/>
<path style="stroke-width:1.91;stroke-linecap:butt;stroke-linejoin:miter;stroke:rgb(0.784314%,0.784314%,0.784314%);stroke-opacity:1;stroke-miterlimit:10;" d="M 8.000625 19.83 C 8.000625 21.30375 6.804375 22.5 5.330625 22.5 C 3.855 22.5 2.660625 21.30375 2.660625 19.83 C 2.660625 17.540625 5.330625 14.829375 5.330625 14.829375 C 5.330625 14.829375 8.000625 17.540625 8.000625 19.83 Z M 8.000625 19.83 " transform="matrix(2.083333,0,0,2.083333,0,0)"/>
</g>
</svg>
