<?xml version="1.0" encoding="UTF-8"?>
<svg xmlns="http://www.w3.org/2000/svg" xmlns:xlink="http://www.w3.org/1999/xlink" width="50px" height="50px" viewBox="0 0 50 50" version="1.1">
<g id="surface1">
<path style=" stroke:none;" d="M 40.636719 14.445312 L 37.902344 14.441406 L 35.578125 14.441406 L 31.421875 10.925781 L 27.074219 14.425781 L 25.023438 14.425781 L 12.148438 14.402344 L 9.363281 14.394531 L 12.296875 8.582031 L 15.035156 8.582031 L 15.035156 10.535156 L 17.867188 10.535156 L 17.867188 8.582031 L 37.65625 8.582031 C 37.507812 8.582031 40.636719 14.445312 40.636719 14.445312 Z M 27.320312 30.910156 L 26.757812 33.84375 L 34.183594 33.84375 L 34.183594 33.867188 L 35.847656 33.867188 L 35.089844 30.910156 Z M 27.320312 30.910156 "/>
<path style=" stroke:none;" d="M 23.214844 34.277344 L 16.816406 34.265625 L 15.761719 34.261719 L 20.113281 30.765625 L 24.269531 34.277344 Z M 23.214844 34.277344 "/>
<path style=" stroke:none;" d="M 34.1875 33.867188 L 34.1875 41.5625 L 28.421875 41.5625 L 28.421875 33.839844 L 34.1875 33.839844 Z M 28.417969 17.472656 L 28.417969 25.195312 L 34.183594 25.195312 L 34.183594 17.472656 Z M 16.253906 17.472656 L 16.253906 25.195312 L 22.019531 25.195312 L 22.019531 17.472656 Z M 16.253906 17.472656 "/>
<path style=" stroke:none;" d="M 17.867188 8.582031 L 17.867188 10.535156 L 15.03125 10.535156 L 15.03125 5.648438 L 17.867188 5.648438 Z M 17.867188 8.582031 "/>
<path style=" stroke:none;" d="M 23.214844 34.277344 L 23.214844 44.351562 L 16.816406 44.351562 L 16.816406 34.265625 Z M 23.214844 34.277344 "/>
<path style=" stroke:none;" d="M 37.902344 28.027344 L 37.902344 44.347656 L 23.214844 44.347656 L 23.214844 34.273438 L 24.269531 34.277344 L 20.113281 30.761719 L 15.761719 34.261719 L 16.816406 34.261719 L 16.816406 44.347656 L 12.148438 44.347656 L 12.148438 14.402344 L 25.027344 14.421875 L 25.027344 28.027344 Z M 35.847656 33.867188 L 35.089844 30.910156 L 27.324219 30.910156 L 26.761719 33.84375 L 28.421875 33.84375 L 28.421875 41.566406 L 34.1875 41.566406 L 34.1875 33.871094 L 35.847656 33.871094 Z M 22.019531 25.195312 L 22.019531 17.472656 L 16.253906 17.472656 L 16.253906 25.195312 Z M 22.019531 25.195312 "/>
<path style=" stroke:none;" d="M 37.902344 14.445312 L 37.902344 28.027344 L 25.023438 28.027344 L 25.023438 14.421875 L 27.074219 14.425781 L 31.421875 10.925781 L 35.578125 14.4375 L 37.902344 14.441406 Z M 34.1875 25.195312 L 34.1875 17.472656 L 28.421875 17.472656 L 28.421875 25.195312 Z M 34.1875 25.195312 "/>
<path style="stroke-width:50;stroke-linecap:round;stroke-linejoin:round;stroke:rgb(13.72549%,12.156863%,12.54902%);stroke-opacity:1;stroke-miterlimit:10;" d="M 645.75 1703.1 L 466.5 1703.1 L 466.5 554.7 " transform="matrix(0.0260417,0,0,0.0260417,0,0)"/>
<path style="stroke-width:50;stroke-linecap:round;stroke-linejoin:round;stroke:rgb(13.72549%,12.156863%,12.54902%);stroke-opacity:1;stroke-miterlimit:10;" d="M 1455.45 554.7 L 1455.45 1703.1 L 891.45 1703.1 " transform="matrix(0.0260417,0,0,0.0260417,0,0)"/>
<path style="stroke-width:50;stroke-linecap:round;stroke-linejoin:round;stroke:rgb(13.72549%,12.156863%,12.54902%);stroke-opacity:1;stroke-miterlimit:10;" d="M 1446 329.55 C 1440.45 329.55 1560.45 554.7 1560.45 554.7 L 1455.45 554.55 L 1366.35 554.55 L 1206.75 419.55 L 1039.65 553.95 L 961.05 553.95 L 466.5 553.05 L 359.55 552.75 L 472.2 329.55 L 577.35 329.55 " transform="matrix(0.0260417,0,0,0.0260417,0,0)"/>
<path style="stroke-width:50;stroke-linecap:round;stroke-linejoin:round;stroke:rgb(13.72549%,12.156863%,12.54902%);stroke-opacity:1;stroke-miterlimit:10;" d="M 686.1 329.55 L 1446 329.55 " transform="matrix(0.0260417,0,0,0.0260417,0,0)"/>
<path style="stroke-width:50;stroke-linecap:round;stroke-linejoin:round;stroke:rgb(13.72549%,12.156863%,12.54902%);stroke-opacity:1;stroke-miterlimit:10;" d="M 645.75 1315.8 L 605.25 1315.65 L 772.35 1181.4 L 931.95 1316.25 L 891.45 1316.25 Z M 645.75 1315.8 " transform="matrix(0.0260417,0,0,0.0260417,0,0)"/>
<path style="stroke-width:50;stroke-linecap:round;stroke-linejoin:round;stroke:rgb(13.72549%,12.156863%,12.54902%);stroke-opacity:1;stroke-miterlimit:10;" d="M 891.45 1314.6 L 891.45 1703.1 L 645.75 1703.1 L 645.75 1314.6 " transform="matrix(0.0260417,0,0,0.0260417,0,0)"/>
<path style="stroke-width:50;stroke-linecap:round;stroke-linejoin:round;stroke:rgb(13.72549%,12.156863%,12.54902%);stroke-opacity:1;stroke-miterlimit:10;" d="M 624.15 670.95 L 845.55 670.95 L 845.55 967.5 L 624.15 967.5 Z M 624.15 670.95 " transform="matrix(0.0260417,0,0,0.0260417,0,0)"/>
<path style="stroke-width:50;stroke-linecap:round;stroke-linejoin:round;stroke:rgb(13.72549%,12.156863%,12.54902%);stroke-opacity:1;stroke-miterlimit:10;" d="M 1091.25 670.95 L 1312.65 670.95 L 1312.65 967.5 L 1091.25 967.5 Z M 1091.25 670.95 " transform="matrix(0.0260417,0,0,0.0260417,0,0)"/>
<path style="stroke-width:50;stroke-linecap:round;stroke-linejoin:round;stroke:rgb(13.72549%,12.156863%,12.54902%);stroke-opacity:1;stroke-miterlimit:10;" d="M 1312.8 1300.5 L 1312.8 1596.15 L 1091.25 1596.15 L 1091.25 1299.6 L 1312.8 1299.6 Z M 1312.8 1300.5 " transform="matrix(0.0260417,0,0,0.0260417,0,0)"/>
<path style="stroke-width:50;stroke-linecap:round;stroke-linejoin:round;stroke:rgb(13.72549%,12.156863%,12.54902%);stroke-opacity:1;stroke-miterlimit:10;" d="M 960.9 553.95 L 960.9 1076.25 L 1455.3 1076.25 " transform="matrix(0.0260417,0,0,0.0260417,0,0)"/>
<path style="stroke-width:50;stroke-linecap:round;stroke-linejoin:round;stroke:rgb(13.72549%,12.156863%,12.54902%);stroke-opacity:1;stroke-miterlimit:10;" d="M 1091.25 1299.6 L 1027.65 1299.6 L 1049.1 1186.95 L 1347.45 1186.95 L 1376.55 1300.5 L 1312.8 1300.5 " transform="matrix(0.0260417,0,0,0.0260417,0,0)"/>
<path style="stroke-width:50;stroke-linecap:round;stroke-linejoin:round;stroke:rgb(13.72549%,12.156863%,12.54902%);stroke-opacity:1;stroke-miterlimit:10;" d="M 731.1 678.45 L 731.1 965.55 " transform="matrix(0.0260417,0,0,0.0260417,0,0)"/>
<path style="stroke-width:50;stroke-linecap:round;stroke-linejoin:round;stroke:rgb(13.72549%,12.156863%,12.54902%);stroke-opacity:1;stroke-miterlimit:10;" d="M 1200.15 678.45 L 1200.15 965.55 " transform="matrix(0.0260417,0,0,0.0260417,0,0)"/>
<path style="stroke-width:50;stroke-linecap:round;stroke-linejoin:round;stroke:rgb(13.72549%,12.156863%,12.54902%);stroke-opacity:1;stroke-miterlimit:10;" d="M 1198.35 1301.55 L 1198.35 1588.65 " transform="matrix(0.0260417,0,0,0.0260417,0,0)"/>
<path style="stroke-width:50;stroke-linecap:round;stroke-linejoin:round;stroke:rgb(13.72549%,12.156863%,12.54902%);stroke-opacity:1;stroke-miterlimit:10;" d="M 577.2 329.55 L 577.2 404.55 L 686.1 404.55 L 686.1 216.9 L 577.2 216.9 Z M 577.2 329.55 " transform="matrix(0.0260417,0,0,0.0260417,0,0)"/>
</g>
</svg>
