<svg width="18" height="16" viewBox="0 0 18 16" fill="none" xmlns="http://www.w3.org/2000/svg">
<g clip-path="url(#clip0_4614_13710)">
<path d="M14.6831 4.77991C14.471 4.61192 14.1945 4.51989 13.9143 4.52408C13.6342 4.52826 13.3733 4.62831 13.1891 4.80222L8.32743 9.39415L2.72884 4.95844C2.51601 4.79531 2.24161 4.70738 1.96474 4.7136C1.68788 4.71981 1.4307 4.81967 1.2486 4.99167C1.0665 5.16367 0.974046 5.39404 0.991155 5.63317C1.00826 5.8723 1.13357 6.10105 1.34007 6.27016L7.7383 11.3394C7.95039 11.5074 8.22693 11.5994 8.5071 11.5952C8.78727 11.5911 9.04813 11.491 9.23232 11.3171L14.7884 6.06931C14.9725 5.89535 15.0649 5.66179 15.0451 5.41999C15.0254 5.17819 14.8952 4.94795 14.6831 4.77991Z" fill="#01354A"/>
</g>
<defs>
<clipPath id="clip0_4614_13710">
<rect width="15.077" height="15.67" rx="3" transform="matrix(0.081357 0.996685 -0.999888 0.014933 16.2754 0)" fill="white"/>
</clipPath>
</defs>
</svg>
