<svg width="37" height="37" viewBox="0 0 37 37" fill="none" xmlns="http://www.w3.org/2000/svg">
<g id="Frame 280" filter="url(#filter0_d_3332_1574)">
<rect width="34" height="34" rx="17" fill="white"/>
<g id="&#208;&#155;&#208;&#158;&#208;&#147;&#208;&#158;">
<path id="Vector 1" d="M7.77995 14.7622V26.006M7.77995 26.006H23.3197M7.77995 26.006H24.7196M5 13.8109L16.4198 7L24.7196 12.0402M28.0996 14.1153L24.7196 12.0402M24.7196 12.0402V8.19857" stroke="#355EAB" stroke-width="2.23429"/>
<g id="&#208;&#155;&#208;&#158;&#208;&#147;&#208;&#158;_2">
<path id="Vector" d="M29.5424 23.6113C29.7836 23.5935 29.7865 23.5931 30.0431 23.5561C30.2748 23.5228 30.329 23.5132 30.5753 23.4636C30.8451 23.4092 30.8524 23.4073 31.1185 23.3329L31.3891 23.2578L31.6669 23.149C31.8194 23.089 31.9411 23.0394 31.9374 23.039C31.933 23.0383 31.7717 23.0461 31.5789 23.0564L31.2278 23.0749H30.9301H30.6332L30.3004 23.0509L29.9676 23.0268L29.6773 22.9857C29.4046 22.9472 29.3701 22.9413 29.082 22.8843C28.9141 22.851 28.6531 22.7966 28.5029 22.764C28.247 22.7081 28.2111 22.6989 27.9501 22.6245C27.6891 22.5497 27.6532 22.5386 27.4076 22.4498C27.2624 22.3976 26.9106 22.2658 26.6247 22.157L26.1049 21.959L25.3674 21.6333C24.7758 21.3716 24.5793 21.2872 24.3733 21.2058C24.2325 21.1499 24.0082 21.0592 23.8748 21.0044C23.616 20.8975 23.3132 20.7827 22.8785 20.6254C22.6293 20.5355 22.5867 20.5218 22.3463 20.4526C22.1637 20.4 22.0032 20.3578 21.8177 20.3127C21.5516 20.2483 21.5501 20.2479 21.2723 20.2013C21.0795 20.1691 20.9101 20.1439 20.7225 20.1195L20.4512 20.0839L20.1543 20.0695C19.8625 20.0551 19.8515 20.0547 19.5488 20.0547H19.2409L18.911 20.0787C18.65 20.0976 18.5092 20.1102 18.2299 20.1394L17.878 20.1761L17.5262 20.2464L17.1743 20.3167L16.807 20.4233C16.4544 20.5262 16.4258 20.5355 16.0556 20.6643C15.7616 20.7672 15.5798 20.8342 15.2792 20.9504C14.9112 21.0933 14.8591 21.1147 14.4361 21.3017C14.0197 21.486 13.9523 21.5174 13.5528 21.7151C13.1745 21.902 13.0587 21.9623 12.6283 22.1955C12.3571 22.3425 12.1364 22.4627 12.1379 22.4635C12.1386 22.4642 12.3622 22.395 12.6335 22.3103L13.1276 22.1563L13.6158 22.0327C14.019 21.9309 14.184 21.8916 14.5578 21.8087L15.0116 21.7081L15.4346 21.6385C15.7836 21.5807 15.9302 21.5589 16.2711 21.513L16.6838 21.4575L17.087 21.4297C17.3092 21.4142 17.6559 21.3934 17.8605 21.3831L18.2307 21.3642L18.5826 21.3831C18.7754 21.3934 19.0972 21.4079 19.2966 21.4153L19.6595 21.4286L19.9894 21.4764C20.5282 21.5537 20.9013 21.6122 21.232 21.6714C21.5098 21.721 21.5765 21.7343 21.8441 21.7958C22.2737 21.8946 22.6065 21.9845 22.9584 22.0971C23.1681 22.1644 23.2956 22.2018 23.5192 22.2625C23.7978 22.338 23.8286 22.3473 24.333 22.5127C24.6812 22.6271 25.0206 22.7422 25.3447 22.8566C25.8996 23.052 26.0858 23.1108 26.5286 23.2311C26.7793 23.2992 26.8204 23.3089 27.0674 23.3599C27.6041 23.4702 27.78 23.5039 28.0205 23.5443L28.2661 23.585L28.5153 23.5983C28.7572 23.6113 29.222 23.6305 29.2741 23.6298C29.288 23.6294 29.409 23.6212 29.5424 23.6113Z" fill="#EA0000"/>
<path id="Vector_2" d="M29.5424 20.6972C29.7836 20.6794 29.7865 20.6791 30.0431 20.642C30.2748 20.6087 30.329 20.5991 30.5753 20.5495C30.8451 20.4951 30.8524 20.4933 31.1185 20.4189L31.3891 20.3437L31.6669 20.2349C31.8194 20.1749 31.9411 20.1253 31.9374 20.125C31.933 20.1242 31.7717 20.132 31.5789 20.1424L31.2278 20.1609H30.9301H30.6332L30.3004 20.1368L29.9676 20.1128L29.6773 20.0717C29.4046 20.0332 29.3701 20.0273 29.082 19.9703C28.9141 19.9369 28.6531 19.8825 28.5029 19.85C28.247 19.7941 28.2111 19.7848 27.9501 19.7104C27.6891 19.6357 27.6532 19.6246 27.4076 19.5357C27.2624 19.4835 26.9106 19.3518 26.6247 19.243L26.1049 19.0449L25.3674 18.7192C24.7758 18.4575 24.5793 18.3732 24.3733 18.2917C24.2325 18.2358 24.0082 18.1452 23.8748 18.0904C23.616 17.9834 23.3132 17.8687 22.8785 17.7114C22.6293 17.6214 22.5867 17.6077 22.3463 17.5385C22.1637 17.486 22.0032 17.4438 21.8177 17.3986C21.5516 17.3342 21.5501 17.3338 21.2723 17.2872C21.0795 17.255 20.9101 17.2298 20.7225 17.2054L20.4512 17.1699L20.1543 17.1554C19.8625 17.141 19.8515 17.1406 19.5488 17.1406H19.2409L18.911 17.1647C18.65 17.1836 18.5092 17.1961 18.2299 17.2254L17.878 17.262L17.5262 17.3324L17.1743 17.4027L16.807 17.5093C16.4544 17.6122 16.4258 17.6214 16.0556 17.7502C15.7616 17.8531 15.5798 17.9201 15.2792 18.0363C14.9112 18.1792 14.8591 18.2007 14.4361 18.3876C14.0197 18.5719 13.9523 18.6034 13.5528 18.801C13.1745 18.9879 13.0587 19.0483 12.6283 19.2814C12.3571 19.4284 12.1364 19.5487 12.1379 19.5494C12.1386 19.5502 12.3622 19.4809 12.6335 19.3962L13.1276 19.2422L13.6158 19.1186C14.019 19.0168 14.184 18.9776 14.5578 18.8947L15.0116 18.794L15.4346 18.7244C15.7836 18.6667 15.9302 18.6448 16.2711 18.5989L16.6838 18.5434L17.087 18.5157C17.3092 18.5001 17.6559 18.4794 17.8605 18.469L18.2307 18.4501L18.5826 18.469C18.7754 18.4794 19.0972 18.4938 19.2966 18.5012L19.6595 18.5145L19.9894 18.5623C20.5282 18.6396 20.9013 18.6981 21.232 18.7573C21.5098 18.8069 21.5765 18.8203 21.8441 18.8817C22.2737 18.9805 22.6065 19.0705 22.9584 19.183C23.1681 19.2504 23.2956 19.2877 23.5192 19.3484C23.7978 19.4239 23.8286 19.4332 24.333 19.5986C24.6812 19.713 25.0206 19.8281 25.3447 19.9425C25.8996 20.1379 26.0858 20.1968 26.5286 20.3171C26.7793 20.3852 26.8204 20.3948 27.0674 20.4459C27.6041 20.5562 27.78 20.5899 28.0205 20.6302L28.2661 20.6709L28.5153 20.6842C28.7572 20.6972 29.222 20.7164 29.2741 20.7157C29.288 20.7153 29.409 20.7072 29.5424 20.6972Z" fill="#17A1FA"/>
<path id="Vector_3" d="M29.5424 17.4739C29.7836 17.4562 29.7865 17.4558 30.0431 17.4189C30.2748 17.3857 30.329 17.3761 30.5753 17.3267C30.8451 17.2724 30.8524 17.2706 31.1185 17.1964L31.3891 17.1215L31.6669 17.0131C31.8194 16.9533 31.9411 16.9038 31.9374 16.9035C31.933 16.9027 31.7717 16.9105 31.5789 16.9208L31.2278 16.9393H30.9301H30.6332L30.3004 16.9153L29.9676 16.8913L29.6773 16.8504C29.4046 16.812 29.3701 16.8061 29.082 16.7493C28.9141 16.7161 28.6531 16.6618 28.5029 16.6294C28.247 16.5736 28.2111 16.5644 27.9501 16.4903C27.6891 16.4157 27.6532 16.4047 27.4076 16.3161C27.2624 16.2641 26.9106 16.1328 26.6247 16.0243L26.1049 15.8269L25.3674 15.5022C24.7758 15.2414 24.5793 15.1573 24.3733 15.0761C24.2325 15.0204 24.0082 14.93 23.8748 14.8754C23.616 14.7688 23.3132 14.6544 22.8785 14.4976C22.6293 14.408 22.5867 14.3943 22.3463 14.3253C22.1637 14.2729 22.0032 14.2309 21.8177 14.1859C21.5516 14.1217 21.5501 14.1213 21.2723 14.0748C21.0795 14.0427 20.9101 14.0176 20.7225 13.9933L20.4512 13.9579L20.1543 13.9435C19.8625 13.9291 19.8515 13.9287 19.5488 13.9287H19.2409L18.911 13.9527C18.65 13.9715 18.5092 13.9841 18.2299 14.0132L17.878 14.0497L17.5262 14.1198L17.1743 14.1899L16.807 14.2962C16.4544 14.3987 16.4258 14.408 16.0556 14.5364C15.7616 14.6389 15.5798 14.7057 15.2792 14.8215C14.9112 14.964 14.8591 14.9854 14.4361 15.1717C14.0197 15.3554 13.9523 15.3868 13.5528 15.5838C13.1745 15.7701 13.0587 15.8302 12.6283 16.0627C12.3571 16.2091 12.1364 16.329 12.1379 16.3298C12.1386 16.3305 12.3622 16.2615 12.6335 16.177L13.1276 16.0236L13.6158 15.9003C14.019 15.7989 14.184 15.7598 14.5578 15.6771L15.0116 15.5768L15.4346 15.5074C15.7836 15.4499 15.9302 15.4281 16.2711 15.3823L16.6838 15.327L17.087 15.2993C17.3092 15.2838 17.6559 15.2632 17.8605 15.2528L18.2307 15.234L18.5826 15.2528C18.7754 15.2632 19.0972 15.2776 19.2966 15.2849L19.6595 15.2982L19.9894 15.3458C20.5282 15.4229 20.9013 15.4812 21.232 15.5402C21.5098 15.5897 21.5765 15.603 21.8441 15.6642C22.2737 15.7627 22.6065 15.8524 22.9584 15.9645C23.1681 16.0317 23.2956 16.0689 23.5192 16.1294C23.7978 16.2047 23.8286 16.2139 24.333 16.3788C24.6812 16.4928 25.0206 16.6076 25.3447 16.7216C25.8996 16.9164 26.0858 16.9751 26.5286 17.095C26.7793 17.1628 26.8204 17.1724 27.0674 17.2233C27.6041 17.3333 27.78 17.3669 28.0205 17.4071L28.2661 17.4477L28.5153 17.4609C28.7572 17.4739 29.222 17.493 29.2741 17.4923C29.288 17.4919 29.409 17.4838 29.5424 17.4739Z" fill="#4CAC0D"/>
</g>
</g>
</g>
<defs>
<filter id="filter0_d_3332_1574" x="0" y="0" width="36.9524" height="36.9524" filterUnits="userSpaceOnUse" color-interpolation-filters="sRGB">
<feFlood flood-opacity="0" result="BackgroundImageFix"/>
<feColorMatrix in="SourceAlpha" type="matrix" values="0 0 0 0 0 0 0 0 0 0 0 0 0 0 0 0 0 0 127 0" result="hardAlpha"/>
<feOffset dx="1.47619" dy="1.47619"/>
<feGaussianBlur stdDeviation="0.738095"/>
<feColorMatrix type="matrix" values="0 0 0 0 0.0935726 0 0 0 0 0.243943 0 0 0 0 0.526346 0 0 0 1 0"/>
<feBlend mode="normal" in2="BackgroundImageFix" result="effect1_dropShadow_3332_1574"/>
<feBlend mode="normal" in="SourceGraphic" in2="effect1_dropShadow_3332_1574" result="shape"/>
</filter>
</defs>
</svg>
