<svg width="85" height="75" viewBox="0 0 85 75" fill="none" xmlns="http://www.w3.org/2000/svg">
<mask id="mask0_1_1892" style="mask-type:luminance" maskUnits="userSpaceOnUse" x="0" y="0" width="85" height="77">
<path d="M48.0902 62.2099L68.5177 43.5925L48.0902 62.2099ZM36.9177 43.5925L16.4902 62.2099L36.9177 43.5925ZM48.0902 33.4099L68.5177 14.7925L48.0902 33.4099ZM16.4902 33.4099L36.9177 14.7925L16.4902 33.4099Z" fill="#01354A"/>
<path d="M48.0902 62.2099L68.5177 43.5925M36.9177 43.5925L16.4902 62.2099M48.0902 33.4099L68.5177 14.7925M16.4902 33.4099L36.9177 14.7925" stroke="white" stroke-width="5" stroke-linecap="round" stroke-linejoin="round"/>
<path d="M18.8 9.7C18.8 11.6096 17.9677 13.4409 16.4861 14.7912C15.0046 16.1414 12.9952 16.9 10.9 16.9C8.80479 16.9 6.79539 16.1414 5.31386 14.7912C3.83232 13.4409 3 11.6096 3 9.7C3 7.79044 3.83232 5.95909 5.31386 4.60883C6.79539 3.25857 8.80479 2.5 10.9 2.5C12.9952 2.5 15.0046 3.25857 16.4861 4.60883C17.9677 5.95909 18.8 7.79044 18.8 9.7ZM50.4 9.7C50.4 11.6096 49.5677 13.4409 48.0861 14.7912C46.6046 16.1414 44.5952 16.9 42.5 16.9C40.4048 16.9 38.3954 16.1414 36.9139 14.7912C35.4323 13.4409 34.6 11.6096 34.6 9.7C34.6 7.79044 35.4323 5.95909 36.9139 4.60883C38.3954 3.25857 40.4048 2.5 42.5 2.5C44.5952 2.5 46.6046 3.25857 48.0861 4.60883C49.5677 5.95909 50.4 7.79044 50.4 9.7ZM82 9.7C82 11.6096 81.1677 13.4409 79.6861 14.7912C78.2046 16.1414 76.1952 16.9 74.1 16.9C72.0048 16.9 69.9954 16.1414 68.5139 14.7912C67.0323 13.4409 66.2 11.6096 66.2 9.7C66.2 7.79044 67.0323 5.95909 68.5139 4.60883C69.9954 3.25857 72.0048 2.5 74.1 2.5C76.1952 2.5 78.2046 3.25857 79.6861 4.60883C81.1677 5.95909 82 7.79044 82 9.7ZM82 38.5C82 40.4096 81.1677 42.2409 79.6861 43.5912C78.2046 44.9414 76.1952 45.7 74.1 45.7C72.0048 45.7 69.9954 44.9414 68.5139 43.5912C67.0323 42.2409 66.2 40.4096 66.2 38.5C66.2 36.5904 67.0323 34.7591 68.5139 33.4088C69.9954 32.0586 72.0048 31.3 74.1 31.3C76.1952 31.3 78.2046 32.0586 79.6861 33.4088C81.1677 34.7591 82 36.5904 82 38.5ZM82 67.3C82 69.2096 81.1677 71.0409 79.6861 72.3912C78.2046 73.7414 76.1952 74.5 74.1 74.5C72.0048 74.5 69.9954 73.7414 68.5139 72.3912C67.0323 71.0409 66.2 69.2096 66.2 67.3C66.2 65.3904 67.0323 63.5591 68.5139 62.2088C69.9954 60.8586 72.0048 60.1 74.1 60.1C76.1952 60.1 78.2046 60.8586 79.6861 62.2088C81.1677 63.5591 82 65.3904 82 67.3ZM50.4 67.3C50.4 69.2096 49.5677 71.0409 48.0861 72.3912C46.6046 73.7414 44.5952 74.5 42.5 74.5C40.4048 74.5 38.3954 73.7414 36.9139 72.3912C35.4323 71.0409 34.6 69.2096 34.6 67.3C34.6 65.3904 35.4323 63.5591 36.9139 62.2088C38.3954 60.8586 40.4048 60.1 42.5 60.1C44.5952 60.1 46.6046 60.8586 48.0861 62.2088C49.5677 63.5591 50.4 65.3904 50.4 67.3ZM18.8 67.3C18.8 69.2096 17.9677 71.0409 16.4861 72.3912C15.0046 73.7414 12.9952 74.5 10.9 74.5C8.80479 74.5 6.79539 73.7414 5.31386 72.3912C3.83232 71.0409 3 69.2096 3 67.3C3 65.3904 3.83232 63.5591 5.31386 62.2088C6.79539 60.8586 8.80479 60.1 10.9 60.1C12.9952 60.1 15.0046 60.8586 16.4861 62.2088C17.9677 63.5591 18.8 65.3904 18.8 67.3ZM18.8 38.5C18.8 40.4096 17.9677 42.2409 16.4861 43.5912C15.0046 44.9414 12.9952 45.7 10.9 45.7C8.80479 45.7 6.79539 44.9414 5.31386 43.5912C3.83232 42.2409 3 40.4096 3 38.5C3 36.5904 3.83232 34.7591 5.31386 33.4088C6.79539 32.0586 8.80479 31.3 10.9 31.3C12.9952 31.3 15.0046 32.0586 16.4861 33.4088C17.9677 34.7591 18.8 36.5904 18.8 38.5ZM50.4 38.5C50.4 40.4096 49.5677 42.2409 48.0861 43.5912C46.6046 44.9414 44.5952 45.7 42.5 45.7C40.4048 45.7 38.3954 44.9414 36.9139 43.5912C35.4323 42.2409 34.6 40.4096 34.6 38.5C34.6 36.5904 35.4323 34.7591 36.9139 33.4088C38.3954 32.0586 40.4048 31.3 42.5 31.3C44.5952 31.3 46.6046 32.0586 48.0861 33.4088C49.5677 34.7591 50.4 36.5904 50.4 38.5Z" fill="#01354A" stroke="white" stroke-width="5" stroke-linecap="round" stroke-linejoin="round"/>
</mask>
<g mask="url(#mask0_1_1892)">
<path d="M-8.62695 27.912C-8.62695 2.18199 12.2313 -18.6763 37.9613 -18.6763H47.0201C72.7501 -18.6763 93.6084 2.18199 93.6084 27.912C93.6084 53.6419 72.7501 74.5002 47.0201 74.5002H37.9613C12.2313 74.5002 -8.62695 53.6419 -8.62695 27.912Z" fill="#01354A"/>
</g>
</svg>
