<svg width="109" height="98" viewBox="0 0 109 98" fill="none" xmlns="http://www.w3.org/2000/svg">
<path d="M22.7474 40.6121V82.4868M22.7474 82.4868H78.239M22.7474 82.4868H83.2382M12.8203 37.0694L53.5998 11.7036L83.2382 30.4746M95.3078 38.203L83.2382 30.4746M83.2382 30.4746V16.1674" stroke="#355EAB" stroke-width="5.46448"/>
<path d="M96.9434 71.8742C97.7623 71.8159 97.7723 71.8146 98.6435 71.693C99.4302 71.5835 99.6144 71.5519 100.451 71.3889C101.367 71.2101 101.392 71.204 102.295 70.9596L103.214 70.7126L104.157 70.355C104.675 70.158 105.088 69.995 105.076 69.9938C105.061 69.9914 104.513 70.0169 103.859 70.051L102.666 70.1118H101.656H100.647L99.5173 70.0327L98.3871 69.9536L97.4014 69.8186C96.4754 69.6921 96.3584 69.6727 95.3801 69.4854C94.81 69.3759 93.9238 69.1971 93.4135 69.0901C92.5448 68.9064 92.4228 68.876 91.5366 68.6315C90.6504 68.3858 90.5284 68.3493 89.6945 68.0574C89.2016 67.8859 88.0068 67.4529 87.0359 67.0953L85.271 66.4445L82.7668 65.3742C80.7579 64.5142 80.0908 64.2369 79.3913 63.9693C78.9134 63.7856 78.1516 63.4876 77.6986 63.3076C76.8199 62.9561 75.7918 62.579 74.3156 62.0621C73.4693 61.7665 73.3249 61.7215 72.5084 61.4941C71.8885 61.3214 71.3434 61.1827 70.7136 61.0343C69.81 60.8227 69.805 60.8214 68.8616 60.6682C68.2069 60.5624 67.6318 60.4797 66.9946 60.3994L66.0735 60.2826L65.0654 60.2352C64.0746 60.1877 64.0373 60.1865 63.0092 60.1865H61.9637L60.8435 60.2656C59.9573 60.3276 59.4794 60.369 58.531 60.4651L57.3361 60.5855L56.1412 60.8166L54.9464 61.0477L53.6992 61.398C52.5019 61.7361 52.4048 61.7665 51.1477 62.1898C50.1495 62.528 49.5321 62.7481 48.5115 63.13C47.2619 63.5995 47.0852 63.6701 45.6488 64.2843C44.2349 64.8901 44.0059 64.9935 42.6492 65.643C41.3647 66.2572 40.9714 66.4555 39.5102 67.2218C38.5892 67.7047 37.8399 68.1 37.8449 68.1024C37.8474 68.1048 38.6066 67.8774 39.5276 67.5988L41.2054 67.0928L42.8633 66.6866C44.2324 66.3521 44.7925 66.2232 46.0621 65.9507L47.6029 65.6199L49.0393 65.3912C50.2242 65.2014 50.722 65.1297 51.8796 64.9789L53.281 64.7964L54.6501 64.7052C55.4044 64.6541 56.5818 64.586 57.2764 64.5519L58.5335 64.4899L59.7283 64.5519C60.383 64.586 61.4758 64.6334 62.1529 64.6578L63.3851 64.7015L64.5053 64.8584C66.3349 65.1127 67.602 65.3048 68.7246 65.4995C69.6681 65.6624 69.8946 65.7062 70.8032 65.9081C72.2619 66.2329 73.3921 66.5285 74.5869 66.8982C75.2989 67.1196 75.732 67.2425 76.4913 67.4419C77.4372 67.6901 77.5417 67.7205 79.2544 68.2642C80.4368 68.64 81.5893 69.0183 82.6896 69.3941C84.574 70.0364 85.2063 70.2298 86.7098 70.6251C87.5612 70.8489 87.7006 70.8805 88.5395 71.0483C90.3616 71.4108 90.9591 71.5215 91.7756 71.6541L92.6095 71.7879L93.4558 71.8317C94.2773 71.8742 95.8555 71.9375 96.0323 71.9351C96.0796 71.9338 96.4903 71.9071 96.9434 71.8742Z" fill="#EA0000"/>
<path d="M96.9434 62.2956C97.7623 62.2372 97.7723 62.236 98.6435 62.1144C99.4302 62.0049 99.6144 61.9733 100.451 61.8103C101.367 61.6315 101.392 61.6254 102.295 61.3809L103.214 61.134L104.157 60.7764C104.675 60.5794 105.088 60.4164 105.076 60.4152C105.061 60.4127 104.513 60.4383 103.859 60.4723L102.666 60.5332H101.656H100.647L99.5173 60.4541L98.3871 60.375L97.4014 60.24C96.4754 60.1135 96.3584 60.0941 95.3801 59.9067C94.81 59.7973 93.9238 59.6185 93.4135 59.5114C92.5448 59.3278 92.4228 59.2974 91.5366 59.0529C90.6504 58.8072 90.5284 58.7707 89.6945 58.4788C89.2016 58.3073 88.0068 57.8743 87.0359 57.5167L85.271 56.8659L82.7668 55.7956C80.7579 54.9356 80.0908 54.6583 79.3913 54.3907C78.9134 54.207 78.1516 53.909 77.6986 53.729C76.8199 53.3775 75.7918 53.0004 74.3156 52.4835C73.4693 52.1879 73.3249 52.1429 72.5084 51.9155C71.8885 51.7427 71.3434 51.6041 70.7136 51.4557C69.81 51.2441 69.805 51.2428 68.8616 51.0896C68.2069 50.9838 67.6318 50.901 66.9946 50.8208L66.0735 50.704L65.0654 50.6566C64.0746 50.6091 64.0373 50.6079 63.0092 50.6079H61.9637L60.8435 50.687C59.9573 50.749 59.4794 50.7904 58.531 50.8864L57.3361 51.0069L56.1412 51.238L54.9464 51.4691L53.6992 51.8194C52.5019 52.1575 52.4048 52.1879 51.1477 52.6112C50.1495 52.9493 49.5321 53.1695 48.5115 53.5514C47.2619 54.0209 47.0852 54.0915 45.6488 54.7057C44.2349 55.3115 44.0059 55.4148 42.6492 56.0644C41.3647 56.6786 40.9714 56.8769 39.5102 57.6432C38.5892 58.126 37.8399 58.5213 37.8449 58.5238C37.8474 58.5262 38.6066 58.2988 39.5276 58.0202L41.2054 57.5142L42.8633 57.108C44.2324 56.7735 44.7925 56.6446 46.0621 56.3721L47.6029 56.0413L49.0393 55.8126C50.2242 55.6228 50.722 55.5511 51.8796 55.4002L53.281 55.2178L54.6501 55.1266C55.4044 55.0755 56.5818 55.0074 57.2764 54.9733L58.5335 54.9113L59.7283 54.9733C60.383 55.0074 61.4758 55.0548 62.1529 55.0791L63.3851 55.1229L64.5053 55.2798C66.3349 55.534 67.602 55.7262 68.7246 55.9208C69.6681 56.0838 69.8946 56.1276 70.8032 56.3295C72.2619 56.6543 73.3921 56.9499 74.5869 57.3196C75.2989 57.541 75.732 57.6638 76.4913 57.8633C77.4372 58.1114 77.5417 58.1419 79.2544 58.6856C80.4368 59.0614 81.5893 59.4397 82.6896 59.8155C84.574 60.4577 85.2063 60.6511 86.7098 61.0465C87.5612 61.2703 87.7006 61.3019 88.5395 61.4697C90.3616 61.8322 90.9591 61.9429 91.7756 62.0755L92.6095 62.2093L93.4558 62.253C94.2773 62.2956 95.8555 62.3589 96.0323 62.3564C96.0796 62.3552 96.4903 62.3285 96.9434 62.2956Z" fill="#17A1FA"/>
<path d="M96.9434 52.7199C97.7623 52.6616 97.7723 52.6603 98.6435 52.5387C99.4302 52.4292 99.6144 52.3976 100.451 52.2346C101.367 52.0558 101.392 52.0497 102.295 51.8053L103.214 51.5583L104.157 51.2007C104.675 51.0037 105.088 50.8407 105.076 50.8395C105.061 50.8371 104.513 50.8626 103.859 50.8967L102.666 50.9575H101.656H100.647L99.5173 50.8784L98.3871 50.7994L97.4014 50.6643C96.4754 50.5378 96.3584 50.5184 95.3801 50.3311C94.81 50.2216 93.9238 50.0428 93.4135 49.9358C92.5448 49.7521 92.4228 49.7217 91.5366 49.4772C90.6504 49.2315 90.5284 49.195 89.6945 48.9031C89.2016 48.7316 88.0068 48.2986 87.0359 47.941L85.271 47.2902L82.7668 46.2199C80.7579 45.3599 80.0908 45.0826 79.3913 44.815C78.9134 44.6313 78.1516 44.3333 77.6986 44.1533C76.8199 43.8018 75.7918 43.4247 74.3156 42.9078C73.4693 42.6122 73.3249 42.5672 72.5084 42.3398C71.8885 42.1671 71.3434 42.0284 70.7136 41.88C69.81 41.6684 69.805 41.6672 68.8616 41.5139C68.2069 41.4081 67.6318 41.3254 66.9946 41.2451L66.0735 41.1283L65.0654 41.0809C64.0746 41.0334 64.0373 41.0322 63.0092 41.0322H61.9637L60.8435 41.1113C59.9573 41.1733 59.4794 41.2147 58.531 41.3108L57.3361 41.4312L56.1412 41.6623L54.9464 41.8934L53.6992 42.2437C52.5019 42.5818 52.4048 42.6122 51.1477 43.0355C50.1495 43.3737 49.5321 43.5938 48.5115 43.9757C47.2619 44.4452 47.0852 44.5158 45.6488 45.13C44.2349 45.7358 44.0059 45.8392 42.6492 46.4887C41.3647 47.1029 40.9714 47.3012 39.5102 48.0675C38.5892 48.5504 37.8399 48.9457 37.8449 48.9481C37.8474 48.9505 38.6066 48.7231 39.5276 48.4445L41.2054 47.9385L42.8633 47.5323C44.2324 47.1978 44.7925 47.0689 46.0621 46.7964L47.6029 46.4656L49.0393 46.2369C50.2242 46.0472 50.722 45.9754 51.8796 45.8246L53.281 45.6421L54.6501 45.5509C55.4044 45.4998 56.5818 45.4317 57.2764 45.3976L58.5335 45.3356L59.7283 45.3976C60.383 45.4317 61.4758 45.4791 62.1529 45.5035L63.3851 45.5472L64.5053 45.7041C66.3349 45.9584 67.602 46.1505 68.7246 46.3452C69.6681 46.5081 69.8946 46.5519 70.8032 46.7538C72.2619 47.0786 73.3921 47.3742 74.5869 47.7439C75.2989 47.9653 75.732 48.0882 76.4913 48.2876C77.4372 48.5358 77.5417 48.5662 79.2544 49.1099C80.4368 49.4857 81.5893 49.864 82.6896 50.2398C84.574 50.8821 85.2063 51.0755 86.7098 51.4708C87.5612 51.6946 87.7006 51.7262 88.5395 51.894C90.3616 52.2565 90.9591 52.3672 91.7756 52.4998L92.6095 52.6336L93.4558 52.6774C94.2773 52.7199 95.8555 52.7832 96.0323 52.7808C96.0796 52.7795 96.4903 52.7528 96.9434 52.7199Z" fill="#4CAC0D"/>
</svg>
