<?xml version="1.0" encoding="UTF-8"?>
<svg xmlns="http://www.w3.org/2000/svg" xmlns:xlink="http://www.w3.org/1999/xlink" width="300px" height="269px" viewBox="0 0 299 269" version="1.1">
<g id="surface1">
<path style="fill:none;stroke-width:5.46448;stroke-linecap:butt;stroke-linejoin:miter;stroke:rgb(20.784314%,36.862746%,67.058825%);stroke-opacity:1;stroke-miterlimit:4;" d="M 22.747256 40.612279 L 22.747256 82.486844 M 22.747256 82.486844 L 78.238373 82.486844 M 22.747256 82.486844 L 83.238098 82.486844 M 12.82043 37.068773 L 53.600021 11.703532 L 83.238098 30.474152 M 95.308071 38.20298 L 83.238098 30.474152 M 83.238098 30.474152 L 83.238098 16.16778 " transform="matrix(2.743119,0,0,2.744898,0,0)"/>
<path style=" stroke:none;fill-rule:nonzero;fill:rgb(91.764706%,0%,0%);fill-opacity:1;" d="M 265.925781 197.289062 C 268.171875 197.128906 268.199219 197.125 270.589844 196.789062 C 272.75 196.488281 273.253906 196.402344 275.550781 195.957031 C 278.0625 195.464844 278.128906 195.449219 280.605469 194.777344 L 283.128906 194.097656 L 285.714844 193.117188 C 287.136719 192.578125 288.269531 192.128906 288.234375 192.125 C 288.195312 192.121094 286.691406 192.1875 284.898438 192.28125 L 281.625 192.449219 L 276.085938 192.449219 L 272.988281 192.234375 L 269.886719 192.015625 L 267.183594 191.644531 C 264.644531 191.296875 264.324219 191.246094 261.640625 190.730469 C 260.074219 190.429688 257.644531 189.9375 256.246094 189.644531 C 253.863281 189.140625 253.527344 189.058594 251.097656 188.386719 C 248.664062 187.710938 248.332031 187.613281 246.042969 186.8125 C 244.691406 186.339844 241.414062 185.152344 238.75 184.167969 L 233.910156 182.382812 L 227.039062 179.445312 C 221.527344 177.085938 219.699219 176.324219 217.78125 175.589844 C 216.46875 175.085938 214.378906 174.265625 213.136719 173.773438 C 210.726562 172.808594 207.90625 171.773438 203.855469 170.355469 C 201.535156 169.542969 201.140625 169.417969 198.898438 168.796875 C 197.199219 168.320312 195.703125 167.941406 193.976562 167.53125 C 191.496094 166.953125 191.484375 166.949219 188.894531 166.527344 C 187.101562 166.238281 185.523438 166.011719 183.773438 165.789062 L 181.246094 165.46875 L 178.480469 165.339844 C 175.765625 165.210938 175.660156 165.207031 172.839844 165.207031 L 169.972656 165.207031 L 166.902344 165.421875 C 164.46875 165.59375 163.160156 165.707031 160.558594 165.96875 L 157.28125 166.300781 L 154.003906 166.933594 L 150.722656 167.570312 L 147.304688 168.53125 C 144.019531 169.460938 143.753906 169.542969 140.304688 170.703125 C 137.566406 171.632812 135.871094 172.238281 133.074219 173.285156 C 129.644531 174.574219 129.160156 174.769531 125.21875 176.453125 C 121.339844 178.117188 120.714844 178.402344 116.992188 180.183594 C 113.46875 181.871094 112.390625 182.414062 108.382812 184.515625 C 105.855469 185.84375 103.800781 186.925781 103.8125 186.933594 C 103.820312 186.941406 105.902344 186.316406 108.429688 185.550781 L 113.03125 184.164062 L 117.578125 183.046875 C 121.335938 182.128906 122.871094 181.777344 126.355469 181.027344 L 130.582031 180.121094 L 134.519531 179.492188 C 137.769531 178.972656 139.136719 178.773438 142.3125 178.359375 L 146.15625 177.859375 L 149.910156 177.609375 C 151.980469 177.46875 155.210938 177.28125 157.117188 177.1875 L 160.5625 177.019531 L 163.84375 177.1875 C 165.636719 177.28125 168.636719 177.410156 170.492188 177.480469 L 173.871094 177.597656 L 176.945312 178.03125 C 181.964844 178.726562 185.441406 179.253906 188.519531 179.789062 C 191.109375 180.238281 191.730469 180.355469 194.222656 180.910156 C 198.222656 181.800781 201.324219 182.613281 204.601562 183.628906 C 206.554688 184.238281 207.742188 184.574219 209.824219 185.121094 C 212.417969 185.800781 212.707031 185.886719 217.402344 187.378906 C 220.648438 188.410156 223.808594 189.449219 226.828125 190.480469 C 231.996094 192.242188 233.730469 192.773438 237.855469 193.859375 C 240.191406 194.472656 240.574219 194.558594 242.875 195.019531 C 247.871094 196.015625 249.511719 196.320312 251.75 196.683594 L 254.039062 197.050781 L 256.359375 197.171875 C 258.613281 197.289062 262.941406 197.460938 263.429688 197.453125 C 263.558594 197.449219 264.683594 197.378906 265.925781 197.289062 Z M 265.925781 197.289062 "/>
<path style=" stroke:none;fill-rule:nonzero;fill:rgb(9.019608%,63.137257%,98.039216%);fill-opacity:1;" d="M 265.925781 170.996094 C 268.171875 170.835938 268.199219 170.832031 270.589844 170.496094 C 272.75 170.195312 273.253906 170.109375 275.550781 169.664062 C 278.0625 169.171875 278.128906 169.15625 280.605469 168.484375 L 283.128906 167.804688 L 285.714844 166.824219 C 287.136719 166.285156 288.269531 165.835938 288.234375 165.832031 C 288.195312 165.828125 286.691406 165.898438 284.898438 165.992188 L 281.625 166.15625 L 276.085938 166.15625 L 272.988281 165.941406 L 269.886719 165.722656 L 267.183594 165.351562 C 264.644531 165.003906 264.324219 164.953125 261.640625 164.4375 C 260.074219 164.136719 257.644531 163.648438 256.246094 163.351562 C 253.863281 162.847656 253.527344 162.765625 251.097656 162.09375 C 248.664062 161.417969 248.332031 161.320312 246.042969 160.519531 C 244.691406 160.046875 241.414062 158.859375 238.75 157.878906 L 233.910156 156.089844 L 227.039062 153.152344 C 221.527344 150.792969 219.699219 150.03125 217.78125 149.296875 C 216.46875 148.792969 214.378906 147.976562 213.136719 147.480469 C 210.726562 146.515625 207.90625 145.480469 203.855469 144.0625 C 201.535156 143.25 201.140625 143.125 198.898438 142.503906 C 197.199219 142.027344 195.703125 141.648438 193.976562 141.242188 C 191.496094 140.660156 191.484375 140.65625 188.894531 140.234375 C 187.101562 139.945312 185.523438 139.71875 183.773438 139.496094 L 181.246094 139.175781 L 178.480469 139.046875 C 175.765625 138.917969 175.660156 138.914062 172.839844 138.914062 L 169.972656 138.914062 L 166.902344 139.128906 C 164.46875 139.300781 163.160156 139.414062 160.558594 139.679688 L 157.28125 140.007812 L 154.003906 140.644531 L 150.722656 141.277344 L 147.304688 142.238281 C 144.019531 143.167969 143.753906 143.25 140.304688 144.414062 C 137.566406 145.339844 135.871094 145.945312 133.074219 146.992188 C 129.644531 148.28125 129.160156 148.476562 125.21875 150.160156 C 121.339844 151.824219 120.714844 152.109375 116.992188 153.890625 C 113.46875 155.578125 112.390625 156.121094 108.382812 158.226562 C 105.855469 159.550781 103.800781 160.636719 103.8125 160.640625 C 103.820312 160.648438 105.902344 160.023438 108.429688 159.257812 L 113.03125 157.871094 L 117.578125 156.753906 C 121.335938 155.835938 122.871094 155.484375 126.355469 154.734375 L 130.582031 153.828125 L 134.519531 153.199219 C 137.769531 152.679688 139.136719 152.480469 142.3125 152.066406 L 146.15625 151.566406 L 149.910156 151.316406 C 151.980469 151.175781 155.210938 150.988281 157.117188 150.894531 L 160.5625 150.726562 L 163.84375 150.894531 C 165.636719 150.988281 168.636719 151.121094 170.492188 151.1875 L 173.871094 151.308594 L 176.945312 151.738281 C 181.964844 152.433594 185.441406 152.960938 188.519531 153.496094 C 191.109375 153.945312 191.730469 154.066406 194.222656 154.617188 C 198.222656 155.511719 201.324219 156.320312 204.601562 157.335938 C 206.554688 157.945312 207.742188 158.28125 209.824219 158.828125 C 212.417969 159.511719 212.707031 159.59375 217.402344 161.085938 C 220.648438 162.117188 223.808594 163.15625 226.828125 164.1875 C 231.996094 165.949219 233.730469 166.480469 237.855469 167.566406 C 240.191406 168.179688 240.574219 168.265625 242.875 168.726562 C 247.871094 169.722656 249.511719 170.027344 251.75 170.390625 L 254.039062 170.757812 L 256.359375 170.878906 C 258.613281 170.996094 262.941406 171.167969 263.429688 171.160156 C 263.558594 171.160156 264.683594 171.085938 265.925781 170.996094 Z M 265.925781 170.996094 "/>
<path style=" stroke:none;fill-rule:nonzero;fill:rgb(29.803923%,67.450982%,5.098039%);fill-opacity:1;" d="M 265.925781 144.710938 C 268.171875 144.550781 268.199219 144.546875 270.589844 144.214844 C 272.75 143.914062 273.253906 143.824219 275.550781 143.378906 C 278.0625 142.886719 278.128906 142.871094 280.605469 142.199219 L 283.128906 141.523438 L 285.714844 140.539062 C 287.136719 140 288.269531 139.550781 288.234375 139.550781 C 288.195312 139.542969 286.691406 139.613281 284.898438 139.707031 L 281.625 139.875 L 276.085938 139.875 L 272.988281 139.65625 L 269.886719 139.4375 L 267.183594 139.066406 C 264.644531 138.722656 264.324219 138.667969 261.640625 138.152344 C 260.074219 137.851562 257.644531 137.363281 256.246094 137.070312 C 253.863281 136.5625 253.527344 136.480469 251.097656 135.808594 C 248.664062 135.136719 248.332031 135.035156 246.042969 134.234375 C 244.691406 133.761719 241.414062 132.574219 238.75 131.59375 L 233.910156 129.808594 L 227.039062 126.867188 C 221.527344 124.507812 219.699219 123.746094 217.78125 123.011719 C 216.46875 122.507812 214.378906 121.691406 213.136719 121.195312 C 210.726562 120.230469 207.90625 119.195312 203.855469 117.777344 C 201.535156 116.964844 201.140625 116.84375 198.898438 116.21875 C 197.199219 115.746094 195.703125 115.363281 193.976562 114.957031 C 191.496094 114.375 191.484375 114.371094 188.894531 113.953125 C 187.101562 113.660156 185.523438 113.433594 183.773438 113.214844 L 181.246094 112.894531 L 178.480469 112.761719 C 175.765625 112.632812 175.660156 112.628906 172.839844 112.628906 L 169.972656 112.628906 L 166.902344 112.847656 C 164.46875 113.015625 163.160156 113.128906 160.558594 113.394531 L 157.28125 113.722656 L 154.003906 114.359375 L 150.722656 114.992188 L 147.304688 115.953125 C 144.019531 116.882812 143.753906 116.964844 140.304688 118.128906 C 137.566406 119.054688 135.871094 119.660156 133.074219 120.707031 C 129.644531 121.996094 129.160156 122.191406 125.21875 123.878906 C 121.339844 125.539062 120.714844 125.824219 116.992188 127.605469 C 113.46875 129.292969 112.390625 129.835938 108.382812 131.941406 C 105.855469 133.265625 103.800781 134.351562 103.8125 134.359375 C 103.820312 134.363281 105.902344 133.738281 108.429688 132.976562 L 113.03125 131.585938 L 117.578125 130.472656 C 121.335938 129.554688 122.871094 129.199219 126.355469 128.453125 L 130.582031 127.542969 L 134.519531 126.914062 C 137.769531 126.394531 139.136719 126.199219 142.3125 125.785156 L 146.15625 125.28125 L 149.910156 125.03125 C 151.980469 124.890625 155.210938 124.707031 157.117188 124.613281 L 160.5625 124.441406 L 163.84375 124.613281 C 165.636719 124.707031 168.636719 124.835938 170.492188 124.902344 L 173.871094 125.023438 L 176.945312 125.453125 C 181.964844 126.152344 185.441406 126.679688 188.519531 127.210938 C 191.109375 127.660156 191.730469 127.78125 194.222656 128.335938 C 198.222656 129.226562 201.324219 130.039062 204.601562 131.050781 C 206.554688 131.660156 207.742188 131.996094 209.824219 132.542969 C 212.417969 133.226562 212.707031 133.308594 217.402344 134.800781 C 220.648438 135.832031 223.808594 136.871094 226.828125 137.902344 C 231.996094 139.667969 233.730469 140.195312 237.855469 141.28125 C 240.191406 141.894531 240.574219 141.984375 242.875 142.445312 C 247.871094 143.4375 249.511719 143.742188 251.75 144.105469 L 254.039062 144.472656 L 256.359375 144.59375 C 258.613281 144.710938 262.941406 144.882812 263.429688 144.878906 C 263.558594 144.875 264.683594 144.800781 265.925781 144.710938 Z M 265.925781 144.710938 "/>
</g>
</svg>
