<svg width="57" height="56" viewBox="0 0 57 56" fill="none" xmlns="http://www.w3.org/2000/svg">
<g filter="url(#filter0_d_3630_15148)">
<path d="M51.0567 45.7434C51.0297 48.5047 48.7693 50.7546 46.0079 50.7688L6.16407 50.9727C3.40269 50.9869 1.18604 48.7598 1.21305 45.9985L1.59543 6.90931C1.62245 4.14802 3.88289 1.89809 6.64428 1.88396L46.4881 1.68C49.2495 1.66586 51.4661 3.89287 51.4391 6.65416L51.0567 45.7434Z" fill="white"/>
</g>
<path d="M21.8534 28.6603L21.9947 17.8974L16.0577 17.8194C14.3391 17.7969 12.9125 19.3408 12.8874 21.2504L12.7507 31.6661C12.7257 33.5757 14.1113 35.1565 15.8299 35.1791L17.3923 35.1996L17.3239 40.4075L22.0794 35.2611L29.8912 35.3636C31.6098 35.3861 33.0364 33.8422 33.0615 31.9327L33.1029 28.7732C32.9999 28.7964 32.895 28.8072 32.79 28.8056L21.8534 28.6621L21.8534 28.6603ZM41.1695 9.46768L27.1082 9.28316C25.3896 9.2606 23.9629 10.8045 23.9379 12.7141L23.7556 26.6018L34.6922 26.7453L39.3109 32.0147L39.3793 26.8068L40.9416 26.8273C42.6602 26.8499 44.0869 25.3077 44.1119 23.3964L44.2486 12.9806C44.2737 11.0711 42.8881 9.49024 41.1695 9.46768Z" fill="#355EAB"/>
<g clip-path="url(#clip0_3630_15148)">
<path d="M14.2382 44.0114C14.2226 46.5222 12.1748 48.5936 9.66438 48.6379L7.81892 48.6706C5.30847 48.7149 3.28598 46.7155 3.30157 44.2047C3.31717 41.6939 5.36493 39.6225 7.87539 39.5781L9.72085 39.5455C12.2313 39.5012 14.2538 41.5006 14.2382 44.0114Z" fill="white"/>
<path d="M10.7599 47.4704C10.8851 47.3532 10.9559 47.1961 10.9569 47.0335C10.9579 46.8709 10.889 46.7162 10.7653 46.6034L7.49901 43.6264L10.803 40.5332C10.9246 40.4155 10.9925 40.2594 10.992 40.0987C10.9914 39.9379 10.9226 39.7854 10.8003 39.6739C10.6779 39.5624 10.5119 39.5008 10.3379 39.5025C10.1639 39.5042 9.99583 39.5689 9.86997 39.6828L6.09407 43.2178C5.96894 43.3349 5.89807 43.4921 5.89706 43.6547C5.89605 43.8173 5.96498 43.972 6.08869 44.0847L9.8215 47.487C9.94525 47.5997 10.1136 47.6613 10.2896 47.6582C10.4656 47.6551 10.6348 47.5875 10.7599 47.4704Z" fill="#355EAB"/>
</g>
<defs>
<filter id="filter0_d_3630_15148" x="0.212891" y="0.679688" width="56.2266" height="55.293" filterUnits="userSpaceOnUse" color-interpolation-filters="sRGB">
<feFlood flood-opacity="0" result="BackgroundImageFix"/>
<feColorMatrix in="SourceAlpha" type="matrix" values="0 0 0 0 0 0 0 0 0 0 0 0 0 0 0 0 0 0 127 0" result="hardAlpha"/>
<feOffset dx="2" dy="2"/>
<feGaussianBlur stdDeviation="1.5"/>
<feComposite in2="hardAlpha" operator="out"/>
<feColorMatrix type="matrix" values="0 0 0 0 0.670588 0 0 0 0 0.784314 0 0 0 0 0.870588 0 0 0 0.33 0"/>
<feBlend mode="normal" in2="BackgroundImageFix" result="effect1_dropShadow_3630_15148"/>
<feBlend mode="normal" in="SourceGraphic" in2="effect1_dropShadow_3630_15148" result="shape"/>
</filter>
<clipPath id="clip0_3630_15148">
<path d="M14.2382 44.0114C14.2226 46.5222 12.1748 48.5936 9.66438 48.6379L7.81892 48.6706C5.30847 48.7149 3.28598 46.7155 3.30157 44.2047C3.31717 41.6939 5.36493 39.6225 7.87539 39.5781L9.72085 39.5455C12.2313 39.5012 14.2538 41.5006 14.2382 44.0114Z" fill="white"/>
</clipPath>
</defs>
</svg>
