<svg width="30" height="30" viewBox="0 0 30 30" fill="none" xmlns="http://www.w3.org/2000/svg">
<g clip-path="url(#clip0_2087_2075)">
<circle cx="15" cy="15" r="15" fill="#ABC8DE"/>
<path d="M22.4262 18.6456C21.973 17.8636 21.4276 16.3763 21.4276 13.7466V13.2023C21.4276 9.80595 18.7006 7.02295 15.3438 6.99995H15.2977C14.4917 7.00096 13.6938 7.1604 12.9495 7.46918C12.2052 7.77795 11.5292 8.23001 10.96 8.79954C10.3908 9.36907 9.93951 10.0449 9.632 10.7885C9.32449 11.5321 9.16674 12.3289 9.16774 13.1333V13.7466C9.16774 16.3763 8.62235 17.8636 8.16913 18.6456C8.05953 18.832 8.00119 19.0439 8.00002 19.26C7.99885 19.4761 8.0549 19.6886 8.16248 19.8762C8.27007 20.0637 8.42538 20.2195 8.6127 20.3279C8.80001 20.4363 9.01269 20.4933 9.2292 20.4933H12.225C12.225 21.3066 12.5488 22.0866 13.125 22.6617C13.7012 23.2369 14.4828 23.56 15.2977 23.56C16.1126 23.56 16.8941 23.2369 17.4704 22.6617C18.0466 22.0866 18.3703 21.3066 18.3703 20.4933H21.3662C21.5826 20.4947 21.7956 20.4386 21.9832 20.3308C22.1708 20.2231 22.3263 20.0675 22.4339 19.88C22.5405 19.6914 22.5959 19.4783 22.5946 19.2618C22.5932 19.0453 22.5352 18.8328 22.4262 18.6456ZM15.2977 22.3333C14.8093 22.3313 14.3416 22.1368 13.9963 21.7921C13.651 21.4475 13.4561 20.9807 13.4541 20.4933H17.1413C17.1392 20.9807 16.9444 21.4475 16.5991 21.7921C16.2538 22.1368 15.786 22.3313 15.2977 22.3333ZM9.2292 19.2666C9.75923 18.3466 10.3968 16.6523 10.3968 13.7466V13.1333C10.3948 12.4897 10.5201 11.852 10.7654 11.2567C11.0108 10.6615 11.3715 10.1205 11.8268 9.66468C12.2821 9.20885 12.823 8.84718 13.4186 8.60041C14.0142 8.35364 14.6528 8.22662 15.2977 8.22662H15.3361C18.017 8.24195 20.1985 10.4806 20.1985 13.2023V13.7466C20.1985 16.6523 20.8361 18.3466 21.3662 19.2666H9.2292Z" fill="#01354A" stroke="#01354A" stroke-width="0.810811"/>
</g>
<defs>
<clipPath id="clip0_2087_2075">
<rect width="30" height="30" fill="white"/>
</clipPath>
</defs>
</svg>
