<svg width="30" height="30" viewBox="0 0 30 30" fill="none" xmlns="http://www.w3.org/2000/svg">
<g clip-path="url(#clip0_3807_8898)">
<circle cx="15" cy="15" r="15" fill="white"/>
<path d="M22.4262 18.6457C21.973 17.8637 21.4276 16.3763 21.4276 13.7467V13.2023C21.4276 9.806 18.7006 7.023 15.3438 7H15.2977C14.4917 7.00101 13.6938 7.16045 12.9495 7.46922C12.2052 7.77799 11.5292 8.23005 10.96 8.79959C10.3908 9.36912 9.93951 10.045 9.632 10.7886C9.32449 11.5321 9.16674 12.3289 9.16774 13.1333V13.7467C9.16774 16.3763 8.62235 17.8637 8.16913 18.6457C8.05953 18.832 8.00119 19.044 8.00002 19.26C7.99885 19.4761 8.0549 19.6887 8.16248 19.8762C8.27007 20.0637 8.42538 20.2196 8.6127 20.3279C8.80001 20.4363 9.01269 20.4934 9.2292 20.4933H12.225C12.225 21.3067 12.5488 22.0867 13.125 22.6618C13.7012 23.2369 14.4828 23.56 15.2977 23.56C16.1126 23.56 16.8941 23.2369 17.4704 22.6618C18.0466 22.0867 18.3703 21.3067 18.3703 20.4933H21.3662C21.5826 20.4947 21.7956 20.4386 21.9832 20.3309C22.1708 20.2231 22.3263 20.0675 22.4339 19.88C22.5405 19.6914 22.5959 19.4783 22.5946 19.2618C22.5932 19.0453 22.5352 18.8329 22.4262 18.6457ZM15.2977 22.3333C14.8093 22.3313 14.3416 22.1368 13.9963 21.7922C13.651 21.4476 13.4561 20.9807 13.4541 20.4933H17.1413C17.1392 20.9807 16.9444 21.4476 16.5991 21.7922C16.2538 22.1368 15.786 22.3313 15.2977 22.3333ZM9.2292 19.2667C9.75923 18.3467 10.3968 16.6523 10.3968 13.7467V13.1333C10.3948 12.4897 10.5201 11.852 10.7654 11.2568C11.0108 10.6616 11.3715 10.1206 11.8268 9.66472C12.2821 9.20889 12.823 8.84723 13.4186 8.60046C14.0142 8.35369 14.6528 8.22666 15.2977 8.22667H15.3361C18.017 8.242 20.1985 10.4807 20.1985 13.2023V13.7467C20.1985 16.6523 20.8361 18.3467 21.3662 19.2667H9.2292Z" fill="#355EAB" stroke="#355EAB" stroke-width="0.810811"/>
</g>
<defs>
<clipPath id="clip0_3807_8898">
<rect width="30" height="30" fill="white"/>
</clipPath>
</defs>
</svg>
