<svg width="37" height="37" viewBox="0 0 37 37" fill="none" xmlns="http://www.w3.org/2000/svg">
<g clip-path="url(#clip0_969_8900)">
<circle cx="18.5" cy="18.5" r="18.5" fill="#ABC8DE"/>
<path d="M27.7923 24.363C27.2334 23.3985 26.5607 21.5641 26.5607 18.3209V17.6495C26.5607 13.4607 23.1974 10.0284 19.0573 10H19.0005C18.0064 10.0012 17.0223 10.1979 16.1044 10.5787C15.1865 10.9595 14.3527 11.5171 13.6506 12.2195C12.9486 12.9219 12.3921 13.7555 12.0128 14.6726C11.6335 15.5896 11.439 16.5723 11.4402 17.5644V18.3209C11.4402 21.5641 10.7676 23.3985 10.2086 24.363C10.0734 24.5928 10.0015 24.8542 10 25.1207C9.99858 25.3872 10.0677 25.6494 10.2004 25.8807C10.3331 26.1119 10.5246 26.3041 10.7557 26.4378C10.9867 26.5714 11.249 26.6418 11.516 26.6418H15.2109C15.2109 27.6449 15.6101 28.6069 16.3208 29.3162C17.0315 30.0255 17.9954 30.424 19.0005 30.424C20.0055 30.424 20.9694 30.0255 21.6801 29.3162C22.3908 28.6069 22.7901 27.6449 22.7901 26.6418H26.4849C26.7519 26.6435 27.0145 26.5743 27.2459 26.4414C27.4773 26.3085 27.6692 26.1166 27.8018 25.8853C27.9333 25.6528 28.0016 25.3899 28 25.1229C27.9983 24.8559 27.9267 24.5939 27.7923 24.363ZM19.0005 28.9111C18.3982 28.9086 17.8213 28.6687 17.3954 28.2437C16.9696 27.8186 16.7292 27.2429 16.7267 26.6418H21.2742C21.2717 27.2429 21.0314 27.8186 20.6055 28.2437C20.1796 28.6687 19.6027 28.9086 19.0005 28.9111ZM11.516 25.1289C12.1697 23.9942 12.9561 21.9045 12.9561 18.3209V17.5644C12.9536 16.7706 13.1081 15.9841 13.4107 15.25C13.7134 14.5159 14.1582 13.8487 14.7197 13.2865C15.2812 12.7243 15.9484 12.2782 16.683 11.9739C17.4176 11.6695 18.2051 11.5129 19.0005 11.5129H19.0478C22.3543 11.5318 25.0449 14.2928 25.0449 17.6495V18.3209C25.0449 21.9045 25.8312 23.9942 26.4849 25.1289H11.516Z" fill="#01354A" stroke="#01354A"/>
</g>
<defs>
<clipPath id="clip0_969_8900">
<rect width="37" height="37" fill="white"/>
</clipPath>
</defs>
</svg>
