<svg width="28" height="24" viewBox="0 0 28 24" fill="none" xmlns="http://www.w3.org/2000/svg">
<mask id="mask0_969_8336" style="mask-type:luminance" maskUnits="userSpaceOnUse" x="0" y="0" width="28" height="25">
<path d="M15.9336 19.908L22.398 14.0125L15.9336 19.908ZM12.398 14.0125L5.93359 19.908L12.398 14.0125ZM15.9336 10.788L22.398 4.89258L15.9336 10.788ZM5.93359 10.788L12.398 4.89258L5.93359 10.788Z" fill="#ABC8DE"/>
<path d="M15.9336 19.908L22.398 14.0125M12.398 14.0125L5.93359 19.908M15.9336 10.788L22.398 4.89258M5.93359 10.788L12.398 4.89258" stroke="white" stroke-width="2" stroke-linecap="round" stroke-linejoin="round"/>
<path d="M6.66602 3.27998C6.66602 3.88467 6.40262 4.46459 5.93378 4.89217C5.46494 5.31975 4.82906 5.55996 4.16602 5.55996C3.50297 5.55996 2.86709 5.31975 2.39825 4.89217C1.92941 4.46459 1.66602 3.88467 1.66602 3.27998C1.66602 2.67529 1.92941 2.09537 2.39825 1.66779C2.86709 1.24021 3.50297 1 4.16602 1C4.82906 1 5.46494 1.24021 5.93378 1.66779C6.40262 2.09537 6.66602 2.67529 6.66602 3.27998ZM16.666 3.27998C16.666 3.88467 16.4026 4.46459 15.9338 4.89217C15.4649 5.31975 14.8291 5.55996 14.166 5.55996C13.503 5.55996 12.8671 5.31975 12.3982 4.89217C11.9294 4.46459 11.666 3.88467 11.666 3.27998C11.666 2.67529 11.9294 2.09537 12.3982 1.66779C12.8671 1.24021 13.503 1 14.166 1C14.8291 1 15.4649 1.24021 15.9338 1.66779C16.4026 2.09537 16.666 2.67529 16.666 3.27998ZM26.666 3.27998C26.666 3.88467 26.4026 4.46459 25.9338 4.89217C25.4649 5.31975 24.8291 5.55996 24.166 5.55996C23.503 5.55996 22.8671 5.31975 22.3982 4.89217C21.9294 4.46459 21.666 3.88467 21.666 3.27998C21.666 2.67529 21.9294 2.09537 22.3982 1.66779C22.8671 1.24021 23.503 1 24.166 1C24.8291 1 25.4649 1.24021 25.9338 1.66779C26.4026 2.09537 26.666 2.67529 26.666 3.27998ZM26.666 12.3999C26.666 13.0046 26.4026 13.5845 25.9338 14.0121C25.4649 14.4397 24.8291 14.6799 24.166 14.6799C23.503 14.6799 22.8671 14.4397 22.3982 14.0121C21.9294 13.5845 21.666 13.0046 21.666 12.3999C21.666 11.7952 21.9294 11.2153 22.3982 10.7877C22.8671 10.3601 23.503 10.1199 24.166 10.1199C24.8291 10.1199 25.4649 10.3601 25.9338 10.7877C26.4026 11.2153 26.666 11.7952 26.666 12.3999ZM26.666 21.5198C26.666 22.1245 26.4026 22.7044 25.9338 23.132C25.4649 23.5596 24.8291 23.7998 24.166 23.7998C23.503 23.7998 22.8671 23.5596 22.3982 23.132C21.9294 22.7044 21.666 22.1245 21.666 21.5198C21.666 20.9151 21.9294 20.3352 22.3982 19.9076C22.8671 19.4801 23.503 19.2398 24.166 19.2398C24.8291 19.2398 25.4649 19.4801 25.9338 19.9076C26.4026 20.3352 26.666 20.9151 26.666 21.5198ZM16.666 21.5198C16.666 22.1245 16.4026 22.7044 15.9338 23.132C15.4649 23.5596 14.8291 23.7998 14.166 23.7998C13.503 23.7998 12.8671 23.5596 12.3982 23.132C11.9294 22.7044 11.666 22.1245 11.666 21.5198C11.666 20.9151 11.9294 20.3352 12.3982 19.9076C12.8671 19.4801 13.503 19.2398 14.166 19.2398C14.8291 19.2398 15.4649 19.4801 15.9338 19.9076C16.4026 20.3352 16.666 20.9151 16.666 21.5198ZM6.66602 21.5198C6.66602 22.1245 6.40262 22.7044 5.93378 23.132C5.46494 23.5596 4.82906 23.7998 4.16602 23.7998C3.50297 23.7998 2.86709 23.5596 2.39825 23.132C1.92941 22.7044 1.66602 22.1245 1.66602 21.5198C1.66602 20.9151 1.92941 20.3352 2.39825 19.9076C2.86709 19.4801 3.50297 19.2398 4.16602 19.2398C4.82906 19.2398 5.46494 19.4801 5.93378 19.9076C6.40262 20.3352 6.66602 20.9151 6.66602 21.5198ZM6.66602 12.3999C6.66602 13.0046 6.40262 13.5845 5.93378 14.0121C5.46494 14.4397 4.82906 14.6799 4.16602 14.6799C3.50297 14.6799 2.86709 14.4397 2.39825 14.0121C1.92941 13.5845 1.66602 13.0046 1.66602 12.3999C1.66602 11.7952 1.92941 11.2153 2.39825 10.7877C2.86709 10.3601 3.50297 10.1199 4.16602 10.1199C4.82906 10.1199 5.46494 10.3601 5.93378 10.7877C6.40262 11.2153 6.66602 11.7952 6.66602 12.3999ZM16.666 12.3999C16.666 13.0046 16.4026 13.5845 15.9338 14.0121C15.4649 14.4397 14.8291 14.6799 14.166 14.6799C13.503 14.6799 12.8671 14.4397 12.3982 14.0121C11.9294 13.5845 11.666 13.0046 11.666 12.3999C11.666 11.7952 11.9294 11.2153 12.3982 10.7877C12.8671 10.3601 13.503 10.1199 14.166 10.1199C14.8291 10.1199 15.4649 10.3601 15.9338 10.7877C16.4026 11.2153 16.666 11.7952 16.666 12.3999Z" fill="#ABC8DE" stroke="white" stroke-width="2" stroke-linecap="round" stroke-linejoin="round"/>
</mask>
<g mask="url(#mask0_969_8336)">
<path d="M-2.01367 9.04676C-2.01367 0.899007 4.59139 -5.70605 12.7391 -5.70605H15.5865C23.7342 -5.70605 30.3393 0.899007 30.3393 9.04676C30.3393 17.1945 23.7342 23.7996 15.5865 23.7996H12.7391C4.59138 23.7996 -2.01367 17.1945 -2.01367 9.04676Z" fill="#ABC8DE"/>
</g>
</svg>
