<svg xmlns="http://www.w3.org/2000/svg" viewBox="0 0 157.55078125 145.3828125" fill="none"> <path opacity="0.3" d="M129.790882899168 28.858509186806657C91.99492487742671 55.18521976525357 58.32225307052298 96.69498178115096 47.952115831765056 115.31818324088748C60.02959418333994 112.34219629680072 69.2549289941561 121.76478168953051 80.15040195993463 123.5485261923039C90.86385508493464 125.30255826564976 100.22127288034865 117.60853714961371 94.77490966100436 107.29358013693542C91.64536688416206 101.36732372969495 83.20029545116878 102.56106427669374 86.05019183339938 98.56886230933043C91.61091045339738 90.77921211370841 105.460897515105 109.45734411524366 127.87480572751585 106.75001745740889C160.539002723851 102.80425676629359 159.38521166179675 65.56060037391046 125.94150034048138 66.28892942130547C157.0638969022385 52.45866741778922 162.97766909543384 23.05347449794473 150.09995262356378 10.141825932299922C134.7648434590432 -5.233782022583202 104.89611167170168 -3.435281178808439 92.44810184726624 32.795281243809434C98.17386177694137 -1.4096600225955824 55.90905449559232 -1.6044012774861331 51.98726349544374 30.86197585677496C49.27968715332805 53.275884069185814 67.95781915486332 67.12587113089343 60.168168959241285 72.68683943517235C56.17596699187797 75.53673581740293 57.36970753887679 67.09141470012877 51.443451131636294 63.96212160756736C41.12849411895801 58.51550870394216 33.434473002921955 67.87292649935618 35.18850507626783 78.58637962435618C36.972249579041204 89.48210227441561 45.37612310568542 99.64225503293383 42.39988647731775 111.71948370022781C40.87206836247029 117.91864502649565 28.994337435618068 137.65868427471275 9.695939743462757 142.98370093353805M9.695939743462757 142.98370093353805C6.646670462930864 143.82513696018225 3.4121354459687008 144.30652825376387 0.0039044629110538834 144.3177640464045M9.695939743462757 142.98370093353805C21.888747264386886 138.8758951441165 28.50695371929477 130.31921483755946 27.726190972910064 120.8559309070424C26.750175118858955 109.02688841496632 10.520297365293185 109.28006827580231 7.168335831022187 119.41774944903922C3.6997467691412442 129.90823451119255 17.82795702505943 134.30742185642828 20.57156280890947 126.95397009954439C20.851683603654916 126.20316946686808 20.75323309169473 125.57820971176703 20.04420463921355 125.4114206121236C18.941648791600635 125.15199864426506 17.891251990268426 126.74123909221474 19.37932036759608 127.4061483322603" stroke="#ECDCD8" stroke-width="2"></path> </svg>