<svg width="16" height="16" viewBox="0 0 16 16" fill="none" xmlns="http://www.w3.org/2000/svg">
<path fill-rule="evenodd" clip-rule="evenodd" d="M11.5004 7.00039C11.5004 7.59133 11.384 8.1765 11.1578 8.72246C10.9317 9.26843 10.6002 9.7645 10.1824 10.1824C9.7645 10.6002 9.26843 10.9317 8.72246 11.1578C8.1765 11.384 7.59133 11.5004 7.00039 11.5004C6.40944 11.5004 5.82428 11.384 5.27831 11.1578C4.73234 10.9317 4.23627 10.6002 3.8184 10.1824C3.40054 9.7645 3.06907 9.26843 2.84293 8.72246C2.61678 8.1765 2.50039 7.59133 2.50039 7.00039C2.50039 5.80691 2.97449 4.66232 3.8184 3.81841C4.66232 2.97449 5.80691 2.50039 7.00039 2.50039C8.19386 2.50039 9.33845 2.97449 10.1824 3.81841C11.0263 4.66232 11.5004 5.80691 11.5004 7.00039ZM10.6804 11.7404C9.47476 12.6764 7.95775 13.1177 6.43819 12.9745C4.91862 12.8314 3.51073 12.1145 2.50114 10.9698C1.49154 9.8251 0.956136 8.33868 1.00392 6.81314C1.0517 5.28759 1.67908 3.83759 2.75834 2.75834C3.83759 1.67908 5.28759 1.0517 6.81314 1.00392C8.33868 0.956136 9.8251 1.49154 10.9698 2.50114C12.1145 3.51073 12.8314 4.91862 12.9745 6.43819C13.1177 7.95775 12.6764 9.47476 11.7404 10.6804L14.5304 13.4704C14.6041 13.539 14.6632 13.6218 14.7042 13.7138C14.7452 13.8058 14.7672 13.9052 14.769 14.0059C14.7708 14.1066 14.7522 14.2066 14.7145 14.3C14.6768 14.3934 14.6206 14.4782 14.5494 14.5494C14.4782 14.6206 14.3934 14.6768 14.3 14.7145C14.2066 14.7522 14.1066 14.7708 14.0059 14.769C13.9052 14.7672 13.8058 14.7452 13.7138 14.7042C13.6218 14.6632 13.539 14.6041 13.4704 14.5304L10.6804 11.7404Z" fill="white"/>
</svg>
