<svg width="13" height="14" viewBox="0 0 13 14" fill="none" xmlns="http://www.w3.org/2000/svg">
<path d="M11.8731 9.43889C11.5315 8.87222 11.1204 7.79444 11.1204 5.88889V5.49444C11.1204 3.03333 9.06511 1.01667 6.53502 1H6.50028C5.8928 1.00073 5.29141 1.11627 4.73045 1.34002C4.1695 1.56376 3.65997 1.89134 3.23095 2.30405C2.80192 2.71675 2.46182 3.2065 2.23005 3.74533C1.99827 4.28416 1.87937 4.86152 1.88013 5.44444V5.88889C1.88013 7.79444 1.46907 8.87222 1.12748 9.43889C1.04487 9.57393 1.00089 9.72751 1.00001 9.88409C0.999133 10.0407 1.04137 10.1947 1.12246 10.3306C1.20355 10.4665 1.32061 10.5794 1.46179 10.6579C1.60297 10.7364 1.76327 10.7778 1.92645 10.7778H4.18442C4.18442 11.3671 4.42841 11.9324 4.86272 12.3491C5.29703 12.7659 5.88608 13 6.50028 13C7.11449 13 7.70354 12.7659 8.13785 12.3491C8.57216 11.9324 8.81615 11.3671 8.81615 10.7778H11.0741C11.2373 10.7788 11.3978 10.7381 11.5392 10.6601C11.6806 10.582 11.7978 10.4692 11.8789 10.3333C11.9593 10.1967 12.001 10.0423 12 9.88537C11.999 9.72847 11.9552 9.57456 11.8731 9.43889ZM6.50028 12.1111C6.13223 12.1096 5.77969 11.9687 5.51943 11.719C5.25917 11.4692 5.11229 11.1309 5.11077 10.7778H7.8898C7.88828 11.1309 7.74139 11.4692 7.48114 11.719C7.22088 11.9687 6.86834 12.1096 6.50028 12.1111ZM1.92645 9.88889C2.32594 9.22222 2.80648 7.99444 2.80648 5.88889V5.44444C2.80496 4.97805 2.89937 4.51595 3.08432 4.08463C3.26927 3.65332 3.54111 3.26127 3.88427 2.93096C4.22742 2.60065 4.63514 2.33857 5.08405 2.15975C5.53296 1.98093 6.01423 1.88889 6.50028 1.88889H6.52923C8.54983 1.9 10.1941 3.52222 10.1941 5.49444V5.88889C10.1941 7.99444 10.6746 9.22222 11.0741 9.88889H1.92645Z" fill="white" stroke="white" stroke-width="0.810811"/>
</svg>
