<svg width="13" height="14" viewBox="0 0 13 14" fill="none" xmlns="http://www.w3.org/2000/svg">
<path d="M3.77 8.71111V3.88889H1.3C0.585 3.88889 0 4.58889 0 5.44444V10.1111C0 10.9667 0.585 11.6667 1.3 11.6667H1.95V14L3.9 11.6667H7.15C7.865 11.6667 8.45 10.9667 8.45 10.1111V8.69556C8.40728 8.70653 8.3637 8.712 8.32 8.71189H3.77V8.71111ZM11.7 0H5.85C5.135 0 4.55 0.7 4.55 1.55556V7.77778H9.1L11.05 10.1111V7.77778H11.7C12.415 7.77778 13 7.07856 13 6.22222V1.55556C13 0.7 12.415 0 11.7 0Z" fill="white"/>
</svg>
