<svg width="31" height="30" viewBox="0 0 31 30" fill="none" xmlns="http://www.w3.org/2000/svg">
<g filter="url(#filter0_d_5086_14232)">
<rect width="28" height="27" rx="13.5" fill="white"/>
<path d="M7.16721 10.7177V19M7.16721 19H19.2818M7.16721 19H20.3732M5 10.017L13.9027 5L20.3732 8.71266M23.0081 10.2412L20.3732 8.71266M20.3732 8.71266V5.88288" stroke="#355EAB" stroke-width="2"/>
<path d="M24.1328 17.2363C24.3208 17.2232 24.3231 17.2229 24.5231 17.1956C24.7037 17.1711 24.746 17.164 24.9381 17.1275C25.1484 17.0874 25.1541 17.086 25.3616 17.0312L25.5724 16.9759L25.789 16.8957C25.9079 16.8516 26.0028 16.815 25.9999 16.8148C25.9965 16.8142 25.8708 16.8199 25.7205 16.8276L25.4467 16.8412H25.2147H24.9832L24.7237 16.8235L24.4643 16.8058L24.238 16.7755C24.0254 16.7471 23.9985 16.7428 23.7739 16.7008C23.643 16.6763 23.4396 16.6362 23.3224 16.6122C23.1229 16.571 23.0949 16.5642 22.8915 16.5094C22.688 16.4543 22.66 16.4461 22.4686 16.3807C22.3554 16.3423 22.0811 16.2452 21.8582 16.1651L21.453 16.0192L20.878 15.7793C20.4168 15.5865 20.2637 15.5243 20.1031 15.4644C19.9933 15.4232 19.8184 15.3564 19.7144 15.3161C19.5127 15.2373 19.2766 15.1527 18.9377 15.0369C18.7434 14.9706 18.7103 14.9605 18.5228 14.9095C18.3805 14.8708 18.2554 14.8397 18.1108 14.8065C17.9033 14.759 17.9022 14.7588 17.6856 14.7244C17.5352 14.7007 17.4032 14.6822 17.2569 14.6642L17.0455 14.638L16.814 14.6274C16.5865 14.6167 16.578 14.6165 16.3419 14.6165H16.1019L15.8447 14.6342C15.6412 14.6481 15.5315 14.6574 15.3138 14.6789L15.0394 14.7059L14.7651 14.7577L14.4908 14.8095L14.2045 14.888C13.9296 14.9638 13.9073 14.9706 13.6187 15.0655C13.3895 15.1413 13.2477 15.1906 13.0134 15.2762C12.7265 15.3815 12.6859 15.3973 12.3562 15.535C12.0316 15.6708 11.979 15.6939 11.6675 15.8395C11.3726 15.9772 11.2823 16.0216 10.9468 16.1934C10.7354 16.3016 10.5633 16.3903 10.5645 16.3908C10.5651 16.3913 10.7394 16.3404 10.9508 16.2779L11.336 16.1645L11.7167 16.0734C12.031 15.9985 12.1596 15.9696 12.4511 15.9085L12.8048 15.8343L13.1346 15.7831C13.4066 15.7406 13.5209 15.7245 13.7867 15.6907L14.1084 15.6498L14.4228 15.6293C14.5959 15.6179 14.8663 15.6026 15.0257 15.595L15.3143 15.5811L15.5887 15.595C15.739 15.6026 15.9899 15.6132 16.1453 15.6187L16.4282 15.6285L16.6854 15.6637C17.1055 15.7207 17.3964 15.7637 17.6541 15.8074C17.8707 15.8439 17.9227 15.8537 18.1313 15.899C18.4662 15.9718 18.7257 16.038 19 16.1209C19.1635 16.1705 19.2629 16.198 19.4372 16.2428C19.6544 16.2984 19.6784 16.3052 20.0716 16.4271C20.3431 16.5113 20.6077 16.5961 20.8603 16.6803C21.2929 16.8243 21.4381 16.8677 21.7833 16.9563C21.9788 17.0064 22.0108 17.0135 22.2034 17.0511C22.6217 17.1324 22.7589 17.1572 22.9463 17.1869L23.1378 17.2169L23.3321 17.2267C23.5207 17.2363 23.883 17.2504 23.9236 17.2499C23.9345 17.2496 24.0288 17.2436 24.1328 17.2363Z" fill="#EA0000"/>
<path d="M24.1328 15.09C24.3208 15.0769 24.3231 15.0767 24.5231 15.0494C24.7037 15.0249 24.746 15.0178 24.9381 14.9812C25.1484 14.9412 25.1541 14.9398 25.3616 14.885L25.5724 14.8297L25.789 14.7495C25.9079 14.7053 26.0028 14.6688 25.9999 14.6685C25.9965 14.668 25.8708 14.6737 25.7205 14.6813L25.4467 14.695H25.2147H24.9832L24.7237 14.6772L24.4643 14.6595L24.238 14.6293C24.0254 14.6009 23.9985 14.5965 23.7739 14.5546C23.643 14.53 23.4396 14.4899 23.3224 14.4659C23.1229 14.4248 23.0949 14.418 22.8915 14.3632C22.688 14.3081 22.66 14.2999 22.4686 14.2345C22.3554 14.196 22.0811 14.099 21.8582 14.0188L21.453 13.873L20.878 13.633C20.4168 13.4403 20.2637 13.3781 20.1031 13.3181C19.9933 13.277 19.8184 13.2102 19.7144 13.1698C19.5127 13.091 19.2766 13.0065 18.9377 12.8906C18.7434 12.8244 18.7103 12.8143 18.5228 12.7633C18.3805 12.7246 18.2554 12.6935 18.1108 12.6602C17.9033 12.6128 17.9022 12.6125 17.6856 12.5782C17.5352 12.5545 17.4032 12.5359 17.2569 12.5179L17.0455 12.4918L16.814 12.4811C16.5865 12.4705 16.578 12.4702 16.3419 12.4702H16.1019L15.8447 12.4879C15.6412 12.5018 15.5315 12.5111 15.3138 12.5326L15.0394 12.5596L14.7651 12.6114L14.4908 12.6632L14.2045 12.7418C13.9296 12.8176 13.9073 12.8244 13.6187 12.9193C13.3895 12.995 13.2477 13.0444 13.0134 13.13C12.7265 13.2352 12.6859 13.2511 12.3562 13.3887C12.0316 13.5245 11.979 13.5477 11.6675 13.6933C11.3726 13.831 11.2823 13.8754 10.9468 14.0472C10.7354 14.1554 10.5633 14.244 10.5645 14.2446C10.5651 14.2451 10.7394 14.1941 10.9508 14.1317L11.336 14.0183L11.7167 13.9272C12.031 13.8522 12.1596 13.8233 12.4511 13.7623L12.8048 13.6881L13.1346 13.6368C13.4066 13.5943 13.5209 13.5782 13.7867 13.5444L14.1084 13.5035L14.4228 13.4831C14.5959 13.4716 14.8663 13.4564 15.0257 13.4487L15.3143 13.4348L15.5887 13.4487C15.739 13.4564 15.9899 13.467 16.1453 13.4724L16.4282 13.4823L16.6854 13.5174C17.1055 13.5744 17.3964 13.6175 17.6541 13.6611C17.8707 13.6976 17.9227 13.7075 18.1313 13.7527C18.4662 13.8255 18.7257 13.8918 19 13.9746C19.1635 14.0243 19.2629 14.0518 19.4372 14.0965C19.6544 14.1521 19.6784 14.159 20.0716 14.2808C20.3431 14.3651 20.6077 14.4499 20.8603 14.5341C21.2929 14.6781 21.4381 14.7214 21.7833 14.81C21.9788 14.8602 22.0108 14.8673 22.2034 14.9049C22.6217 14.9861 22.7589 15.011 22.9463 15.0407L23.1378 15.0707L23.3321 15.0805C23.5207 15.09 23.883 15.1042 23.9236 15.1037C23.9345 15.1034 24.0288 15.0974 24.1328 15.09Z" fill="#17A1FA"/>
<path d="M24.1328 12.7154C24.3208 12.7024 24.3231 12.7021 24.5231 12.6749C24.7037 12.6504 24.746 12.6434 24.9381 12.607C25.1484 12.567 25.1541 12.5657 25.3616 12.511L25.5724 12.4559L25.789 12.376C25.9079 12.3319 26.0028 12.2955 25.9999 12.2953C25.9965 12.2947 25.8708 12.3004 25.7205 12.308L25.4467 12.3216H25.2147H24.9832L24.7237 12.3039L24.4643 12.2863L24.238 12.2561C24.0254 12.2279 23.9985 12.2235 23.7739 12.1817C23.643 12.1572 23.4396 12.1172 23.3224 12.0933C23.1229 12.0523 23.0949 12.0455 22.8915 11.9909C22.688 11.936 22.66 11.9278 22.4686 11.8626C22.3554 11.8243 22.0811 11.7275 21.8582 11.6476L21.453 11.5022L20.878 11.2631C20.4168 11.0709 20.2637 11.009 20.1031 10.9492C19.9933 10.9082 19.8184 10.8416 19.7144 10.8014C19.5127 10.7228 19.2766 10.6386 18.9377 10.5231C18.7434 10.457 18.7103 10.447 18.5228 10.3962C18.3805 10.3576 18.2554 10.3266 18.1108 10.2934C17.9033 10.2461 17.9022 10.2459 17.6856 10.2116C17.5352 10.188 17.4032 10.1695 17.2569 10.1516L17.0455 10.1255L16.814 10.1149C16.5865 10.1043 16.578 10.104 16.3419 10.104H16.1019L15.8447 10.1217C15.6412 10.1355 15.5315 10.1448 15.3138 10.1662L15.0394 10.1931L14.7651 10.2448L14.4908 10.2964L14.2045 10.3747C13.9296 10.4502 13.9073 10.457 13.6187 10.5516C13.3895 10.6272 13.2477 10.6763 13.0134 10.7617C12.7265 10.8666 12.6859 10.8823 12.3562 11.0196C12.0316 11.1549 11.979 11.178 11.6675 11.3231C11.3726 11.4604 11.2823 11.5047 10.9468 11.6759C10.7354 11.7838 10.5633 11.8721 10.5645 11.8727C10.5651 11.8732 10.7394 11.8224 10.9508 11.7601L11.336 11.6471L11.7167 11.5563C12.031 11.4816 12.1596 11.4528 12.4511 11.3919L12.8048 11.318L13.1346 11.2669C13.4066 11.2245 13.5209 11.2085 13.7867 11.1748L14.1084 11.134L14.4228 11.1136C14.5959 11.1022 14.8663 11.087 15.0257 11.0794L15.3143 11.0655L15.5887 11.0794C15.739 11.087 15.9899 11.0976 16.1453 11.103L16.4282 11.1128L16.6854 11.1479C17.1055 11.2047 17.3964 11.2476 17.6541 11.2911C17.8707 11.3275 17.9227 11.3373 18.1313 11.3824C18.4662 11.455 18.7257 11.521 19 11.6036C19.1635 11.6531 19.2629 11.6805 19.4372 11.7251C19.6544 11.7805 19.6784 11.7873 20.0716 11.9088C20.3431 11.9928 20.6077 12.0773 20.8603 12.1613C21.2929 12.3048 21.4381 12.348 21.7833 12.4363C21.9788 12.4863 22.0108 12.4934 22.2034 12.5309C22.6217 12.6119 22.7589 12.6366 22.9463 12.6662L23.1378 12.6961L23.3321 12.7059C23.5207 12.7154 23.883 12.7295 23.9236 12.729C23.9345 12.7287 24.0288 12.7227 24.1328 12.7154Z" fill="#4CAC0D"/>
</g>
<defs>
<filter id="filter0_d_5086_14232" x="0" y="0" width="30.9524" height="29.9524" filterUnits="userSpaceOnUse" color-interpolation-filters="sRGB">
<feFlood flood-opacity="0" result="BackgroundImageFix"/>
<feColorMatrix in="SourceAlpha" type="matrix" values="0 0 0 0 0 0 0 0 0 0 0 0 0 0 0 0 0 0 127 0" result="hardAlpha"/>
<feOffset dx="1.47619" dy="1.47619"/>
<feGaussianBlur stdDeviation="0.738095"/>
<feColorMatrix type="matrix" values="0 0 0 0 0.0935726 0 0 0 0 0.243943 0 0 0 0 0.526346 0 0 0 1 0"/>
<feBlend mode="normal" in2="BackgroundImageFix" result="effect1_dropShadow_5086_14232"/>
<feBlend mode="normal" in="SourceGraphic" in2="effect1_dropShadow_5086_14232" result="shape"/>
</filter>
</defs>
</svg>
