<svg  viewBox="0 0 110 100" fill="none" xmlns="http://www.w3.org/2000/svg">
<path d="M71.3415 16.6943L91.3705 24.182L95.6319 30.5604C99.6093 36.3842 100.888 39.4348 99.3963 39.4348C99.0411 39.4348 90.8733 37.3086 81.1429 34.8127C71.4125 32.2244 63.3867 30.1907 63.3157 30.1907C63.2446 30.1907 60.6167 26.2157 57.4916 21.4088L51.7386 12.6269L44.4941 24.0896C38.1729 34.0732 36.9655 35.5523 34.6927 36.1069C28.8686 37.3086 28.6556 37.2162 24.6782 29.2663L20.9139 21.7785L16.2262 32.0395C13.1722 38.6028 11.1124 42.208 10.3312 42.208C9.40785 42.208 10.3312 39.6197 14.1665 31.0226C16.9365 24.9215 19.6354 19.6524 20.1326 19.3751C20.6298 19.1902 25.8146 19.9297 31.6386 21.1315L42.2923 23.35L45.7725 17.896C47.6192 14.9379 49.6789 11.7025 50.2471 10.7781C51.2415 9.20657 52.3068 9.48389 71.3415 16.6943Z" fill="#01354A" fill-opacity="0.8"/>
<path d="M57.2755 22.7954C60.1165 27.325 63.0285 31.2075 63.6677 31.4848C64.307 31.6697 71.9066 33.611 80.5716 35.8296L96.4102 39.8045V62.2677V84.6384L94.0663 85.1931C92.8589 85.4704 85.2593 86.6721 77.2335 87.8739L62.6734 90L50.5992 88.3361C43.9228 87.4117 38.0988 86.6721 37.6016 86.5797C36.9624 86.5797 36.7493 83.4367 36.7493 74.1001V61.6206H32.1327H27.5161V73.7304V85.9326L22.3313 85.2855C19.5613 84.9157 16.1522 84.4535 14.8737 84.0838L12.6009 83.6216V62.9148V42.3004L16.5783 33.5185C18.7801 28.6192 20.6977 24.6442 20.8398 24.6442C20.9818 24.6442 22.6864 27.6948 24.6041 31.3924L28.0843 38.233L32.914 37.4011C35.5419 37.0313 37.9568 36.3842 38.1698 36.0145C38.4539 35.5522 41.579 30.5604 45.2013 24.8291C48.8236 19.1902 51.8066 14.4757 51.8776 14.5681C51.9486 14.5681 54.3635 18.2658 57.2755 22.7954ZM49.4628 23.7198C48.5395 24.4593 48.1133 25.6611 48.1133 27.9721C48.1133 31.1151 48.1843 31.2075 50.3861 30.9302C52.5879 30.6529 52.7299 30.3755 52.943 26.6779C53.1561 22.5181 52.3038 21.7785 49.4628 23.7198ZM19.8454 35.5522C19.6324 38.1406 19.8454 38.6028 20.9108 38.3255C21.7631 38.1406 22.2603 37.0313 22.4023 34.9976C22.6154 32.4093 22.4023 31.947 21.337 32.2244C20.4847 32.4093 19.9875 33.5185 19.8454 35.5522ZM68.2133 43.7795C68.4264 43.9644 69.9179 44.4266 71.4805 44.7039C74.3214 45.2586 74.3925 45.1661 74.3925 42.3929C74.3925 40.0819 74.0373 39.3423 72.7589 39.065C68.5684 37.8633 68.3554 37.9557 68.1423 40.6365C68.0002 42.1156 68.0713 43.5022 68.2133 43.7795ZM51.0963 39.065C50.6702 39.2499 50.244 40.7289 50.244 42.4853V45.5359L53.2271 45.0737C56.1391 44.519 56.2812 44.3341 56.4942 41.0987C56.7073 37.5859 56.7073 37.5859 54.3635 38.1406C53.085 38.4179 51.5935 38.7877 51.0963 39.065ZM78.654 43.04C78.654 44.9812 79.0801 45.8132 80.2165 46.2754C83.5547 47.3847 84.3359 46.9225 84.3359 44.1493C84.3359 42.0231 83.9808 41.2836 82.7024 41.0063C79.0091 40.0819 78.654 40.2667 78.654 43.04ZM41.8631 40.9138C40.7267 41.376 40.3006 42.208 40.3006 44.1493C40.3006 46.3678 40.5847 46.83 42.0052 46.83C44.9882 46.83 45.9826 45.8132 45.9826 43.04C45.9826 40.2667 45.1303 39.8045 41.8631 40.9138ZM87.8872 44.9812C87.8872 47.5696 88.1003 47.7545 90.373 47.7545C92.5038 47.7545 92.8589 47.4771 92.8589 45.5359C92.8589 43.3173 92.1487 42.8551 88.7395 42.3004C88.2423 42.3004 87.8872 43.3173 87.8872 44.9812ZM21.1239 47.8469C21.1239 50.0655 21.337 50.6201 22.2603 50.1579C22.8995 49.8806 23.8228 49.6033 24.391 49.6033C24.9592 49.6033 25.3854 48.6789 25.3854 47.2923C25.3854 45.351 25.0303 44.9812 23.2546 44.9812C21.337 44.9812 21.1239 45.2586 21.1239 47.8469ZM15.868 46.4603C14.6606 47.0149 14.3055 50.0655 15.2999 50.8975C16.7204 52.0067 18.9931 50.2504 18.9931 48.1242C18.9931 45.9056 17.9988 45.351 15.868 46.4603ZM52.3038 49.6033C50.3861 49.6033 50.244 49.8806 50.244 52.8387C50.244 56.0742 50.244 56.0742 53.4402 56.0742H56.6363V52.2841C56.6363 49.2335 56.4232 48.5864 55.4999 49.0486C54.8607 49.326 53.4402 49.6033 52.3038 49.6033ZM68.0002 52.2841C68.0002 55.0573 69.2787 56.0742 72.7589 56.0742C74.1794 56.0742 74.3925 55.6119 74.3925 52.8387C74.3925 49.6033 74.3925 49.6033 71.1964 49.6033C68.1423 49.6033 68.0002 49.6957 68.0002 52.2841ZM78.654 53.2085C78.654 55.9817 79.6483 56.9986 82.6313 56.9986C84.0518 56.9986 84.3359 56.5364 84.3359 54.3178C84.3359 52.1916 83.9808 51.4521 82.7024 51.1748C79.0091 50.2504 78.654 50.4352 78.654 53.2085ZM40.4426 53.948C40.2296 56.6288 40.4426 56.9986 42.0052 56.9986C44.9882 56.9986 45.9826 56.0742 45.9826 53.116C45.9826 50.5277 45.8405 50.4352 43.2836 50.7126C40.8688 50.9899 40.6557 51.2672 40.4426 53.948ZM88.0292 56.5364C88.1713 56.6288 89.3077 57.091 90.5151 57.4608C92.7879 58.0154 92.8589 57.923 92.8589 55.2422C92.8589 52.8387 92.5748 52.469 90.5151 52.1916C88.5974 51.9143 88.2423 52.2841 88.0292 54.0404C87.8872 55.2422 87.8872 56.3515 88.0292 56.5364ZM21.1239 56.0742C21.1239 57.8305 21.479 58.8474 22.1182 58.8474C24.249 58.8474 25.3854 57.6456 25.3854 55.5195C25.3854 53.6707 25.0303 53.3009 23.2546 53.3009C21.337 53.3009 21.1239 53.5782 21.1239 56.0742ZM15.4419 56.5364C15.4419 58.3852 15.797 58.8474 17.2175 58.8474C18.638 58.8474 18.9931 58.3852 18.9931 56.5364C18.9931 54.6875 18.638 54.2253 17.2175 54.2253C15.797 54.2253 15.4419 54.6875 15.4419 56.5364ZM78.654 63.4694C78.654 66.0578 78.796 66.2427 81.495 66.2427C83.9808 66.2427 84.3359 65.9653 84.3359 64.1165C84.3359 61.2508 83.8388 60.6962 80.9978 60.6962C78.867 60.6962 78.654 60.9735 78.654 63.4694ZM68.0002 63.4694C68.0002 66.1502 68.1423 66.2427 71.1964 66.2427C74.2504 66.2427 74.3925 66.1502 74.3925 63.4694C74.3925 60.7886 74.2504 60.6962 71.1964 60.6962C68.1423 60.6962 68.0002 60.7886 68.0002 63.4694ZM50.244 63.9316C50.244 67.1671 50.244 67.1671 53.4402 67.1671C56.6363 67.1671 56.6363 67.1671 56.6363 63.9316C56.6363 60.6962 56.6363 60.6962 53.4402 60.6962C50.244 60.6962 50.244 60.6962 50.244 63.9316ZM40.3006 63.9316C40.3006 67.0746 40.3716 67.1671 43.1416 67.1671C45.9115 67.1671 45.9826 67.0746 45.9826 63.9316C45.9826 60.7886 45.9115 60.6962 43.1416 60.6962C40.3716 60.6962 40.3006 60.7886 40.3006 63.9316ZM88.0292 64.1165C88.2423 66.3351 88.5974 66.7049 90.373 66.7049C92.1487 66.7049 92.5038 66.3351 92.7169 64.1165C92.9299 61.8055 92.7879 61.6206 90.373 61.6206C87.9582 61.6206 87.8162 61.8055 88.0292 64.1165ZM21.1239 64.3938C21.1239 66.8897 21.337 67.1671 23.2546 67.1671C25.1723 67.1671 25.3854 66.8897 25.3854 64.3938C25.3854 61.8979 25.1723 61.6206 23.2546 61.6206C21.337 61.6206 21.1239 61.8979 21.1239 64.3938ZM14.8737 64.5787C15.0158 65.9653 15.655 66.7973 16.6493 66.9822C17.9988 67.2595 18.2829 66.8897 18.2829 64.9485C18.2829 63.0072 17.9278 62.545 16.4362 62.545C14.9447 62.545 14.6606 62.9148 14.8737 64.5787ZM21.1239 72.7135C21.1239 75.2094 21.337 75.4868 23.2546 75.4868C25.0303 75.4868 25.3854 75.117 25.3854 73.2682C25.3854 70.9572 24.6041 70.1252 22.3313 70.0327C21.479 69.9403 21.1239 70.6798 21.1239 72.7135ZM14.8737 72.4362C14.6606 74.285 14.9447 74.5624 16.7914 74.5624C18.4249 74.5624 18.9931 74.1001 18.9931 72.8984C18.9931 70.5874 18.2829 69.8479 16.5073 70.1252C15.655 70.3101 15.0158 71.2345 14.8737 72.4362ZM87.8872 73.6379C87.8872 76.2263 88.1003 76.4112 90.373 76.4112C92.6458 76.4112 92.8589 76.2263 92.8589 73.6379C92.8589 71.0496 92.6458 70.8647 90.373 70.8647C88.1003 70.8647 87.8872 71.0496 87.8872 73.6379ZM78.654 74.1001C78.654 77.5205 79.2932 77.9827 82.7024 76.7809C83.9098 76.3187 84.3359 75.4868 84.3359 73.5455C84.3359 71.0496 84.1229 70.8647 81.495 70.8647C78.725 70.8647 78.654 70.9572 78.654 74.1001ZM50.244 74.0077C50.244 76.7809 50.5281 77.1507 52.4458 77.7053C56.2812 78.7222 56.6363 78.4449 56.6363 75.117C56.6363 71.7891 55.9971 71.142 52.1617 70.9572C50.4571 70.8647 50.244 71.142 50.244 74.0077ZM40.3006 73.5455C40.3006 75.4868 40.7267 76.3187 41.8631 76.7809C45.3433 77.9827 45.9826 77.5205 45.9826 74.1001C45.9826 70.9572 45.9115 70.8647 43.1416 70.8647C40.5137 70.8647 40.3006 71.0496 40.3006 73.5455ZM68.0002 75.117C68.0002 77.7978 68.2133 78.3524 69.1366 77.8902C69.7759 77.6129 71.1964 77.3356 72.3328 77.3356C74.1794 77.3356 74.3925 76.9658 74.3925 74.5624C74.3925 71.8816 74.2504 71.7891 71.1964 71.7891H68.0002V75.117Z" fill="#01354A" fill-opacity="0.8"/>
</svg>
