<svg  viewBox="0 0 110 100" fill="none" xmlns="http://www.w3.org/2000/svg">
<path d="M10.45 23.5284V12.6882C10.45 11.8602 10.8427 11.2203 11.6281 10.7686C12.4135 10.3169 13.217 10.2793 14.0387 10.6557L25.795 16.0758C26.7025 16.4522 27.1562 17.1297 27.1562 18.1083C27.1562 19.087 26.7025 19.7645 25.795 20.1409L14.0387 25.5609C13.2137 25.9373 12.4085 25.8997 11.6231 25.448C10.8377 24.9964 10.4467 24.3565 10.45 23.5284ZM84.7 23.5284V12.6882C84.7 11.8602 85.0927 11.2203 85.8781 10.7686C86.6635 10.3169 87.467 10.2793 88.2887 10.6557L100.045 16.0758C100.952 16.4522 101.406 17.1297 101.406 18.1083C101.406 19.087 100.952 19.7645 100.045 20.1409L88.2887 25.5609C87.4637 25.9373 86.6585 25.8997 85.8731 25.448C85.0877 24.9964 84.6967 24.3565 84.7 23.5284ZM50.05 19.0117V8.17149C50.05 7.34342 50.4427 6.70355 51.2281 6.25188C52.0135 5.8002 52.817 5.76256 53.6387 6.13896L65.395 11.559C66.3025 11.9354 66.7562 12.613 66.7562 13.5916C66.7562 14.5702 66.3025 15.2477 65.395 15.6241L53.6387 21.0442C52.8137 21.4206 52.0102 21.383 51.2281 20.9313C50.446 20.4796 50.0533 19.8397 50.05 19.0117ZM37.18 93.9896C29.095 93.1615 21.7937 91.674 15.2762 89.5271C8.75875 87.3801 5.5 84.652 5.5 81.3427V40.692C5.5 38.8101 6.8002 37.0591 9.4006 35.4391C12.001 33.8191 15.527 32.3888 19.9787 31.1482C24.4337 29.9076 29.6725 28.9289 35.695 28.2123C41.7175 27.4956 48.1525 27.1388 55 27.1418C61.8475 27.1418 68.2825 27.5001 74.305 28.2168C80.3275 28.9334 85.5662 29.9121 90.0212 31.1527C94.4762 32.3933 98.0039 33.8236 100.604 35.4436C103.205 37.0636 104.503 38.8131 104.5 40.692V81.3427C104.5 84.7303 101.22 87.4975 94.6594 89.6445C88.099 91.7914 80.7779 93.2775 72.6962 94.1025C71.9537 94.1778 71.2937 93.9715 70.7162 93.4837C70.1387 92.9959 69.85 92.4117 69.85 91.7312V85.8595C69.85 82.0955 68.4062 78.8961 65.5187 76.2614C62.6312 73.6266 59.125 72.3092 55 72.3092C50.875 72.3092 47.3687 73.6266 44.4812 76.2614C41.5937 78.8961 40.15 82.0955 40.15 85.8595V91.6183C40.15 92.3711 39.8612 92.9733 39.2837 93.425C38.7062 93.8767 38.005 94.0649 37.18 93.9896ZM55 45.2088C63.0025 45.2088 69.9127 44.7752 75.7306 43.908C81.5485 43.0407 86.1883 42.044 89.65 40.9179C89.65 40.5415 86.515 39.6562 80.245 38.262C73.975 36.8679 65.56 36.1723 55 36.1753C44.44 36.1753 36.025 36.8724 29.755 38.2665C23.485 39.6607 20.35 40.5445 20.35 40.9179C23.815 42.0471 28.4564 43.0453 34.2743 43.9125C40.0922 44.7797 47.0008 45.2118 55 45.2088Z" fill="#01354A" fill-opacity="0.8"/>
</svg>
