<svg width="110" height="100" viewBox="0 0 110 100" fill="none" xmlns="http://www.w3.org/2000/svg">
<path d="M54.797 14.542L41.6122 17.4785L32.5807 25.9883C27.6364 30.7227 23.681 34.618 23.7469 34.678C23.8128 34.7379 30.0756 34.1386 37.7227 33.2996L51.5008 31.8014L55.1266 28.3855C57.1043 26.5277 61.0597 22.6923 63.9604 19.9355C66.7951 17.1788 69.3002 15.2012 69.5639 15.5008C69.7616 15.8005 73.783 20.415 78.3976 25.7486C85.3196 33.7191 87.1655 35.457 88.5499 35.457H90.198L88.2862 33.1797C72.926 14.2423 70.5527 11.5455 69.3002 11.5455C68.575 11.5455 62.0486 12.9239 54.797 14.542Z" fill="#01354A" fill-opacity="0.8"/>
<path d="M60.7308 25.2091C54.7318 31.1421 52.4244 33.0598 50.9082 33.2995C49.7875 33.4793 43.4588 34.1984 36.8664 34.9176L24.8024 36.236V46.0043V55.7128L18.9352 60.1475C15.639 62.5446 13.0021 64.702 13.0021 64.9418C12.9361 65.2414 14.4524 65.4212 16.2323 65.4212H19.5285V74.7101C19.5285 79.804 19.5944 83.999 19.7263 84.059C19.7922 84.059 27.1097 84.7781 36.0094 85.677C51.897 87.2951 52.3585 87.2951 62.0493 86.3962L71.9379 85.4972L72.1356 76.448C72.3334 66.0205 71.8719 66.6198 79.3872 66.6198H83.4745V75.1895C83.4745 79.9239 83.6063 83.9391 83.7382 84.059C83.936 84.2387 85.2544 84.2387 86.7048 84.1189L89.4076 83.8792V74.9498V66.0205H92.7038C94.5497 66.0205 96 65.8407 96 65.541C96 65.3013 93.4949 63.084 90.3965 60.6269L84.8589 56.1323L84.793 45.8845V35.6367L77.0799 26.5875C72.7949 21.6134 69.1691 17.5383 68.9713 17.5383C68.7735 17.4784 65.0818 20.9542 60.7308 25.2091ZM70.949 26.2279C71.8719 28.4453 71.7401 29.7637 70.4216 31.2619C68.9713 32.9399 66.8617 32.5204 65.8069 30.3031C64.6203 28.0857 64.884 25.9882 66.3343 24.6698C67.455 23.651 67.9165 23.5911 69.0372 24.0705C69.7624 24.4301 70.6194 25.3889 70.949 26.2279ZM48.5349 43.1877V47.2628L46.0958 47.6823C44.7114 47.8621 42.7996 48.0419 41.8107 48.0419C39.9649 48.0419 39.9649 48.0419 39.9649 43.9068C39.9649 39.2324 39.8989 39.2924 45.7661 39.1126L48.5349 39.0526V43.1877ZM63.6315 39.4122L65.6751 39.7718V43.9068V48.0419H63.5655C62.3789 48.0419 60.2694 47.8621 58.9509 47.6823L56.4458 47.2628V43.1877V39.0526H59.0168C60.4012 39.0526 62.5108 39.2324 63.6315 39.4122ZM36.0094 44.4462V48.6412H32.054H28.0986V44.8058C28.0986 40.5508 28.0986 40.4909 33.5703 40.3111L36.0094 40.2512V44.4462ZM76.4866 40.6108L79.5191 41.0303V44.8657V48.7011L75.4318 48.5213L71.2786 48.3416L71.0808 44.2664C70.8831 39.7718 70.6194 39.8916 76.4866 40.6108ZM49.0623 58.1099L49.2601 62.4248H44.5795H39.9649V58.2897V54.0947L43.4588 53.855C49.1283 53.4954 48.8646 53.2557 49.0623 58.1099ZM66.2025 57.7503L66.4003 61.8255H61.3901H56.4458V57.6305V53.3756L61.2582 53.5553L66.0047 53.7351L66.2025 57.7503ZM36.5368 58.3496L36.7346 62.4248H32.3836H28.0986V58.5893C28.0986 54.8138 28.1645 54.694 29.9445 54.4543C30.9333 54.3344 32.7792 54.2146 34.0317 54.2745L36.3391 54.3344L36.5368 58.3496ZM80.1783 58.2298V62.4248H75.8933H71.6082V58.2298V54.0348H75.8933H80.1783V58.2298ZM36.6687 71.6537C36.6687 73.7512 36.5368 75.5491 36.405 75.669C36.2731 75.7888 34.2954 75.7888 32.1199 75.7289L28.0986 75.4892V71.7736C28.0986 69.6761 28.2304 67.8783 28.3623 67.7584C28.4941 67.6385 30.4718 67.6385 32.6473 67.6985L36.6687 67.9382V71.6537ZM66.3343 71.7137V76.2083H61.7197H57.105V72.0732V67.8783L59.6101 67.6385C60.9286 67.5187 63.0382 67.3988 64.2248 67.3389L66.3343 67.219V71.7137ZM49.1942 72.0133V76.2083H44.5795H39.9649V72.0133V67.8183H44.5795H49.1942V72.0133Z" fill="#01354A" fill-opacity="0.8"/>
</svg>
