<svg  viewBox="0 0 110 100" fill="none" xmlns="http://www.w3.org/2000/svg">
<path d="M51.1708 11.9512C45.181 13.71 40.1778 15.2735 40.1073 15.2735C39.9664 15.2735 39.8959 16.3483 39.8959 17.7163C39.8959 19.2797 40.3187 20.1591 40.9529 20.1591C41.7281 20.1591 42.0099 21.3317 42.0099 25.0448C42.0099 30.7122 42.7851 30.419 32.1444 28.8556C25.7318 27.9762 23.6882 28.0739 16.9937 29.6373C10.863 31.103 9.17178 31.787 9.03085 33.155C8.88991 34.1321 9.24225 34.8161 9.87646 34.8161C10.863 34.8161 11.004 37.8452 11.004 60.6124V86.4087L12.9771 86.995C21.2218 89.2424 26.5069 89.5355 34.3994 88.2653C41.7985 87.0927 43.7716 87.1904 52.7211 88.6561C66.251 91.0012 65.9691 91.0989 65.9691 82.1093C65.9691 75.8557 66.11 74.8785 67.2375 74.8785C67.8717 74.8785 69.1402 74.5854 70.0563 74.2923C71.5361 73.706 71.6066 73.9014 71.6066 81.1322C71.6066 88.363 71.677 88.5584 73.3683 88.5584C75.0595 88.5584 75.13 88.363 75.13 81.2299V73.9014H77.9487H80.7674V80.5459V87.1904L88.0256 85.9201C91.9719 85.2361 95.7771 84.7476 96.4818 84.6499C97.6093 84.6499 97.6798 82.7933 97.6798 59.6353C97.6798 41.9492 97.8912 34.9138 98.4549 35.4024C98.9482 35.7932 99.0891 35.207 98.9482 33.7413C98.7368 31.5916 98.1731 31.2984 91.3376 29.9304L83.9385 28.4647L83.7271 24.2631C83.5862 21.8202 83.7976 20.1591 84.2204 20.1591C84.6432 20.1591 84.9955 19.0843 84.9955 17.7163C84.9955 16.0552 84.5022 15.1758 83.4452 14.7849C81.5426 14.1986 65.5463 9.60609 63.5027 9.01981C62.7276 8.82439 57.1606 10.0947 51.1708 11.9512ZM60.8954 20.3545C60.6135 23.3837 57.5129 24.1654 57.5129 21.234C57.5129 19.5728 58.3586 18.7911 60.5431 18.3026C60.8954 18.3026 61.0363 19.182 60.8954 20.3545ZM68.0832 20.7454C68.0832 22.6997 67.8013 23.1882 66.9557 22.6997C66.3214 22.4065 65.5463 22.1134 65.194 22.1134C64.8416 22.1134 64.5597 21.234 64.5597 20.1591C64.5597 18.6934 65.053 18.2049 66.3215 18.2049C67.7308 18.2049 68.0832 18.6934 68.0832 20.7454ZM55.8217 22.602C55.3284 24.5562 52.5802 24.4585 52.5802 22.602C52.5802 21.7225 53.2848 20.7454 54.2009 20.2568C55.8922 19.3774 56.5264 20.2568 55.8217 22.602ZM72.875 22.0157C73.0864 23.8722 72.875 24.1654 71.9589 23.6768C71.3247 23.3837 70.4791 23.0905 70.1267 23.0905C69.7744 23.0905 69.4925 22.2111 69.4925 21.0385C69.4925 18.0094 72.5931 18.8888 72.875 22.0157ZM77.1031 22.9928C77.3145 24.8494 77.1031 25.1425 76.187 24.6539C75.5528 24.3608 74.8481 24.0676 74.7072 24.0676C74.5662 24.0676 74.4253 23.1882 74.4253 22.0157C74.4253 19.182 76.8212 19.9637 77.1031 22.9928ZM51.1708 23.0905C51.1708 24.3608 50.6775 25.0448 49.7614 25.0448C48.8454 25.0448 48.3521 24.3608 48.3521 23.0905C48.3521 21.8202 48.8454 21.1363 49.7614 21.1363C50.6775 21.1363 51.1708 21.8202 51.1708 23.0905ZM82.0359 23.8722C81.8949 24.6539 81.5426 25.5333 81.1198 25.7288C79.9218 26.2173 78.442 24.3608 78.8648 22.7974C79.4285 20.8431 82.3177 21.8202 82.0359 23.8722ZM46.8018 23.7745C46.4494 26.3151 44.124 26.6082 44.124 24.1654C44.124 22.6997 44.5468 22.1134 45.6038 22.1134C46.5904 22.1134 46.9427 22.602 46.8018 23.7745ZM61.0363 26.9991C61.0363 28.4647 60.5431 28.9533 59.2746 28.9533C57.5834 28.9533 56.8787 27.1945 58.0062 25.7288C59.0632 24.2631 61.0363 25.0448 61.0363 26.9991ZM68.0832 26.9991C68.0832 28.4647 67.5899 28.9533 66.3215 28.9533C65.053 28.9533 64.5597 28.4647 64.5597 26.9991C64.5597 25.5333 65.053 25.0448 66.3215 25.0448C67.5899 25.0448 68.0832 25.5333 68.0832 26.9991ZM56.1036 27.9762C56.1036 29.4419 55.6103 29.9304 54.3419 29.9304C52.6506 29.9304 51.9459 28.1716 53.0734 26.7059C54.1305 25.2402 56.1036 26.0219 56.1036 27.9762ZM73.0159 27.9762C73.0159 29.4419 72.5226 29.9304 71.2542 29.9304C69.9858 29.9304 69.4925 29.4419 69.4925 27.9762C69.4925 26.5105 69.9858 26.0219 71.2542 26.0219C72.5226 26.0219 73.0159 26.5105 73.0159 27.9762ZM51.1708 28.9533C51.1708 30.2236 50.6775 30.9076 49.7614 30.9076C48.8454 30.9076 48.3521 30.2236 48.3521 28.9533C48.3521 27.683 48.8454 26.9991 49.7614 26.9991C50.6775 26.9991 51.1708 27.683 51.1708 28.9533ZM77.244 28.9533C77.244 30.2236 76.7507 30.9076 75.8346 30.9076C74.9186 30.9076 74.4253 30.2236 74.4253 28.9533C74.4253 27.683 74.9186 26.9991 75.8346 26.9991C76.7507 26.9991 77.244 27.683 77.244 28.9533ZM46.9427 29.9304C46.9427 31.2007 46.4494 31.8847 45.5333 31.8847C44.6173 31.8847 44.124 31.2007 44.124 29.9304C44.124 28.6602 44.6173 27.9762 45.5333 27.9762C46.4494 27.9762 46.9427 28.6602 46.9427 29.9304ZM81.4721 30.0282C81.4721 31.3961 81.1198 31.8847 80.2741 31.6893C78.442 31.2007 78.2306 27.9762 79.9923 27.9762C81.0493 27.9762 81.4721 28.5625 81.4721 30.0282ZM61.0363 33.839C61.0363 35.3047 60.5431 35.7932 59.2746 35.7932C57.5834 35.7932 56.8787 34.0344 58.0062 32.5687C59.0632 31.103 61.0363 31.8847 61.0363 33.839ZM68.0832 33.839C68.0832 35.3047 67.5899 35.7932 66.3215 35.7932C65.053 35.7932 64.5597 35.3047 64.5597 33.839C64.5597 32.3733 65.053 31.8847 66.3215 31.8847C67.5899 31.8847 68.0832 32.3733 68.0832 33.839ZM21.0104 35.9887C19.9534 37.4544 19.1783 36.3795 19.742 34.2298C20.0943 32.9596 20.3762 32.7641 21.0104 33.6435C21.6446 34.523 21.6446 35.1092 21.0104 35.9887ZM24.3929 34.3275C24.3929 35.1092 23.8996 35.7932 23.3359 35.7932C22.7721 35.7932 22.2789 35.1092 22.2789 34.3275C22.2789 33.5458 22.7721 32.8618 23.3359 32.8618C23.8996 32.8618 24.3929 33.5458 24.3929 34.3275ZM29.3257 34.3275C29.3257 35.1092 28.8324 35.7932 28.2687 35.7932C27.7049 35.7932 27.2116 35.1092 27.2116 34.3275C27.2116 33.5458 27.7049 32.8618 28.2687 32.8618C28.8324 32.8618 29.3257 33.5458 29.3257 34.3275ZM33.5538 34.3275C33.5538 35.1092 32.9195 35.7932 32.1444 35.7932C31.3692 35.7932 30.735 35.1092 30.735 34.3275C30.735 33.5458 31.3692 32.8618 32.1444 32.8618C32.9195 32.8618 33.5538 33.5458 33.5538 34.3275ZM50.3252 36.8681C48.9158 38.1384 48.3521 37.9429 48.3521 35.8909C48.3521 33.6435 50.6775 32.6664 51.0299 34.7184C51.1708 35.4024 50.8889 36.3795 50.3252 36.8681ZM56.1036 34.8161C56.1036 36.2818 55.6103 36.7704 54.3419 36.7704C53.0734 36.7704 52.5802 36.2818 52.5802 34.8161C52.5802 33.3504 53.0734 32.8618 54.3419 32.8618C55.6103 32.8618 56.1036 33.3504 56.1036 34.8161ZM73.0159 34.9138C73.0159 36.3795 72.6636 36.8681 71.4656 36.5749C69.0697 36.0864 68.8583 32.8618 71.1838 32.8618C72.5931 32.8618 73.0159 33.3504 73.0159 34.9138ZM77.244 35.8909C77.244 37.0635 76.7507 37.7475 75.8346 37.7475C74.8481 37.7475 74.4253 37.0635 74.4253 35.4024C74.4253 33.5458 74.7072 33.155 75.8346 33.5458C76.6098 33.839 77.244 34.9138 77.244 35.8909ZM18.0508 35.3047C18.0508 36.0864 17.7689 36.7704 17.3461 36.7704C16.9937 36.7704 16.6414 36.0864 16.6414 35.3047C16.6414 34.523 16.9937 33.839 17.3461 33.839C17.7689 33.839 18.0508 34.523 18.0508 35.3047ZM37.7819 35.3047C37.7819 36.0864 37.1476 36.7704 36.3725 36.7704C35.5973 36.7704 34.9631 36.0864 34.9631 35.3047C34.9631 34.523 35.5973 33.839 36.3725 33.839C37.1476 33.839 37.7819 34.523 37.7819 35.3047ZM41.3053 36.4772C41.3053 38.4315 39.614 37.5521 39.3321 35.5001C39.1912 34.3275 39.4026 34.0344 40.1778 34.4253C40.812 34.7184 41.3053 35.6955 41.3053 36.4772ZM46.9427 36.3795C46.9427 37.1612 46.238 37.7475 45.181 37.7475C43.1374 37.7475 42.7146 35.207 44.6877 34.523C46.238 34.0344 46.9427 34.6207 46.9427 36.3795ZM82.0359 36.6727C81.8949 37.6498 81.2607 38.1384 80.4151 37.9429C78.5829 37.4544 78.3715 37.1612 78.8648 35.4024C79.4285 33.4481 82.3177 34.523 82.0359 36.6727ZM15.232 36.2818C15.232 37.0635 14.7388 37.7475 14.175 37.7475C13.6113 37.7475 13.118 37.0635 13.118 36.2818C13.118 35.5001 13.6113 34.8161 14.175 34.8161C14.7388 34.8161 15.232 35.5001 15.232 36.2818ZM87.3914 35.4024C89.0122 36.2818 88.8008 38.7246 87.1096 38.7246C86.1935 38.7246 85.7002 38.0406 85.7002 36.7704C85.7002 34.6207 85.7707 34.523 87.3914 35.4024ZM92.0423 37.7475C92.0423 38.8224 91.549 39.7018 90.9853 39.7018C90.4216 39.7018 89.9283 38.8224 89.9283 37.7475C89.9283 36.6727 90.4216 35.7932 90.9853 35.7932C91.549 35.7932 92.0423 36.6727 92.0423 37.7475ZM95.5657 38.8223C95.5657 41.1675 93.945 40.8743 93.5926 38.4315C93.4517 37.4544 93.804 36.7704 94.4382 36.7704C95.1429 36.7704 95.5657 37.6498 95.5657 38.8223ZM24.3929 39.2132C24.3929 39.9949 23.8996 40.6789 23.3359 40.6789C22.7721 40.6789 22.2789 39.9949 22.2789 39.2132C22.2789 38.4315 22.7721 37.7475 23.3359 37.7475C23.8996 37.7475 24.3929 38.4315 24.3929 39.2132ZM29.3257 39.2132C29.3257 39.9949 28.8324 40.6789 28.2687 40.6789C27.7049 40.6789 27.2116 39.9949 27.2116 39.2132C27.2116 38.4315 27.7049 37.7475 28.2687 37.7475C28.8324 37.7475 29.3257 38.4315 29.3257 39.2132ZM33.5538 39.2132C33.5538 39.9949 32.9195 40.6789 32.1444 40.6789C31.3692 40.6789 30.735 39.9949 30.735 39.2132C30.735 38.4315 31.3692 37.7475 32.1444 37.7475C32.9195 37.7475 33.5538 38.4315 33.5538 39.2132ZM18.0508 40.1903C18.0508 40.972 17.7689 41.656 17.3461 41.656C16.9937 41.656 16.6414 40.972 16.6414 40.1903C16.6414 39.4086 16.9937 38.7246 17.3461 38.7246C17.7689 38.7246 18.0508 39.4086 18.0508 40.1903ZM21.4332 39.8972C21.0104 41.656 19.4601 41.9492 19.4601 40.288C19.4601 39.4086 19.9534 38.7246 20.5876 38.7246C21.2218 38.7246 21.5742 39.2132 21.4332 39.8972ZM37.7819 40.1903C37.7819 40.972 37.1476 41.656 36.3725 41.656C35.5973 41.656 34.9631 40.972 34.9631 40.1903C34.9631 39.4086 35.5973 38.7246 36.3725 38.7246C37.1476 38.7246 37.7819 39.4086 37.7819 40.1903ZM40.9529 40.4835C40.9529 42.2423 39.5436 41.9492 39.3321 40.0926C39.1207 39.1155 39.4026 38.6269 40.0368 38.9201C40.5301 39.2132 40.9529 39.8972 40.9529 40.4835ZM56.1036 41.2652C56.1036 43.3172 55.8217 43.708 54.5533 43.4149C52.3688 43.024 52.0164 39.9949 54.1305 39.4086C55.0465 39.2132 55.8217 38.9201 55.9626 38.8223C56.0331 38.8223 56.1036 39.8972 56.1036 41.2652ZM61.0363 40.6789C61.0363 42.1446 60.5431 42.6332 59.2746 42.6332C57.5834 42.6332 56.8787 40.8743 58.0062 39.4086C59.0632 37.9429 61.0363 38.7246 61.0363 40.6789ZM68.0832 40.6789C68.0832 42.1446 67.5899 42.6332 66.3215 42.6332C65.053 42.6332 64.5597 42.1446 64.5597 40.6789C64.5597 39.2132 65.053 38.7246 66.3215 38.7246C67.5899 38.7246 68.0832 39.2132 68.0832 40.6789ZM15.232 41.1675C15.232 41.9492 14.7388 42.6332 14.175 42.6332C13.6113 42.6332 13.118 41.9492 13.118 41.1675C13.118 40.3858 13.6113 39.7018 14.175 39.7018C14.7388 39.7018 15.232 40.3858 15.232 41.1675ZM51.1708 41.656C51.1708 42.9263 50.6775 43.6103 49.7614 43.6103C48.8454 43.6103 48.3521 42.9263 48.3521 41.656C48.3521 40.3858 48.8454 39.7018 49.7614 39.7018C50.6775 39.7018 51.1708 40.3858 51.1708 41.656ZM73.0159 41.7537C73.0159 43.2194 72.6636 43.708 71.4656 43.4149C69.0697 42.9263 68.8583 39.7018 71.1838 39.7018C72.5931 39.7018 73.0159 40.1903 73.0159 41.7537ZM77.244 41.656C77.244 42.9263 76.7507 43.6103 75.8346 43.6103C74.9186 43.6103 74.4253 42.9263 74.4253 41.656C74.4253 40.3858 74.9186 39.7018 75.8346 39.7018C76.7507 39.7018 77.244 40.3858 77.244 41.656ZM46.8018 42.34C46.6608 43.3172 45.9562 44.0989 45.181 44.0989C44.4059 44.0989 43.7012 43.3172 43.5602 42.34C43.3488 41.0698 43.7716 40.6789 45.181 40.6789C46.5904 40.6789 47.0132 41.0698 46.8018 42.34ZM81.4721 42.7309C81.4721 44.0989 81.1198 44.5874 80.2741 44.392C78.442 43.9034 78.2306 40.6789 79.9923 40.6789C81.0493 40.6789 81.4721 41.2652 81.4721 42.7309ZM88.5189 43.1217C88.5189 43.9034 87.8847 44.5874 87.1096 44.5874C86.3344 44.5874 85.7002 43.9034 85.7002 43.1217C85.7002 42.34 86.3344 41.656 87.1096 41.656C87.8847 41.656 88.5189 42.34 88.5189 43.1217ZM92.0423 43.6103C92.0423 44.6851 91.549 45.5646 90.9853 45.5646C90.4216 45.5646 89.9283 44.6851 89.9283 43.6103C89.9283 42.5355 90.4216 41.656 90.9853 41.656C91.549 41.656 92.0423 42.5355 92.0423 43.6103ZM29.3257 44.5874C29.3257 45.6623 28.8324 46.5417 28.2687 46.5417C27.7049 46.5417 27.2116 45.6623 27.2116 44.5874C27.2116 43.5126 27.7049 42.6332 28.2687 42.6332C28.8324 42.6332 29.3257 43.5126 29.3257 44.5874ZM95.5657 44.0989C95.5657 44.8806 95.0725 45.5646 94.5087 45.5646C93.945 45.5646 93.4517 44.8806 93.4517 44.0989C93.4517 43.3172 93.945 42.6332 94.5087 42.6332C95.0725 42.6332 95.5657 43.3172 95.5657 44.0989ZM18.0508 45.076C18.0508 45.8577 17.5575 46.5417 16.9937 46.5417C15.8663 46.5417 15.5844 45.3691 16.43 44.2943C17.2052 43.1217 18.0508 43.5126 18.0508 45.076ZM21.5742 45.076C21.5742 45.8577 21.0809 46.5417 20.5172 46.5417C19.9534 46.5417 19.4601 45.8577 19.4601 45.076C19.4601 44.2943 19.9534 43.6103 20.5172 43.6103C21.0809 43.6103 21.5742 44.2943 21.5742 45.076ZM24.3929 45.076C24.3929 45.8577 23.8996 46.5417 23.3359 46.5417C22.7721 46.5417 22.2789 45.8577 22.2789 45.076C22.2789 44.2943 22.7721 43.6103 23.3359 43.6103C23.8996 43.6103 24.3929 44.2943 24.3929 45.076ZM33.5538 45.076C33.5538 45.8577 32.9195 46.5417 32.1444 46.5417C31.3692 46.5417 30.735 45.8577 30.735 45.076C30.735 44.2943 31.3692 43.6103 32.1444 43.6103C32.9195 43.6103 33.5538 44.2943 33.5538 45.076ZM37.6409 45.2714C37.7819 46.0531 37.2886 46.5417 36.443 46.5417C35.5973 46.5417 34.9631 45.9554 34.9631 44.9783C34.9631 43.2194 37.1476 43.5126 37.6409 45.2714ZM15.232 46.0531C15.232 46.8348 14.7388 47.5188 14.175 47.5188C13.6113 47.5188 13.118 46.8348 13.118 46.0531C13.118 45.2714 13.6113 44.5874 14.175 44.5874C14.7388 44.5874 15.232 45.2714 15.232 46.0531ZM41.3053 46.0531C41.3053 46.8348 40.812 47.5188 40.2482 47.5188C39.6845 47.5188 39.1912 46.8348 39.1912 46.0531C39.1912 45.2714 39.6845 44.5874 40.2482 44.5874C40.812 44.5874 41.3053 45.2714 41.3053 46.0531ZM61.0363 47.5188C61.0363 48.9845 60.5431 49.4731 59.2746 49.4731C57.5834 49.4731 56.8787 47.7143 58.0062 46.2486C59.0632 44.7829 61.0363 45.5646 61.0363 47.5188ZM68.0832 47.5188C68.0832 48.9845 67.5899 49.4731 66.3215 49.4731C65.053 49.4731 64.5597 48.9845 64.5597 47.5188C64.5597 46.0531 65.053 45.5646 66.3215 45.5646C67.5899 45.5646 68.0832 46.0531 68.0832 47.5188ZM71.8884 46.1508C73.5092 47.0303 73.2978 50.4502 71.677 50.4502C70.0563 50.4502 69.2106 48.9845 69.7744 47.0303C70.1972 45.3691 70.3381 45.3691 71.8884 46.1508ZM46.9427 49.0822C46.9427 49.8639 46.238 50.4502 45.181 50.4502C43.1374 50.4502 42.7146 47.9097 44.6877 47.2257C46.238 46.7371 46.9427 47.3234 46.9427 49.0822ZM51.1708 48.496C51.1708 49.7662 50.6775 50.4502 49.7614 50.4502C48.8454 50.4502 48.3521 49.7662 48.3521 48.496C48.3521 47.2257 48.8454 46.5417 49.7614 46.5417C50.6775 46.5417 51.1708 47.2257 51.1708 48.496ZM56.1036 48.5937C56.1036 50.0594 55.7512 50.5479 54.5533 50.2548C52.1574 49.7662 51.9459 46.5417 54.2714 46.5417C55.6808 46.5417 56.1036 47.0303 56.1036 48.5937ZM77.244 48.496C77.244 49.7662 76.7507 50.4502 75.8346 50.4502C74.9186 50.4502 74.4253 49.7662 74.4253 48.496C74.4253 47.2257 74.9186 46.5417 75.8346 46.5417C76.7507 46.5417 77.244 47.2257 77.244 48.496ZM81.4721 48.496C81.4721 49.7662 80.9788 50.4502 80.0627 50.4502C78.7238 50.4502 78.1601 48.496 79.1467 47.2257C80.0627 45.8577 81.4721 46.6394 81.4721 48.496ZM88.5189 49.4731C88.5189 50.7434 88.0256 51.4274 87.1096 51.4274C86.1935 51.4274 85.7002 50.7434 85.7002 49.4731C85.7002 48.2028 86.1935 47.5188 87.1096 47.5188C88.0256 47.5188 88.5189 48.2028 88.5189 49.4731ZM92.0423 49.4731C92.0423 50.5479 91.549 51.4274 90.9853 51.4274C90.4216 51.4274 89.9283 50.5479 89.9283 49.4731C89.9283 48.3982 90.4216 47.5188 90.9853 47.5188C91.549 47.5188 92.0423 48.3982 92.0423 49.4731ZM21.2218 50.4502C21.2218 51.1342 20.799 51.9159 20.3762 52.1114C19.8125 52.4045 19.4601 51.7205 19.4601 50.4502C19.4601 49.18 19.8125 48.496 20.3762 48.6914C20.799 48.9845 21.2218 49.7662 21.2218 50.4502ZM24.3929 49.9617C24.3929 50.7434 23.8996 51.4274 23.3359 51.4274C22.7721 51.4274 22.2789 50.7434 22.2789 49.9617C22.2789 49.18 22.7721 48.496 23.3359 48.496C23.8996 48.496 24.3929 49.18 24.3929 49.9617ZM29.3257 49.9617C29.3257 50.7434 28.8324 51.4274 28.2687 51.4274C27.7049 51.4274 27.2116 50.7434 27.2116 49.9617C27.2116 49.18 27.7049 48.496 28.2687 48.496C28.8324 48.496 29.3257 49.18 29.3257 49.9617ZM33.5538 49.9617C33.5538 50.7434 32.9195 51.4274 32.1444 51.4274C31.3692 51.4274 30.735 50.7434 30.735 49.9617C30.735 49.18 31.3692 48.496 32.1444 48.496C32.9195 48.496 33.5538 49.18 33.5538 49.9617ZM95.5657 49.9617C95.5657 50.7434 95.0725 51.4274 94.5087 51.4274C93.945 51.4274 93.4517 50.7434 93.4517 49.9617C93.4517 49.18 93.945 48.496 94.5087 48.496C95.0725 48.496 95.5657 49.18 95.5657 49.9617ZM15.232 50.9388C15.232 51.7205 14.7388 52.4045 14.175 52.4045C13.6113 52.4045 13.118 51.7205 13.118 50.9388C13.118 50.1571 13.6113 49.4731 14.175 49.4731C14.7388 49.4731 15.232 50.1571 15.232 50.9388ZM18.0508 51.0365C18.0508 52.6976 16.5005 52.4045 16.0777 50.6457C15.9367 49.9617 16.2891 49.4731 16.9233 49.4731C17.5575 49.4731 18.0508 50.1571 18.0508 51.0365ZM37.6409 50.6457C37.1476 52.5022 34.9631 52.7953 34.9631 51.0365C34.9631 50.0594 35.5973 49.4731 36.443 49.4731C37.2886 49.4731 37.7819 49.9617 37.6409 50.6457ZM41.3053 51.0365C41.3053 51.9159 40.812 52.4045 40.1073 52.2091C38.3456 51.7205 38.1342 49.4731 39.8254 49.4731C40.671 49.4731 41.3053 50.0594 41.3053 51.0365ZM51.1708 54.3588C51.1708 55.629 50.6775 56.313 49.7614 56.313C47.9997 56.313 47.8588 53.6748 49.6205 53.0885C50.2547 52.7953 50.8889 52.5999 51.0299 52.5022C51.1003 52.5022 51.1708 53.2839 51.1708 54.3588ZM56.1036 54.3588C56.1036 55.8245 55.6103 56.313 54.3419 56.313C52.6506 56.313 51.9459 54.5542 53.0734 53.0885C54.1305 51.6228 56.1036 52.4045 56.1036 54.3588ZM61.0363 54.3588C61.0363 55.8245 60.5431 56.313 59.2746 56.313C57.5834 56.313 56.8787 54.5542 58.0062 53.0885C59.0632 51.6228 61.0363 52.4045 61.0363 54.3588ZM68.0832 54.3588C68.0832 55.8245 67.5899 56.313 66.3215 56.313C65.053 56.313 64.5597 55.8245 64.5597 54.3588C64.5597 52.8931 65.053 52.4045 66.3215 52.4045C67.5899 52.4045 68.0832 52.8931 68.0832 54.3588ZM73.0159 54.3588C73.0159 55.8245 72.5226 56.313 71.2542 56.313C69.9858 56.313 69.4925 55.8245 69.4925 54.3588C69.4925 52.8931 69.9858 52.4045 71.2542 52.4045C72.5226 52.4045 73.0159 52.8931 73.0159 54.3588ZM77.244 54.3588C77.244 55.629 76.7507 56.313 75.8346 56.313C74.9186 56.313 74.4253 55.629 74.4253 54.3588C74.4253 53.0885 74.9186 52.4045 75.8346 52.4045C76.7507 52.4045 77.244 53.0885 77.244 54.3588ZM29.3257 54.8473C29.3257 55.629 28.8324 56.313 28.2687 56.313C27.7049 56.313 27.2116 55.629 27.2116 54.8473C27.2116 54.0656 27.7049 53.3816 28.2687 53.3816C28.8324 53.3816 29.3257 54.0656 29.3257 54.8473ZM33.5538 54.8473C33.5538 55.629 32.9195 56.313 32.1444 56.313C30.735 56.313 30.3122 55.2382 31.2283 54.0656C32.0739 52.7953 33.5538 53.3816 33.5538 54.8473ZM46.8018 55.0427C46.6608 56.0199 45.9562 56.8016 45.181 56.8016C44.4059 56.8016 43.7012 56.0199 43.5602 55.0427C43.3488 53.7725 43.7716 53.3816 45.181 53.3816C46.5904 53.3816 47.0132 53.7725 46.8018 55.0427ZM81.4721 55.4336C81.4721 57.8764 79.1467 57.5833 78.7943 55.0427C78.6534 53.8702 79.0057 53.3816 79.9923 53.3816C81.0493 53.3816 81.4721 53.9679 81.4721 55.4336ZM88.378 55.0427C88.0256 57.5833 85.7002 57.8764 85.7002 55.4336C85.7002 53.9679 86.123 53.3816 87.18 53.3816C88.1666 53.3816 88.5189 53.8702 88.378 55.0427ZM92.0423 55.3359C92.0423 56.4107 91.549 57.2902 90.9853 57.2902C90.4216 57.2902 89.9283 56.4107 89.9283 55.3359C89.9283 54.261 90.4216 53.3816 90.9853 53.3816C91.549 53.3816 92.0423 54.261 92.0423 55.3359ZM95.4248 55.629C95.5657 56.6062 95.2134 57.2902 94.5792 57.2902C93.8745 57.2902 93.4517 56.4107 93.4517 55.2382C93.4517 52.8931 95.0725 53.1862 95.4248 55.629ZM15.232 55.8245C15.232 56.6062 14.7388 57.2902 14.175 57.2902C13.0475 57.2902 12.7657 56.1176 13.6113 55.0427C14.3864 53.8702 15.232 54.261 15.232 55.8245ZM18.0508 55.8245C18.0508 56.6062 17.5575 57.2902 16.9937 57.2902C15.8663 57.2902 15.5844 56.1176 16.43 55.0427C17.2052 53.8702 18.0508 54.261 18.0508 55.8245ZM21.5742 55.8245C21.5742 56.6062 21.0809 57.2902 20.5172 57.2902C19.9534 57.2902 19.4601 56.6062 19.4601 55.8245C19.4601 55.0427 19.9534 54.3588 20.5172 54.3588C21.0809 54.3588 21.5742 55.0427 21.5742 55.8245ZM24.3929 55.8245C24.3929 56.6062 23.8996 57.2902 23.3359 57.2902C22.7721 57.2902 22.2789 56.6062 22.2789 55.8245C22.2789 55.0427 22.7721 54.3588 23.3359 54.3588C23.8996 54.3588 24.3929 55.0427 24.3929 55.8245ZM37.6409 55.5313C37.1476 57.3879 34.9631 57.681 34.9631 55.9222C34.9631 54.945 35.5973 54.3588 36.443 54.3588C37.2886 54.3588 37.7819 54.8473 37.6409 55.5313ZM41.3053 55.9222C41.3053 56.8016 40.812 57.2902 40.1073 57.0947C38.3456 56.6062 38.1342 54.3588 39.8254 54.3588C40.671 54.3588 41.3053 54.945 41.3053 55.9222ZM15.232 60.7101C15.232 61.4918 14.7388 62.1758 14.175 62.1758C13.0475 62.1758 12.7657 61.0033 13.6113 59.9284C14.3864 58.7559 15.232 59.1467 15.232 60.7101ZM18.0508 60.7101C18.0508 61.4918 17.5575 62.1758 16.9937 62.1758C15.8663 62.1758 15.5844 61.0033 16.43 59.9284C17.2052 58.7559 18.0508 59.1467 18.0508 60.7101ZM21.4332 61.0033C21.5742 61.6872 21.2218 62.1758 20.5876 62.1758C19.9534 62.1758 19.4601 61.4918 19.4601 60.6124C19.4601 58.9513 21.0104 59.2444 21.4332 61.0033ZM24.3929 61.2964C24.3929 63.6415 22.7721 63.3484 22.4198 60.9055C22.2789 59.9284 22.6312 59.2444 23.2654 59.2444C23.9701 59.2444 24.3929 60.1238 24.3929 61.2964ZM29.3257 60.7101C29.3257 61.4918 28.8324 62.1758 28.2687 62.1758C27.7049 62.1758 27.2116 61.4918 27.2116 60.7101C27.2116 59.9284 27.7049 59.2444 28.2687 59.2444C28.8324 59.2444 29.3257 59.9284 29.3257 60.7101ZM33.5538 60.7101C33.5538 61.4918 32.9195 62.1758 32.1444 62.1758C31.3692 62.1758 30.735 61.4918 30.735 60.7101C30.735 59.9284 31.3692 59.2444 32.1444 59.2444C32.9195 59.2444 33.5538 59.9284 33.5538 60.7101ZM37.7819 60.7101C37.7819 61.4918 37.1476 62.1758 36.3725 62.1758C35.5973 62.1758 34.9631 61.4918 34.9631 60.7101C34.9631 59.9284 35.5973 59.2444 36.3725 59.2444C37.1476 59.2444 37.7819 59.9284 37.7819 60.7101ZM41.3053 60.7101C41.3053 61.4918 40.671 62.1758 39.8959 62.1758C38.4865 62.1758 38.0637 61.101 38.9798 59.9284C39.8254 58.6581 41.3053 59.2444 41.3053 60.7101ZM46.8018 61.4918C47.0132 62.6644 46.5904 63.1529 45.2515 63.1529C43.4898 63.1529 42.7851 61.3941 43.9126 59.8307C44.7582 58.6581 46.5904 59.6353 46.8018 61.4918ZM51.1708 61.1987C51.1708 62.469 50.6775 63.1529 49.7614 63.1529C48.8454 63.1529 48.3521 62.469 48.3521 61.1987C48.3521 59.9284 48.8454 59.2444 49.7614 59.2444C50.6775 59.2444 51.1708 59.9284 51.1708 61.1987ZM56.1036 61.1987C56.1036 62.6644 55.6103 63.1529 54.3419 63.1529C53.0734 63.1529 52.5802 62.6644 52.5802 61.1987C52.5802 59.733 53.0734 59.2444 54.3419 59.2444C55.6103 59.2444 56.1036 59.733 56.1036 61.1987ZM61.0363 61.1987C61.0363 62.6644 60.5431 63.1529 59.2746 63.1529C58.0062 63.1529 57.5129 62.6644 57.5129 61.1987C57.5129 59.733 58.0062 59.2444 59.2746 59.2444C60.5431 59.2444 61.0363 59.733 61.0363 61.1987ZM68.0832 61.1987C68.0832 62.6644 67.5899 63.1529 66.3215 63.1529C65.053 63.1529 64.5597 62.6644 64.5597 61.1987C64.5597 59.733 65.053 59.2444 66.3215 59.2444C67.5899 59.2444 68.0832 59.733 68.0832 61.1987ZM73.0159 61.1987C73.0159 62.6644 72.5226 63.1529 71.2542 63.1529C69.9858 63.1529 69.4925 62.6644 69.4925 61.1987C69.4925 59.733 69.9858 59.2444 71.2542 59.2444C72.5226 59.2444 73.0159 59.733 73.0159 61.1987ZM77.244 61.1987C77.244 62.469 76.7507 63.1529 75.8346 63.1529C74.9186 63.1529 74.4253 62.469 74.4253 61.1987C74.4253 59.9284 74.9186 59.2444 75.8346 59.2444C76.7507 59.2444 77.244 59.9284 77.244 61.1987ZM81.4721 61.1987C81.4721 62.469 80.9788 63.1529 80.0627 63.1529C78.7238 63.1529 78.1601 61.1987 79.1467 59.9284C80.0627 58.5604 81.4721 59.3421 81.4721 61.1987ZM88.378 61.4918C88.5189 62.6644 88.1666 63.1529 87.18 63.1529C86.123 63.1529 85.7002 62.5667 85.7002 61.101C85.7002 58.6581 88.0256 58.9513 88.378 61.4918ZM92.0423 61.1987C92.0423 62.2735 91.549 63.1529 90.9853 63.1529C90.4216 63.1529 89.9283 62.2735 89.9283 61.1987C89.9283 60.1238 90.4216 59.2444 90.9853 59.2444C91.549 59.2444 92.0423 60.1238 92.0423 61.1987ZM95.5657 61.1987C95.5657 62.2735 95.0725 63.1529 94.5087 63.1529C93.945 63.1529 93.4517 62.2735 93.4517 61.1987C93.4517 60.1238 93.945 59.2444 94.5087 59.2444C95.0725 59.2444 95.5657 60.1238 95.5657 61.1987ZM15.232 66.6706C15.232 67.55 14.8797 68.0386 14.3864 67.8432C13.118 67.2569 12.9066 65.1072 14.1046 65.1072C14.7388 65.1072 15.232 65.7912 15.232 66.6706ZM18.0508 66.6706C18.0508 68.3318 16.5005 68.0386 16.0777 66.2798C15.9367 65.5958 16.2891 65.1072 16.9233 65.1072C17.5575 65.1072 18.0508 65.7912 18.0508 66.6706ZM21.5742 66.5729C21.5742 67.3546 21.0809 68.0386 20.5172 68.0386C19.9534 68.0386 19.4601 67.3546 19.4601 66.5729C19.4601 65.7912 19.9534 65.1072 20.5172 65.1072C21.0809 65.1072 21.5742 65.7912 21.5742 66.5729ZM24.3929 66.5729C24.3929 67.3546 23.8996 68.0386 23.3359 68.0386C22.7721 68.0386 22.2789 67.3546 22.2789 66.5729C22.2789 65.7912 22.7721 65.1072 23.3359 65.1072C23.8996 65.1072 24.3929 65.7912 24.3929 66.5729ZM29.3257 66.5729C29.3257 67.3546 28.8324 68.0386 28.2687 68.0386C27.7049 68.0386 27.2116 67.3546 27.2116 66.5729C27.2116 65.7912 27.7049 65.1072 28.2687 65.1072C28.8324 65.1072 29.3257 65.7912 29.3257 66.5729ZM33.5538 66.5729C33.5538 67.3546 32.9195 68.0386 32.1444 68.0386C31.3692 68.0386 30.735 67.3546 30.735 66.5729C30.735 65.7912 31.3692 65.1072 32.1444 65.1072C32.9195 65.1072 33.5538 65.7912 33.5538 66.5729ZM37.7819 66.5729C37.7819 67.3546 37.1476 68.0386 36.3725 68.0386C35.5973 68.0386 34.9631 67.3546 34.9631 66.5729C34.9631 65.7912 35.5973 65.1072 36.3725 65.1072C37.1476 65.1072 37.7819 65.7912 37.7819 66.5729ZM41.3053 66.5729C41.3053 67.3546 40.812 68.0386 40.2482 68.0386C39.6845 68.0386 39.1912 67.3546 39.1912 66.5729C39.1912 65.7912 39.6845 65.1072 40.2482 65.1072C40.812 65.1072 41.3053 65.7912 41.3053 66.5729ZM88.378 67.3546C88.5189 68.5272 88.1666 69.0157 87.18 69.0157C86.123 69.0157 85.7002 68.4295 85.7002 66.9638C85.7002 64.5209 88.0256 64.8141 88.378 67.3546ZM92.0423 67.0615C92.0423 68.3318 91.549 69.0157 90.633 69.0157C89.2941 69.0157 88.7303 67.0615 89.7169 65.7912C90.633 64.4232 92.0423 65.2049 92.0423 67.0615ZM95.5657 67.0615C95.5657 68.1363 95.0725 69.0157 94.5087 69.0157C93.945 69.0157 93.4517 68.1363 93.4517 67.0615C93.4517 65.9866 93.945 65.1072 94.5087 65.1072C95.0725 65.1072 95.5657 65.9866 95.5657 67.0615ZM46.8018 67.7455C46.6608 68.7226 45.9562 69.5043 45.181 69.5043C44.4059 69.5043 43.7012 68.7226 43.5602 67.7455C43.3488 66.4752 43.7716 66.0843 45.181 66.0843C46.5904 66.0843 47.0132 66.4752 46.8018 67.7455ZM51.1708 68.0386C51.1708 69.3089 50.6775 69.9929 49.7614 69.9929C48.8454 69.9929 48.3521 69.3089 48.3521 68.0386C48.3521 66.7683 48.8454 66.0843 49.7614 66.0843C50.6775 66.0843 51.1708 66.7683 51.1708 68.0386ZM56.1036 68.0386C56.1036 69.5043 55.6103 69.9929 54.3419 69.9929C53.0734 69.9929 52.5802 69.5043 52.5802 68.0386C52.5802 66.5729 53.0734 66.0843 54.3419 66.0843C55.6103 66.0843 56.1036 66.5729 56.1036 68.0386ZM61.0363 68.0386C61.0363 69.5043 60.5431 69.9929 59.2746 69.9929C58.0062 69.9929 57.5129 69.5043 57.5129 68.0386C57.5129 66.5729 58.0062 66.0843 59.2746 66.0843C60.5431 66.0843 61.0363 66.5729 61.0363 68.0386ZM68.0832 67.9409C68.0832 69.1135 67.4489 69.8952 66.3215 70.1883C64.8416 70.5792 64.5597 70.286 64.5597 68.4295C64.5597 66.5729 64.9121 66.0843 66.3215 66.0843C67.5899 66.0843 68.0832 66.5729 68.0832 67.9409ZM73.0159 68.0386C73.0159 69.5043 72.5226 69.9929 71.2542 69.9929C69.9858 69.9929 69.4925 69.5043 69.4925 68.0386C69.4925 66.5729 69.9858 66.0843 71.2542 66.0843C72.5226 66.0843 73.0159 66.5729 73.0159 68.0386ZM77.244 68.0386C77.244 69.3089 76.7507 69.9929 75.8346 69.9929C74.9186 69.9929 74.4253 69.3089 74.4253 68.0386C74.4253 66.7683 74.9186 66.0843 75.8346 66.0843C76.7507 66.0843 77.244 66.7683 77.244 68.0386ZM81.4721 68.0386C81.4721 69.3089 80.9788 69.9929 80.0627 69.9929C79.1467 69.9929 78.6534 69.3089 78.6534 68.0386C78.6534 66.7683 79.1467 66.0843 80.0627 66.0843C80.9788 66.0843 81.4721 66.7683 81.4721 68.0386ZM15.232 71.4586C15.232 72.2403 14.7388 72.9243 14.175 72.9243C13.6113 72.9243 13.118 72.2403 13.118 71.4586C13.118 70.6769 13.6113 69.9929 14.175 69.9929C14.7388 69.9929 15.232 70.6769 15.232 71.4586ZM18.0508 71.4586C18.0508 72.2403 17.5575 72.9243 16.9937 72.9243C16.43 72.9243 15.9367 72.2403 15.9367 71.4586C15.9367 70.6769 16.43 69.9929 16.9937 69.9929C17.5575 69.9929 18.0508 70.6769 18.0508 71.4586ZM21.4332 71.7517C21.5742 72.4357 21.2218 72.9243 20.5876 72.9243C19.9534 72.9243 19.4601 72.2403 19.4601 71.3609C19.4601 69.6997 21.0104 69.9929 21.4332 71.7517ZM24.252 72.2403C24.3929 73.2174 24.0406 73.9014 23.4063 73.9014C22.7017 73.9014 22.2789 73.022 22.2789 71.8494C22.2789 69.5043 23.8996 69.7974 24.252 72.2403ZM29.3257 71.9471C29.3257 73.022 28.8324 73.9014 28.2687 73.9014C27.7049 73.9014 27.2116 73.022 27.2116 71.9471C27.2116 70.8723 27.7049 69.9929 28.2687 69.9929C28.8324 69.9929 29.3257 70.8723 29.3257 71.9471ZM33.5538 71.4586C33.5538 72.2403 32.9195 72.9243 32.1444 72.9243C30.735 72.9243 30.3122 71.8494 31.2283 70.6769C32.0739 69.4066 33.5538 69.9929 33.5538 71.4586ZM37.7819 71.4586C37.7819 72.2403 37.1476 72.9243 36.3725 72.9243C35.5973 72.9243 34.9631 72.2403 34.9631 71.4586C34.9631 70.6769 35.5973 69.9929 36.3725 69.9929C37.1476 69.9929 37.7819 70.6769 37.7819 71.4586ZM41.3053 71.4586C41.3053 72.2403 40.812 72.9243 40.2482 72.9243C39.6845 72.9243 39.1912 72.2403 39.1912 71.4586C39.1912 70.6769 39.6845 69.9929 40.2482 69.9929C40.812 69.9929 41.3053 70.6769 41.3053 71.4586Z" fill="#01354A" fill-opacity="0.8"/>
</svg>
