<svg width="30" height="30" viewBox="0 0 30 30" fill="none" xmlns="http://www.w3.org/2000/svg">
<g clip-path="url(#clip0_2087_2078)">
<circle cx="15" cy="15" r="15" fill="#ABC8DE"/>
<path fill-rule="evenodd" clip-rule="evenodd" d="M12.1615 10.5405C12.1615 9.68031 12.5032 8.85538 13.1114 8.24715C13.7196 7.63892 14.5446 7.29723 15.4047 7.29723C16.2649 7.29723 17.0898 7.63892 17.698 8.24715C18.3063 8.85538 18.648 9.68031 18.648 10.5405C18.648 11.4006 18.3063 12.2256 17.698 12.8338C17.0898 13.442 16.2649 13.7837 15.4047 13.7837C14.5446 13.7837 13.7196 13.442 13.1114 12.8338C12.5032 12.2256 12.1615 11.4006 12.1615 10.5405ZM12.1615 15.4053C11.0863 15.4053 10.0551 15.8325 9.29483 16.5927C8.53454 17.353 8.10742 18.3842 8.10742 19.4594C8.10742 20.1045 8.3637 20.7232 8.81986 21.1794C9.27603 21.6355 9.89473 21.8918 10.5399 21.8918H20.2696C20.9147 21.8918 21.5334 21.6355 21.9896 21.1794C22.4457 20.7232 22.702 20.1045 22.702 19.4594C22.702 18.3842 22.2749 17.353 21.5146 16.5927C20.7543 15.8325 19.7232 15.4053 18.648 15.4053H12.1615Z" fill="#01354A"/>
</g>
<defs>
<clipPath id="clip0_2087_2078">
<rect width="30" height="30" fill="white"/>
</clipPath>
</defs>
</svg>
