<svg xmlns="http://www.w3.org/2000/svg" viewBox="0 0 167.642578125 222.0546875" fill="none"> <path opacity="0.3" d="M154.68962810578893 142.4222387935451C130.46265224769465 141.85909964139344 115.30611424180327 117.27710127433402 113.57747191982583 110.26259602330944C110.6403539638832 98.34423306224386 118.93353986296107 88.31790772284836 120.69391185322746 77.56554761142418C122.42480273437499 66.99332207351434 114.83191809682377 57.75898924180328 104.6529405737705 63.133795178022545C98.8044381723873 66.22181643826845 99.98268317751025 74.55597608222337 96.04295767161885 71.7435282402664C88.35588338883197 66.25604450563524 106.78807242571722 52.5883025102459 104.11628445184427 30.46922595414959C100.24601444031762 -1.569666690253586 58.53749039446722 -1.3774873347848362 64.18786974897542 32.377253329918034C51.90374116290983 -3.3764614337858605 22.428328393954917 -5.151274170722337 7.295025499487704 10.021928157018442C-5.413206330046107 22.763638534195696 0.4226616672003074 51.78181928790983 31.135548988217213 65.4300737704918C-1.8680854697105533 64.71128435578895 -3.0066234182889344 101.46448367059426 29.227521612448772 105.35848847336067C51.3463483286373 108.03027644723362 65.01409032402664 89.59783757044057 70.50182389856558 97.28516169313525C73.31402190061476 101.22463735911886 64.98011209656762 100.0466421939037 61.89184099641393 105.8948947553791C56.51703506019467 116.07412211834017 65.75136789190573 123.6667569159836 76.32384326972335 121.93586603483607C87.07595354123976 120.17549404456967 96.17986994108607 110.87695235655737 108.09823290215165 113.81407031250001C97.86479027920082 95.43584669569672 64.63533302382172 54.47259509477459 27.336733190317624 28.492242763831968M154.68962810578893 142.4222387935451C154.9304737768955 142.4277352715164 155.17256864754097 142.43098319031765 155.41541303790981 142.431732710041M154.68962810578893 142.4222387935451C154.69862234246926 142.42673591188526 154.7076165791496 142.43123303022543 154.71686065573772 142.43597998847338M154.68962810578893 142.4222387935451C132.24276159067622 131.11823216572745 134.30693890881147 105.26329946849386 147.89648101306355 100.10635393186476C164.17380084528688 93.92906221183402 172.99664734887295 111.85657463498976 161.26516463883198 118.67720411757172C149.533681928791 125.49783360015368 142.55440410476433 108.52071218621926 152.34413105148568 105.26529818775616C154.49475297771517 104.55025637167009 156.39028835809427 107.3884377241291 154.1754575755635 108.20991134093238C153.00970456582994 108.64238422131149 152.76036433785862 107.11086558657787 153.75747540983608 106.25616326203894M147.1269740970799 141.70894585681353C127.30567517289958 134.42411382556355 109.01589488345287 138.22617754226434 101.77728323514344 158.4891934234119C99.05252920081968 166.1163061283299 98.98182450691598 178.5945603227459 99.28612951460042 187.2932363921619C100.47161987704918 221.1972613985656 69.91869755379098 226.64427106813525 66.78320671106557 198.48381570184426C60.5112256659836 188.3630508773053 59.331481621413936 212.85185895876023 43.24279091956967 219.09835633324798C14.632648703253075 230.20648847336068 -3.9842469774590166 191.0415845286885 21.611901543288933 174.6778200883709C37.178926517674185 164.72569720158813 54.44636190445697 167.1114184810451 41.262309970543036 156.8297567558914C21.305273024462092 141.26572986039957 44.807288422131144 128.94312592853484 63.82884980148566 138.8085543673156C74.0010816470287 144.08417386014344 81.196470991291 154.04329226434427 94.37602580686475 151.62459211705942C77.05737323898566 161.78957860527663 44.83751905097336 181.9686482774078 30.287592341188525 201.12637240650614" stroke="#ECDCD8" stroke-width="2"></path> </svg>