<svg width="30" height="30" viewBox="0 0 30 30" fill="none" xmlns="http://www.w3.org/2000/svg">
<g clip-path="url(#clip0_3807_8901)">
<circle cx="15" cy="15" r="15" fill="white"/>
<path fill-rule="evenodd" clip-rule="evenodd" d="M12.1615 10.5411C12.1615 9.68093 12.5032 8.856 13.1114 8.24778C13.7196 7.63955 14.5446 7.29785 15.4047 7.29785C16.2649 7.29785 17.0898 7.63955 17.698 8.24778C18.3063 8.856 18.648 9.68093 18.648 10.5411C18.648 11.4013 18.3063 12.2262 17.698 12.8344C17.0898 13.4426 16.2649 13.7843 15.4047 13.7843C14.5446 13.7843 13.7196 13.4426 13.1114 12.8344C12.5032 12.2262 12.1615 11.4013 12.1615 10.5411ZM12.1615 15.406C11.0863 15.406 10.0551 15.8331 9.29483 16.5934C8.53454 17.3536 8.10742 18.3848 8.10742 19.46C8.10742 20.1051 8.3637 20.7238 8.81986 21.18C9.27603 21.6362 9.89473 21.8924 10.5399 21.8924H20.2696C20.9147 21.8924 21.5334 21.6362 21.9896 21.18C22.4457 20.7238 22.702 20.1051 22.702 19.46C22.702 18.3848 22.2749 17.3536 21.5146 16.5934C20.7543 15.8331 19.7232 15.406 18.648 15.406H12.1615Z" fill="#355EAB"/>
</g>
<defs>
<clipPath id="clip0_3807_8901">
<rect width="30" height="30" fill="white"/>
</clipPath>
</defs>
</svg>
