<svg width="25" height="25" viewBox="0 0 25 25" fill="none" xmlns="http://www.w3.org/2000/svg">
<path d="M12.5 5.25781C12.5 6.29381 12.0884 7.28738 11.3559 8.01995C10.6233 8.75251 9.62975 9.16406 8.59375 9.16406C7.55775 9.16406 6.56418 8.75251 5.83161 8.01995C5.09905 7.28738 4.6875 6.29381 4.6875 5.25781C4.6875 4.22181 5.09905 3.22824 5.83161 2.49568C6.56418 1.76311 7.55775 1.35156 8.59375 1.35156C9.62975 1.35156 10.6233 1.76311 11.3559 2.49568C12.0884 3.22824 12.5 4.22181 12.5 5.25781ZM17.9688 7.60156C17.1338 7.60094 16.3032 7.722 15.5031 7.96094C15.1434 7.49931 14.9204 6.94592 14.8598 6.36381C14.7991 5.78169 14.9032 5.19424 15.1601 4.66836C15.4169 4.14248 15.8163 3.6993 16.3128 3.38931C16.8092 3.07931 17.3827 2.91496 17.968 2.91496C18.5532 2.91496 19.1267 3.07931 19.6232 3.38931C20.1196 3.6993 20.519 4.14248 20.7759 4.66836C21.0328 5.19424 21.1368 5.78169 21.0761 6.36381C21.0155 6.94592 20.7926 7.49931 20.4328 7.96094C19.6333 7.72215 18.8032 7.60109 17.9688 7.60156ZM4.6875 10.7266H11.3391C10.0667 12.2647 9.37196 14.1991 9.375 16.1953C9.375 16.7172 9.42188 17.2266 9.51094 17.7219C9.20581 17.7462 8.89984 17.7582 8.59375 17.7578C2.34375 17.7578 2.34375 13.1875 2.34375 13.1875V13.0703C2.34375 12.4487 2.59068 11.8526 3.03022 11.413C3.46976 10.9735 4.0659 10.7266 4.6875 10.7266ZM25 16.1953C25 18.0601 24.2592 19.8485 22.9406 21.1672C21.622 22.4858 19.8336 23.2266 17.9688 23.2266C16.1039 23.2266 14.3155 22.4858 12.9969 21.1672C11.6783 19.8485 10.9375 18.0601 10.9375 16.1953C10.9375 14.3305 11.6783 12.5421 12.9969 11.2235C14.3155 9.90485 16.1039 9.16406 17.9688 9.16406C19.8336 9.16406 21.622 9.90485 22.9406 11.2235C24.2592 12.5421 25 14.3305 25 16.1953ZM18.75 13.0703C18.75 12.8631 18.6677 12.6644 18.5212 12.5179C18.3747 12.3714 18.176 12.2891 17.9688 12.2891C17.7615 12.2891 17.5628 12.3714 17.4163 12.5179C17.2698 12.6644 17.1875 12.8631 17.1875 13.0703V15.4141H14.8438C14.6365 15.4141 14.4378 15.4964 14.2913 15.6429C14.1448 15.7894 14.0625 15.9881 14.0625 16.1953C14.0625 16.4025 14.1448 16.6012 14.2913 16.7477C14.4378 16.8943 14.6365 16.9766 14.8438 16.9766H17.1875V19.3203C17.1875 19.5275 17.2698 19.7262 17.4163 19.8727C17.5628 20.0193 17.7615 20.1016 17.9688 20.1016C18.176 20.1016 18.3747 20.0193 18.5212 19.8727C18.6677 19.7262 18.75 19.5275 18.75 19.3203V16.9766H21.0938C21.301 16.9766 21.4997 16.8943 21.6462 16.7477C21.7927 16.6012 21.875 16.4025 21.875 16.1953C21.875 15.9881 21.7927 15.7894 21.6462 15.6429C21.4997 15.4964 21.301 15.4141 21.0938 15.4141H18.75V13.0703Z" fill="white"/>
</svg>
