<svg width="25" height="25" viewBox="0 0 25 25"  xmlns="http://www.w3.org/2000/svg">
<path d="M6.25016 13.5417C3.9585 13.5417 2.0835 15.4167 2.0835 17.7083C2.0835 20 3.9585 21.875 6.25016 21.875C8.54183 21.875 10.4168 20 10.4168 17.7083C10.4168 15.4167 8.54183 13.5417 6.25016 13.5417ZM12.5002 3.125C10.2085 3.125 8.3335 5 8.3335 7.29167C8.3335 9.58333 10.2085 11.4583 12.5002 11.4583C14.7918 11.4583 16.6668 9.58333 16.6668 7.29167C16.6668 5 14.7918 3.125 12.5002 3.125ZM18.7502 13.5417C16.4585 13.5417 14.5835 15.4167 14.5835 17.7083C14.5835 20 16.4585 21.875 18.7502 21.875C21.0418 21.875 22.9168 20 22.9168 17.7083C22.9168 15.4167 21.0418 13.5417 18.7502 13.5417Z" />
</svg>
