<svg width="29" height="27" viewBox="0 0 29 27" fill="none" xmlns="http://www.w3.org/2000/svg">
<path d="M28.9849 7.18301C28.9853 7.16932 28.989 7.15711 28.989 7.14342C28.988 6.78247 28.8542 6.43451 28.6131 6.16588L28.6205 6.16181L25.7086 1.11982C25.6576 0.916621 25.5399 0.736402 25.3743 0.608009C25.2088 0.479617 25.0049 0.410473 24.7954 0.411643C24.7647 0.411643 24.7359 0.417563 24.7059 0.420523V0.411643H4.22122V0.413123C4.21641 0.413123 4.2116 0.411643 4.20679 0.411643C4.04104 0.41048 3.87822 0.455349 3.73646 0.541253C3.5947 0.627157 3.47957 0.750724 3.40389 0.898193L3.40093 0.896343L0.362487 6.16181L0.368037 6.16477C0.136841 6.4379 0.0105186 6.78447 0.0117273 7.14231C0.0117273 7.1597 0.0161673 7.17598 0.0169073 7.19337V25.0314C0.0161673 25.0492 0.0117273 25.0659 0.0117273 25.084C0.0117273 25.9291 0.684017 26.5895 1.52688 26.5884C1.54279 26.5884 1.55759 26.5843 1.57313 26.584H27.425C27.4409 26.5843 27.4557 26.5884 27.4716 26.5884C28.3164 26.5884 28.9886 25.9291 28.9886 25.0855C28.9886 25.0721 28.9849 25.0603 28.9846 25.047L28.9849 7.18301ZM19.463 16.2721L14.8783 22.7212C14.7947 22.8388 14.66 22.908 14.5157 22.9088H14.5142C14.3714 22.9088 14.2364 22.8396 14.1528 22.7226L9.53849 16.2728C9.49077 16.2062 9.46237 16.1278 9.45643 16.0461C9.45049 15.9644 9.46723 15.8827 9.50482 15.8099C9.58178 15.6616 9.73422 15.568 9.90109 15.568H12.0593L12.0597 9.77597C12.0597 9.52918 12.2587 9.33012 12.5048 9.33012H16.4967C16.7428 9.33012 16.9422 9.52955 16.9422 9.7756V15.568H19.0993C19.1811 15.568 19.2613 15.5906 19.3311 15.6332C19.401 15.6758 19.4578 15.7367 19.4953 15.8094C19.5328 15.8821 19.5497 15.9637 19.544 16.0453C19.5383 16.1268 19.5103 16.2053 19.463 16.2721ZM2.79931 5.63123L4.74662 2.2572H24.2345L26.1829 5.63123H2.79931Z" fill="#ABC8DE"/>
</svg>
