<svg  viewBox="0 0 35 33" fill="none" xmlns="http://www.w3.org/2000/svg">
<path d="M15.9577 27.9877L28.5994 15.346C29.3702 14.5752 30.2952 14.1127 31.3744 14.1127C32.4535 14.1127 33.3785 14.5752 34.1493 15.346L34.4577 15.6543V3.16683C34.4577 1.471 33.0702 0.0834961 31.3744 0.0834961H3.62435C1.92852 0.0834961 0.541016 1.471 0.541016 3.16683V27.8335C0.541016 29.5293 1.92852 30.9168 3.62435 30.9168H15.9577V27.9877ZM3.62435 3.16683H31.3744V7.79183H3.62435V3.16683ZM31.3744 17.196C31.2202 17.196 30.9119 17.3502 30.7577 17.5043L29.216 19.046L32.4535 22.2835L33.9952 20.7418C34.3035 20.4335 34.3035 19.8168 33.9952 19.5085L31.991 17.5043C31.8368 17.3502 31.6827 17.196 31.3744 17.196ZM28.4452 19.971L19.041 29.221V32.4585H22.2785L31.6827 23.0543L28.4452 19.971Z" fill="#ABC8DE"/>
</svg>
