<svg width="13" height="13" viewBox="0 0 13 13" fill="none" xmlns="http://www.w3.org/2000/svg">
<path d="M9.92547 1.10497e-08C10.337 -4.55165e-05 10.7332 0.140599 11.0341 0.39351C11.3349 0.64642 11.5179 0.992737 11.546 1.36247L11.5496 1.46192V8.04545C11.463 8.09746 11.38 8.15856 11.3035 8.22746L8.84269 10.4428L8.18725 9.85124C7.89904 9.59103 7.51229 9.43849 7.10447 9.42417H8.84269C8.98628 9.42417 9.12398 9.37281 9.22552 9.28138C9.32705 9.18995 9.38408 9.06595 9.38408 8.93665C9.38408 8.80735 9.32705 8.68334 9.22552 8.59192C9.12398 8.50049 8.98628 8.44912 8.84269 8.44912H5.23054C5.08696 8.44912 4.94925 8.50049 4.84772 8.59192C4.74619 8.68334 4.68915 8.80735 4.68915 8.93665C4.68915 9.06595 4.74619 9.18995 4.84772 9.28138C4.94925 9.37281 5.08696 9.42417 5.23054 9.42417H6.97237C6.65717 9.4358 6.35254 9.52984 6.09571 9.69481C5.83887 9.85977 5.64095 10.0885 5.52611 10.3531C5.41128 10.6177 5.3845 10.9067 5.44905 11.1848C5.51359 11.4628 5.66668 11.718 5.8896 11.919L7.08643 13H1.62417C1.21262 13 0.8164 12.8594 0.515581 12.6065C0.214762 12.3536 0.0317775 12.0073 0.00360936 11.6375L1.22706e-08 11.5374V1.46257C-5.05455e-05 1.09197 0.156133 0.735173 0.436987 0.464283C0.717841 0.193394 1.10242 0.0286158 1.513 0.00325025L1.62417 1.10497e-08H9.92547ZM3.60926 3.73769C3.60926 3.56529 3.53321 3.39995 3.39784 3.27804C3.26246 3.15614 3.07886 3.08765 2.88741 3.08765C2.69596 3.08765 2.51236 3.15614 2.37698 3.27804C2.24161 3.39995 2.16556 3.56529 2.16556 3.73769C2.16556 3.91009 2.24161 4.07542 2.37698 4.19733C2.51236 4.31923 2.69596 4.38772 2.88741 4.38772C3.07886 4.38772 3.26246 4.31923 3.39784 4.19733C3.53321 4.07542 3.60926 3.91009 3.60926 3.73769ZM5.23054 3.24951C5.08696 3.24951 4.94925 3.30088 4.84772 3.3923C4.74619 3.48373 4.68915 3.60774 4.68915 3.73704C4.68915 3.86634 4.74619 3.99034 4.84772 4.08177C4.94925 4.1732 5.08696 4.22456 5.23054 4.22456H8.84269C8.98628 4.22456 9.12398 4.1732 9.22552 4.08177C9.32705 3.99034 9.38408 3.86634 9.38408 3.73704C9.38408 3.60774 9.32705 3.48373 9.22552 3.3923C9.12398 3.30088 8.98628 3.24951 8.84269 3.24951H5.23054ZM4.68915 6.33717C4.68915 6.60628 4.9317 6.82469 5.23054 6.82469H8.84269C8.91379 6.82469 8.98419 6.81208 9.04988 6.78758C9.11556 6.76308 9.17524 6.72717 9.22552 6.6819C9.27579 6.63663 9.31567 6.58288 9.34287 6.52373C9.37008 6.46459 9.38408 6.40119 9.38408 6.33717C9.38408 6.27314 9.37008 6.20975 9.34287 6.1506C9.31567 6.09145 9.27579 6.03771 9.22552 5.99244C9.17524 5.94716 9.11556 5.91125 9.04988 5.88675C8.98419 5.86225 8.91379 5.84964 8.84269 5.84964H5.23054C5.08696 5.84964 4.94925 5.90101 4.84772 5.99244C4.74619 6.08386 4.68915 6.20787 4.68915 6.33717ZM3.60926 6.33717C3.60926 6.16477 3.53321 5.99943 3.39784 5.87752C3.26246 5.75562 3.07886 5.68713 2.88741 5.68713C2.69596 5.68713 2.51236 5.75562 2.37698 5.87752C2.24161 5.99943 2.16556 6.16477 2.16556 6.33717C2.16556 6.50957 2.24161 6.6749 2.37698 6.79681C2.51236 6.91871 2.69596 6.9872 2.88741 6.9872C3.07886 6.9872 3.26246 6.91871 3.39784 6.79681C3.53321 6.6749 3.60926 6.50957 3.60926 6.33717ZM3.60926 8.936C3.60926 8.7636 3.53321 8.59826 3.39784 8.47635C3.26246 8.35445 3.07886 8.28596 2.88741 8.28596C2.69596 8.28596 2.51236 8.35445 2.37698 8.47635C2.24161 8.59826 2.16556 8.7636 2.16556 8.936C2.16556 9.1084 2.24161 9.27373 2.37698 9.39564C2.51236 9.51754 2.69596 9.58603 2.88741 9.58603C3.07886 9.58603 3.26246 9.51754 3.39784 9.39564C3.53321 9.27373 3.60926 9.1084 3.60926 8.936ZM8.84269 11.8228L12.0694 8.91715C12.1193 8.8706 12.1791 8.83349 12.2452 8.80797C12.3112 8.78244 12.3823 8.76903 12.4542 8.76849C12.526 8.76796 12.5973 8.78033 12.6639 8.80487C12.7304 8.82941 12.7908 8.86564 12.8416 8.91143C12.8924 8.95723 12.9326 9.01168 12.9598 9.07161C12.987 9.13153 13.0006 9.19573 13 9.26047C12.9993 9.3252 12.9844 9.38917 12.9559 9.44863C12.9275 9.5081 12.8863 9.56188 12.8345 9.60683L9.22528 12.857C9.12377 12.9483 8.98616 12.9996 8.84269 12.9996C8.69923 12.9996 8.56162 12.9483 8.46011 12.857L6.65548 11.2313C6.55985 11.1388 6.50779 11.0166 6.51026 10.8903C6.51274 10.764 6.56956 10.6435 6.66875 10.5542C6.76794 10.4649 6.90176 10.4137 7.04202 10.4115C7.18227 10.4092 7.31802 10.4561 7.42064 10.5422L8.84269 11.8228Z" fill="#355EAB"/>
</svg>
