<svg width="25" height="25" viewBox="0 0 25 25" fill="none" xmlns="http://www.w3.org/2000/svg">
<path d="M22.5252 13.5422C22.7191 13.685 22.8637 13.8846 22.9389 14.1134C23.0141 14.3422 23.0161 14.5888 22.9447 14.8187C22.4495 16.402 21.6071 17.8548 20.4791 19.0711C20.3162 19.2457 20.1032 19.3656 19.8694 19.4141C19.6356 19.4627 19.3925 19.4375 19.1736 19.3422L17.6463 18.6719C17.4794 18.5976 17.2975 18.5634 17.115 18.5719C16.9332 18.5825 16.7565 18.636 16.5994 18.7281C16.4421 18.8192 16.3085 18.9462 16.2098 19.0989C16.1111 19.2515 16.05 19.4254 16.0314 19.6062L15.8478 21.2703C15.8214 21.5072 15.7224 21.7301 15.5643 21.9086C15.4063 22.087 15.197 22.2123 14.965 22.2672C13.3431 22.6539 11.6525 22.6539 10.0306 22.2672C9.8003 22.2115 9.59256 22.0865 9.43542 21.9091C9.27828 21.7317 9.17927 21.5104 9.15174 21.275L8.96815 19.6141C8.9364 19.331 8.80152 19.0696 8.58924 18.8797C8.42329 18.7333 8.21929 18.6369 8.00084 18.6017C7.7824 18.5664 7.55843 18.5938 7.35486 18.6805L5.82752 19.3516C5.60922 19.4469 5.36677 19.4723 5.13345 19.4243C4.90014 19.3763 4.68738 19.2573 4.5244 19.0836C3.39449 17.866 2.55102 16.4113 2.05565 14.8258C1.98462 14.5961 1.98677 14.35 2.06179 14.1215C2.13682 13.8931 2.28101 13.6936 2.4744 13.5508L3.82205 12.5547C3.96931 12.4467 4.08906 12.3056 4.17161 12.1427C4.25415 11.9798 4.29717 11.7998 4.29717 11.6172C4.29717 11.4346 4.25415 11.2546 4.17161 11.0917C4.08906 10.9288 3.96931 10.7877 3.82205 10.6797L2.4744 9.68515C2.28204 9.54306 2.13848 9.34482 2.06348 9.11773C1.98848 8.89065 1.98575 8.64589 2.05565 8.41719C2.55088 6.83296 3.39411 5.37953 4.52361 4.16328C4.63299 4.04531 4.7658 3.95156 4.91424 3.88906C5.05883 3.82782 5.21425 3.79627 5.37127 3.79627C5.52829 3.79627 5.68371 3.82782 5.8283 3.88906L7.3494 4.55937C7.51674 4.63125 7.69859 4.66295 7.88038 4.65192C8.06217 4.64089 8.23885 4.58744 8.39628 4.49586C8.5537 4.40427 8.68749 4.2771 8.78693 4.12452C8.88637 3.97193 8.9487 3.79819 8.96893 3.61719L9.1533 1.95937C9.18012 1.71999 9.28093 1.49493 9.44169 1.31555C9.60245 1.13616 9.81515 1.01138 10.0502 0.958594C10.8576 0.780453 11.6812 0.685685 12.508 0.675781C13.3299 0.685156 14.1486 0.779687 14.951 0.958594C15.1865 1.01102 15.3997 1.13601 15.5604 1.31597C15.7212 1.49592 15.8214 1.72178 15.8471 1.96172L16.0314 3.61797C16.051 3.79869 16.1128 3.97229 16.2118 4.12471C16.3109 4.27713 16.4444 4.40411 16.6016 4.49537C16.7588 4.58664 16.9353 4.63964 17.1168 4.65008C17.2982 4.66052 17.4796 4.62811 17.6463 4.55547L19.1666 3.88594C19.3858 3.79054 19.6292 3.76531 19.8634 3.81371C20.0975 3.8621 20.3109 3.98176 20.4744 4.15625C21.6032 5.37123 22.4459 6.82336 22.9408 8.40625C23.0123 8.63576 23.0104 8.88188 22.9351 9.11021C22.8599 9.33853 22.7152 9.53764 22.5213 9.67969L21.1775 10.6742C21.0297 10.7812 20.9093 10.9217 20.8261 11.0842C20.743 11.2466 20.6995 11.4265 20.6992 11.609C20.6989 11.7915 20.7418 11.9715 20.8244 12.1342C20.907 12.2969 21.0269 12.4378 21.1744 12.5453L22.5252 13.5422ZM12.5002 14.7359C13.329 14.7359 14.1238 14.4067 14.7099 13.8206C15.2959 13.2346 15.6252 12.4397 15.6252 11.6109C15.6252 10.7821 15.2959 9.98728 14.7099 9.40123C14.1238 8.81518 13.329 8.48594 12.5002 8.48594C11.6714 8.48594 10.8765 8.81518 10.2905 9.40123C9.70442 9.98728 9.37518 10.7821 9.37518 11.6109C9.37518 12.4397 9.70442 13.2346 10.2905 13.8206C10.8765 14.4067 11.6714 14.7359 12.5002 14.7359Z" fill="white"/>
</svg>
