<svg width="25" height="25" viewBox="0 0 25 25" fill="none" xmlns="http://www.w3.org/2000/svg">
<path d="M12.5 1.5625C10.3368 1.5625 8.22212 2.20397 6.42346 3.4058C4.62479 4.60763 3.22291 6.31583 2.39507 8.3144C1.56724 10.313 1.35064 12.5121 1.77267 14.6338C2.19469 16.7555 3.23639 18.7043 4.76602 20.234C6.29566 21.7636 8.24454 22.8053 10.3662 23.2273C12.4879 23.6494 14.687 23.4328 16.6856 22.6049C18.6842 21.7771 20.3924 20.3752 21.5942 18.5765C22.796 16.7779 23.4375 14.6632 23.4375 12.5C23.4375 9.59919 22.2852 6.8172 20.234 4.76602C18.1828 2.71484 15.4008 1.5625 12.5 1.5625ZM12.5 6.25C12.7318 6.25 12.9584 6.31873 13.1511 6.4475C13.3438 6.57626 13.494 6.75929 13.5827 6.97342C13.6714 7.18755 13.6946 7.42318 13.6494 7.6505C13.6041 7.87782 13.4925 8.08663 13.3286 8.25052C13.1648 8.41441 12.9559 8.52602 12.7286 8.57123C12.5013 8.61645 12.2657 8.59324 12.0515 8.50455C11.8374 8.41585 11.6544 8.26565 11.5256 8.07293C11.3969 7.88022 11.3281 7.65365 11.3281 7.42188C11.3281 7.11107 11.4516 6.813 11.6714 6.59323C11.8911 6.37347 12.1892 6.25 12.5 6.25ZM15.625 18.8477H9.37501V17.0898H11.6211V12.5977H10.1563V10.8398H13.3789V17.0898H15.625V18.8477Z" fill="white"/>
</svg>
