<svg width="25" height="25" viewBox="0 0 25 25"  xmlns="http://www.w3.org/2000/svg">
<path d="M18.4894 2.02734C19.0833 2.02727 19.6551 2.25265 20.0892 2.65794C20.5233 3.06322 20.7873 3.61819 20.828 4.21068L20.8332 4.37005V14.9201C20.7082 15.0034 20.5884 15.1013 20.478 15.2117L16.9269 18.7617L15.9811 17.8138C15.5652 17.3968 15.0071 17.1524 14.4186 17.1294H16.9269C17.1341 17.1294 17.3328 17.0471 17.4793 16.9006C17.6259 16.7541 17.7082 16.5554 17.7082 16.3482C17.7082 16.141 17.6259 15.9423 17.4793 15.7958C17.3328 15.6492 17.1341 15.5669 16.9269 15.5669H11.7144C11.5072 15.5669 11.3085 15.6492 11.162 15.7958C11.0155 15.9423 10.9332 16.141 10.9332 16.3482C10.9332 16.5554 11.0155 16.7541 11.162 16.9006C11.3085 17.0471 11.5072 17.1294 11.7144 17.1294H14.228C13.7731 17.1481 13.3335 17.2988 12.9629 17.5631C12.5923 17.8275 12.3067 18.194 12.1409 18.6181C11.9752 19.0421 11.9366 19.5052 12.0297 19.9508C12.1229 20.3964 12.3438 20.8052 12.6655 21.1273L14.3925 22.8596H6.51025C5.91637 22.8597 5.34461 22.6343 4.91051 22.229C4.47641 21.8238 4.21236 21.2688 4.17171 20.6763L4.1665 20.5159V4.37109C4.16643 3.77721 4.39181 3.20545 4.7971 2.77135C5.20238 2.33725 5.75735 2.0732 6.34984 2.03255L6.51025 2.02734H18.4894ZM9.37484 8.01693C9.37484 7.74066 9.26509 7.47571 9.06974 7.28036C8.87439 7.08501 8.60944 6.97526 8.33317 6.97526C8.0569 6.97526 7.79195 7.08501 7.5966 7.28036C7.40125 7.47571 7.2915 7.74066 7.2915 8.01693C7.2915 8.29319 7.40125 8.55815 7.5966 8.7535C7.79195 8.94885 8.0569 9.05859 8.33317 9.05859C8.60944 9.05859 8.87439 8.94885 9.06974 8.7535C9.26509 8.55815 9.37484 8.29319 9.37484 8.01693ZM11.7144 7.23464C11.5072 7.23464 11.3085 7.31695 11.162 7.46346C11.0155 7.60997 10.9332 7.80869 10.9332 8.01589C10.9332 8.22309 11.0155 8.4218 11.162 8.56831C11.3085 8.71483 11.5072 8.79714 11.7144 8.79714H16.9269C17.1341 8.79714 17.3328 8.71483 17.4793 8.56831C17.6259 8.4218 17.7082 8.22309 17.7082 8.01589C17.7082 7.80869 17.6259 7.60997 17.4793 7.46346C17.3328 7.31695 17.1341 7.23464 16.9269 7.23464H11.7144ZM10.9332 12.1826C10.9332 12.6138 11.2832 12.9638 11.7144 12.9638H16.9269C17.0295 12.9638 17.1311 12.9436 17.2259 12.9043C17.3207 12.8651 17.4068 12.8075 17.4793 12.735C17.5519 12.6624 17.6094 12.5763 17.6487 12.4815C17.688 12.3867 17.7082 12.2851 17.7082 12.1826C17.7082 12.08 17.688 11.9784 17.6487 11.8836C17.6094 11.7888 17.5519 11.7027 17.4793 11.6301C17.4068 11.5576 17.3207 11.5 17.2259 11.4608C17.1311 11.4215 17.0295 11.4013 16.9269 11.4013H11.7144C11.5072 11.4013 11.3085 11.4836 11.162 11.6301C11.0155 11.7766 10.9332 11.9754 10.9332 12.1826ZM9.37484 12.1826C9.37484 11.9063 9.26509 11.6413 9.06974 11.446C8.87439 11.2506 8.60944 11.1409 8.33317 11.1409C8.0569 11.1409 7.79195 11.2506 7.5966 11.446C7.40125 11.6413 7.2915 11.9063 7.2915 12.1826C7.2915 12.4588 7.40125 12.7238 7.5966 12.9191C7.79195 13.1145 8.0569 13.2242 8.33317 13.2242C8.60944 13.2242 8.87439 13.1145 9.06974 12.9191C9.26509 12.7238 9.37484 12.4588 9.37484 12.1826ZM9.37484 16.3471C9.37484 16.0709 9.26509 15.8059 9.06974 15.6106C8.87439 15.4152 8.60944 15.3055 8.33317 15.3055C8.0569 15.3055 7.79195 15.4152 7.5966 15.6106C7.40125 15.8059 7.2915 16.0709 7.2915 16.3471C7.2915 16.6234 7.40125 16.8884 7.5966 17.0837C7.79195 17.2791 8.0569 17.3888 8.33317 17.3888C8.60944 17.3888 8.87439 17.2791 9.06974 17.0837C9.26509 16.8884 9.37484 16.6234 9.37484 16.3471ZM16.9269 20.9732L21.5832 16.3169C21.6553 16.2423 21.7415 16.1829 21.8368 16.142C21.9322 16.1011 22.0347 16.0796 22.1384 16.0787C22.2422 16.0779 22.345 16.0977 22.441 16.137C22.537 16.1763 22.6242 16.2344 22.6975 16.3078C22.7709 16.3812 22.8288 16.4684 22.8681 16.5644C22.9073 16.6605 22.927 16.7634 22.9261 16.8671C22.9251 16.9708 22.9035 17.0733 22.8625 17.1686C22.8215 17.2639 22.762 17.3501 22.6873 17.4221L17.479 22.6305C17.3325 22.7768 17.134 22.8589 16.9269 22.8589C16.7199 22.8589 16.5213 22.7768 16.3748 22.6305L13.7707 20.0253C13.6327 19.8772 13.5575 19.6813 13.5611 19.4789C13.5647 19.2765 13.6467 19.0834 13.7898 18.9402C13.933 18.7971 14.1261 18.7151 14.3285 18.7115C14.5309 18.708 14.7267 18.7831 14.8748 18.9211L16.9269 20.9732Z" />
</svg>
