<svg width="12" height="10" viewBox="0 0 12 10" fill="none" xmlns="http://www.w3.org/2000/svg">
<path d="M5.45455 8.61905L9.92727 4.71429C10.2 4.47619 10.5273 4.33333 10.9091 4.33333C11.2909 4.33333 11.6182 4.47619 11.8909 4.71429L12 4.80952V0.952381C12 0.428571 11.5091 0 10.9091 0H1.09091C0.490909 0 0 0.428571 0 0.952381V8.57143C0 9.09524 0.490909 9.52381 1.09091 9.52381H5.45455V8.61905ZM1.09091 0.952381H10.9091V2.38095H1.09091V0.952381ZM10.9091 5.28571C10.8545 5.28571 10.7455 5.33333 10.6909 5.38095L10.1455 5.85714L11.2909 6.85714L11.8364 6.38095C11.9455 6.28571 11.9455 6.09524 11.8364 6L11.1273 5.38095C11.0727 5.33333 11.0182 5.28571 10.9091 5.28571ZM9.87273 6.14286L6.54545 9V10H7.69091L11.0182 7.09524L9.87273 6.14286Z" fill="#355EAB"/>
</svg>
