<svg width="18" height="17" viewBox="0 0 20 20" fill="none" xmlns="http://www.w3.org/2000/svg">
<g clip-path="url(#clip0_5086_14524)">
<path d="M5.32352 11.5411C5.32561 10.5531 5.67263 9.59336 6.31081 8.8105C6.94899 8.02763 7.84271 7.46539 8.85352 7.21086L6.49852 1.41669C6.46254 1.32709 6.39855 1.24996 6.31505 1.19552C6.23155 1.14109 6.13248 1.11194 6.03102 1.11194C5.92956 1.11194 5.8305 1.14109 5.747 1.19552C5.6635 1.24996 5.59951 1.32709 5.56352 1.41669L1.03352 12.5422C1.00434 12.6137 0.993983 12.6907 1.00335 12.7668C1.01271 12.8428 1.04151 12.9156 1.08727 12.9788C1.13303 13.042 1.19438 13.0937 1.26602 13.1296C1.33766 13.1654 1.41746 13.1842 1.49852 13.1845H5.65852C5.43801 12.6616 5.32434 12.104 5.32352 11.5411Z" fill="#355EAB"/>
<path d="M16 4.72217H10C9.86739 4.72217 9.74021 4.77192 9.64645 4.86048C9.55268 4.94904 9.5 5.06915 9.5 5.19439V7.08328C10.1499 7.00409 10.8101 7.05371 11.4386 7.22897C12.067 7.40423 12.6499 7.70129 13.15 8.10118C13.6501 8.50107 14.0564 8.99502 14.3431 9.55152C14.6298 10.108 14.7905 10.7148 14.815 11.3333H16C16.1326 11.3333 16.2598 11.2835 16.3536 11.195C16.4473 11.1064 16.5 10.9863 16.5 10.8611V5.19439C16.5 5.06915 16.4473 4.94904 16.3536 4.86048C16.2598 4.77192 16.1326 4.72217 16 4.72217Z" fill="#355EAB"/>
<path d="M10.0742 15.0828C12.1453 15.0828 13.8242 13.4972 13.8242 11.5412C13.8242 9.58517 12.1453 7.99951 10.0742 7.99951C8.00315 7.99951 6.32422 9.58517 6.32422 11.5412C6.32422 13.4972 8.00315 15.0828 10.0742 15.0828Z" fill="#355EAB"/>
</g>
<defs>
<clipPath id="clip0_5086_14524">
<rect width="18" height="17" fill="white"/>
</clipPath>
</defs>
</svg>
