<svg  viewBox="0 0 34 33" fill="none" xmlns="http://www.w3.org/2000/svg">
<path d="M15.5 6.40625C15.5 7.93953 14.8909 9.41002 13.8067 10.4942C12.7225 11.5784 11.252 12.1875 9.71875 12.1875C8.18547 12.1875 6.71498 11.5784 5.63079 10.4942C4.54659 9.41002 3.9375 7.93953 3.9375 6.40625C3.9375 4.87297 4.54659 3.40248 5.63079 2.31829C6.71498 1.23409 8.18547 0.625 9.71875 0.625C11.252 0.625 12.7225 1.23409 13.8067 2.31829C14.8909 3.40248 15.5 4.87297 15.5 6.40625ZM23.5938 9.875C22.358 9.87408 21.1287 10.0533 19.9446 10.4069C19.4122 9.72366 19.0823 8.90465 18.9925 8.04312C18.9027 7.18159 19.0567 6.31216 19.4369 5.53386C19.8171 4.75556 20.4082 4.09966 21.1429 3.64086C21.8776 3.18207 22.7264 2.93882 23.5926 2.93882C24.4588 2.93882 25.3076 3.18207 26.0423 3.64086C26.777 4.09966 27.3681 4.75556 27.7483 5.53386C28.1285 6.31216 28.2825 7.18159 28.1927 8.04312C28.1029 8.90465 27.773 9.72366 27.2406 10.4069C26.0572 10.0535 24.8287 9.8743 23.5938 9.875ZM3.9375 14.5H13.7818C11.8987 16.7764 10.8705 19.6394 10.875 22.5938C10.875 23.3661 10.9444 24.12 11.0762 24.8531C10.6246 24.889 10.1718 24.9068 9.71875 24.9062C0.46875 24.9062 0.46875 18.1422 0.46875 18.1422V17.9688C0.46875 17.0488 0.834207 16.1665 1.48472 15.516C2.13524 14.8655 3.01753 14.5 3.9375 14.5ZM34 22.5938C34 25.3537 32.9036 28.0005 30.9521 29.9521C29.0005 31.9036 26.3537 33 23.5938 33C20.8338 33 18.187 31.9036 16.2354 29.9521C14.2839 28.0005 13.1875 25.3537 13.1875 22.5938C13.1875 19.8338 14.2839 17.187 16.2354 15.2354C18.187 13.2839 20.8338 12.1875 23.5938 12.1875C26.3537 12.1875 29.0005 13.2839 30.9521 15.2354C32.9036 17.187 34 19.8338 34 22.5938ZM24.75 17.9688C24.75 17.6621 24.6282 17.368 24.4113 17.1512C24.1945 16.9343 23.9004 16.8125 23.5938 16.8125C23.2871 16.8125 22.993 16.9343 22.7762 17.1512C22.5593 17.368 22.4375 17.6621 22.4375 17.9688V21.4375H18.9688C18.6621 21.4375 18.368 21.5593 18.1512 21.7762C17.9343 21.993 17.8125 22.2871 17.8125 22.5938C17.8125 22.9004 17.9343 23.1945 18.1512 23.4113C18.368 23.6282 18.6621 23.75 18.9688 23.75H22.4375V27.2188C22.4375 27.5254 22.5593 27.8195 22.7762 28.0363C22.993 28.2532 23.2871 28.375 23.5938 28.375C23.9004 28.375 24.1945 28.2532 24.4113 28.0363C24.6282 27.8195 24.75 27.5254 24.75 27.2188V23.75H28.2188C28.5254 23.75 28.8195 23.6282 29.0363 23.4113C29.2532 23.1945 29.375 22.9004 29.375 22.5938C29.375 22.2871 29.2532 21.993 29.0363 21.7762C28.8195 21.5593 28.5254 21.4375 28.2188 21.4375H24.75V17.9688Z" fill="#ABC8DE"/>
</svg>
