<svg width="25" height="25" viewBox="0 0 25 25" fill="none" xmlns="http://www.w3.org/2000/svg">
<path d="M12.5003 4.16634C11.8097 4.16634 11.2274 4.73717 11.2274 5.46842C11.2274 6.19967 11.8097 6.77051 12.5003 6.77051C13.191 6.77051 13.7732 6.19967 13.7732 5.46842C13.7732 4.73717 13.191 4.16634 12.5003 4.16634ZM9.14408 5.46842C9.14408 3.61113 10.6337 2.08301 12.5003 2.08301C14.366 2.08301 15.8566 3.61113 15.8566 5.46842C15.8581 6.18014 15.6352 6.87422 15.2197 7.45205C14.8042 8.02988 14.2172 8.46206 13.542 8.68718V9.55801L17.5514 11.9018V16.5445L18.4035 16.9726C19.011 16.4385 19.7925 16.1444 20.6014 16.1455C22.4691 16.1455 23.9587 17.6736 23.9587 19.5309C23.9587 21.3882 22.468 22.9163 20.6024 22.9163C18.7368 22.9163 17.2462 21.3882 17.2462 19.5309C17.2462 19.2684 17.2753 19.0122 17.3316 18.7653L16.5472 18.3715L12.5003 20.7372L8.45345 18.3726L7.66908 18.7663C7.72533 19.0122 7.75449 19.2684 7.75449 19.5309C7.75449 21.3882 6.26491 22.9163 4.39824 22.9163C2.53262 22.9163 1.04199 21.3882 1.04199 19.5309C1.04199 17.6736 2.53262 16.1455 4.39824 16.1455C5.24199 16.1455 6.01074 16.458 6.59824 16.9736L7.44928 16.5455V11.9018L11.4587 9.55801V8.68822C10.7833 8.46304 10.1961 8.0307 9.78062 7.45267C9.36509 6.87463 9.14235 6.18031 9.14408 5.46842ZM12.5003 11.3622L9.53262 13.0976V16.5893L12.5003 18.3247L15.468 16.5893V13.0976L12.5003 11.3622ZM5.44303 18.7851C5.32721 18.6144 5.17153 18.4746 4.98948 18.3777C4.80743 18.2807 4.60449 18.2297 4.39824 18.2288C3.70866 18.2288 3.12533 18.7997 3.12533 19.5309C3.12533 20.2622 3.70762 20.833 4.39824 20.833C5.08991 20.833 5.67116 20.2622 5.67116 19.5309C5.67116 19.3788 5.64616 19.233 5.60033 19.0976L5.44303 18.7851ZM19.4003 19.1007C19.3532 19.2392 19.3292 19.3846 19.3295 19.5309C19.3295 20.2622 19.9107 20.833 20.6024 20.833C21.293 20.833 21.8753 20.2622 21.8753 19.5309C21.8753 18.7997 21.293 18.2288 20.6024 18.2288C20.1753 18.2288 19.791 18.4466 19.5587 18.7841L19.4003 19.1007Z" fill="white"/>
</svg>
