<svg width="25" height="25" viewBox="0 0 25 25" fill="none" xmlns="http://www.w3.org/2000/svg">
<path d="M24.7487 6.45625L21.78 4.16875C21.5783 4.03924 21.3589 3.93947 21.1287 3.8725C20.8995 3.7983 20.6609 3.75706 20.42 3.75H11.875L12.8762 10H20.42C20.625 10 20.8813 9.95375 21.1275 9.8775C21.3738 9.80125 21.6112 9.69625 21.7788 9.5825L24.7475 7.2925C24.9163 7.17875 25 7.0275 25 6.875C25 6.7225 24.9163 6.57125 24.7487 6.45625ZM10.625 1.25H9.375C9.20924 1.25 9.05027 1.31585 8.93306 1.43306C8.81585 1.55027 8.75 1.70924 8.75 1.875V6.25H4.58C4.3725 6.25 4.1175 6.29625 3.87125 6.37375C3.62375 6.44875 3.3875 6.5525 3.22 6.66875L0.25125 8.95625C0.0825 9.07 0 9.2225 0 9.375C0 9.52625 0.0825 9.6775 0.25125 9.79375L3.22 12.0837C3.3875 12.1975 3.62375 12.3025 3.87125 12.3775C4.1175 12.4538 4.3725 12.5 4.58 12.5H8.75V23.125C8.75 23.2908 8.81585 23.4497 8.93306 23.5669C9.05027 23.6842 9.20924 23.75 9.375 23.75H10.625C10.7908 23.75 10.9497 23.6842 11.0669 23.5669C11.1842 23.4497 11.25 23.2908 11.25 23.125V1.875C11.25 1.70924 11.1842 1.55027 11.0669 1.43306C10.9497 1.31585 10.7908 1.25 10.625 1.25Z" fill="white"/>
</svg>
