<svg width="23" height="31" viewBox="0 0 23 31" fill="none" xmlns="http://www.w3.org/2000/svg">
<path d="M11.5007 14.7293C10.4785 14.7293 9.49814 14.3233 8.77534 13.6005C8.05255 12.8777 7.64648 11.8974 7.64648 10.8752C7.64648 9.85297 8.05255 8.87265 8.77534 8.14986C9.49814 7.42706 10.4785 7.021 11.5007 7.021C12.5228 7.021 13.5032 7.42706 14.226 8.14986C14.9488 8.87265 15.3548 9.85297 15.3548 10.8752C15.3548 11.3813 15.2551 11.8825 15.0614 12.3501C14.8677 12.8177 14.5839 13.2426 14.226 13.6005C13.8681 13.9584 13.4432 14.2423 12.9756 14.4359C12.508 14.6296 12.0068 14.7293 11.5007 14.7293ZM11.5007 0.0834961C8.63852 0.0834961 5.89362 1.22047 3.86979 3.2443C1.84596 5.26813 0.708984 8.01304 0.708984 10.8752C0.708984 18.9689 11.5007 30.9168 11.5007 30.9168C11.5007 30.9168 22.2923 18.9689 22.2923 10.8752C22.2923 8.01304 21.1553 5.26813 19.1315 3.2443C17.1077 1.22047 14.3628 0.0834961 11.5007 0.0834961Z" fill="#ABC8DE"/>
</svg>
