<svg width="25" height="25" viewBox="0 0 25 25" fill="none" xmlns="http://www.w3.org/2000/svg">
<g clip-path="url(#clip0_2901_7916)">
<path d="M7.39552 16.9718C7.39842 15.5189 7.88039 14.1074 8.76675 12.9562C9.65311 11.8049 10.8944 10.9781 12.2983 10.6038L9.02747 2.08293C8.97749 1.95117 8.88861 1.83773 8.77264 1.75768C8.65666 1.67764 8.51908 1.63477 8.37816 1.63477C8.23724 1.63477 8.09966 1.67764 7.98368 1.75768C7.86771 1.83773 7.77883 1.95117 7.72885 2.08293L1.43719 18.444C1.39665 18.5491 1.38227 18.6624 1.39527 18.7743C1.40828 18.8861 1.44828 18.9931 1.51184 19.086C1.57539 19.179 1.66059 19.2551 1.7601 19.3078C1.8596 19.3604 1.97043 19.3882 2.08302 19.3885H7.8608C7.55453 18.6195 7.39666 17.7995 7.39552 16.9718Z" fill="white"/>
<path d="M22.2221 6.94434H13.8888C13.7046 6.94434 13.528 7.0175 13.3977 7.14773C13.2675 7.27797 13.1943 7.4546 13.1943 7.63878V10.4166C14.097 10.3001 15.0139 10.3731 15.8868 10.6308C16.7596 10.8886 17.5692 11.3254 18.2637 11.9135C18.9583 12.5015 19.5227 13.2279 19.9209 14.0463C20.319 14.8647 20.5423 15.7571 20.5763 16.6666H22.2221C22.4063 16.6666 22.5829 16.5934 22.7132 16.4632C22.8434 16.3329 22.9166 16.1563 22.9166 15.9721V7.63878C22.9166 7.4546 22.8434 7.27797 22.7132 7.14773C22.5829 7.0175 22.4063 6.94434 22.2221 6.94434Z" fill="white"/>
<path d="M13.993 22.1803C16.8695 22.1803 19.2013 19.8485 19.2013 16.972C19.2013 14.0955 16.8695 11.7637 13.993 11.7637C11.1165 11.7637 8.78467 14.0955 8.78467 16.972C8.78467 19.8485 11.1165 22.1803 13.993 22.1803Z" fill="white"/>
</g>
<defs>
<clipPath id="clip0_2901_7916">
<rect width="25" height="25" fill="white"/>
</clipPath>
</defs>
</svg>
