<svg width="25" height="25" viewBox="0 0 25 25" fill="none" xmlns="http://www.w3.org/2000/svg">
<path d="M22.2874 8.23151C22.2877 8.22226 22.2902 8.21402 22.2902 8.20476C22.2895 7.96088 22.1991 7.72577 22.0362 7.54426L22.0412 7.54151L20.0737 4.13477C20.0392 3.99747 19.9597 3.8757 19.8478 3.78894C19.736 3.70219 19.5982 3.65547 19.4567 3.65626C19.4359 3.65626 19.4164 3.66026 19.3962 3.66226V3.65626H5.55519V3.65726C5.55194 3.65726 5.54869 3.65626 5.54544 3.65626C5.43345 3.65548 5.32344 3.6858 5.22765 3.74384C5.13187 3.80188 5.05408 3.88537 5.00294 3.98501L5.00094 3.98376L2.94794 7.54151L2.95169 7.54351C2.79548 7.72806 2.71013 7.96223 2.71094 8.20402C2.71094 8.21577 2.71394 8.22677 2.71444 8.23852V20.2913C2.71394 20.3033 2.71094 20.3145 2.71094 20.3268C2.71094 20.8978 3.16519 21.344 3.73469 21.3433C3.74544 21.3433 3.75544 21.3405 3.76594 21.3403H21.2334C21.2442 21.3405 21.2542 21.3433 21.2649 21.3433C21.8357 21.3433 22.2899 20.8978 22.2899 20.3278C22.2899 20.3188 22.2874 20.3108 22.2872 20.3018L22.2874 8.23151ZM15.8537 14.3728L12.7559 18.7303C12.6994 18.8098 12.6084 18.8565 12.5109 18.857H12.5099C12.4134 18.857 12.3222 18.8103 12.2657 18.7313L9.14794 14.3733C9.1157 14.3283 9.09651 14.2753 9.0925 14.2201C9.08848 14.1649 9.0998 14.1097 9.12519 14.0605C9.17719 13.9603 9.28019 13.897 9.39294 13.897H10.8512L10.8514 9.98352C10.8514 9.81677 10.9859 9.68226 11.1522 9.68226H13.8494C14.0157 9.68226 14.1504 9.81701 14.1504 9.98326V13.897H15.6079C15.6632 13.8971 15.7174 13.9123 15.7646 13.9411C15.8118 13.9699 15.8502 14.011 15.8755 14.0601C15.9009 14.1092 15.9123 14.1644 15.9084 14.2195C15.9046 14.2746 15.8856 14.3277 15.8537 14.3728ZM4.59444 7.18301L5.91019 4.90326H19.0777L20.3942 7.18301H4.59444Z" fill="white"/>
</svg>
