<svg width="12" height="11" viewBox="0 0 12 11" fill="none" xmlns="http://www.w3.org/2000/svg">
<path d="M2.4 6.11111C1.08 6.11111 0 7.21111 0 8.55556C0 9.9 1.08 11 2.4 11C3.72 11 4.8 9.9 4.8 8.55556C4.8 7.21111 3.72 6.11111 2.4 6.11111ZM6 0C4.68 0 3.6 1.1 3.6 2.44444C3.6 3.78889 4.68 4.88889 6 4.88889C7.32 4.88889 8.4 3.78889 8.4 2.44444C8.4 1.1 7.32 0 6 0ZM9.6 6.11111C8.28 6.11111 7.2 7.21111 7.2 8.55556C7.2 9.9 8.28 11 9.6 11C10.92 11 12 9.9 12 8.55556C12 7.21111 10.92 6.11111 9.6 6.11111Z" fill="#355EAB"/>
</svg>
