<svg width="24" height="25" viewBox="0 0 24 25" fill="none" xmlns="http://www.w3.org/2000/svg">
<path d="M17 10.9379V7.44215C17 7.17726 16.8946 6.92321 16.7071 6.7359C16.5196 6.54859 16.2652 6.44336 16 6.44336H4C3.73478 6.44336 3.48043 6.54859 3.29289 6.7359C3.10536 6.92321 3 7.17726 3 7.44215V17.4301C3 17.695 3.10536 17.949 3.29289 18.1363C3.48043 18.3237 3.73478 18.4289 4 18.4289H16C16.2652 18.4289 16.5196 18.3237 16.7071 18.1363C16.8946 17.949 17 17.695 17 17.4301V13.9343L21 17.9295V6.94276L17 10.9379Z" fill="white"/>
</svg>
