<svg width="25" height="25" viewBox="0 0 25 25" fill="none" xmlns="http://www.w3.org/2000/svg">
<path d="M12.5002 11.2474C11.8095 11.2474 11.1471 10.973 10.6587 10.4847C10.1704 9.99628 9.896 9.3339 9.896 8.64323C9.896 7.95256 10.1704 7.29018 10.6587 6.80181C11.1471 6.31343 11.8095 6.03906 12.5002 6.03906C13.1908 6.03906 13.8532 6.31343 14.3416 6.80181C14.83 7.29018 15.1043 7.95256 15.1043 8.64323C15.1043 8.98521 15.037 9.32385 14.9061 9.6398C14.7752 9.95575 14.5834 10.2428 14.3416 10.4847C14.0998 10.7265 13.8127 10.9183 13.4967 11.0492C13.1808 11.18 12.8421 11.2474 12.5002 11.2474ZM12.5002 1.35156C10.5663 1.35156 8.71163 2.11979 7.34418 3.48724C5.97672 4.8547 5.2085 6.70936 5.2085 8.64323C5.2085 14.112 12.5002 22.1849 12.5002 22.1849C12.5002 22.1849 19.7918 14.112 19.7918 8.64323C19.7918 6.70936 19.0236 4.8547 17.6561 3.48724C16.2887 2.11979 14.434 1.35156 12.5002 1.35156Z" fill="white"/>
</svg>
