<svg  viewBox="0 0 35 31" fill="none" xmlns="http://www.w3.org/2000/svg">
<path d="M17.4993 3.16683C16.4772 3.16683 15.6154 4.01166 15.6154 5.09391C15.6154 6.17616 16.4772 7.021 17.4993 7.021C18.5215 7.021 19.3833 6.17616 19.3833 5.09391C19.3833 4.01166 18.5215 3.16683 17.4993 3.16683ZM12.5321 5.09391C12.5321 2.34512 14.7367 0.0834961 17.4993 0.0834961C20.2605 0.0834961 22.4666 2.34512 22.4666 5.09391C22.4688 6.14725 22.139 7.17449 21.5241 8.02968C20.9091 8.88486 20.0403 9.52449 19.041 9.85766V11.1465L24.9749 14.6152V21.4865L26.236 22.1201C27.1351 21.3296 28.2917 20.8944 29.4889 20.896C32.2531 20.896 34.4577 23.1576 34.4577 25.9064C34.4577 28.6552 32.2516 30.9168 29.4904 30.9168C26.7293 30.9168 24.5232 28.6552 24.5232 25.9064C24.5232 25.5179 24.5664 25.1387 24.6496 24.7733L23.4887 24.1905L17.4993 27.6917L11.51 24.1921L10.3491 24.7748C10.4323 25.1387 10.4755 25.5179 10.4755 25.9064C10.4755 28.6552 8.27093 30.9168 5.50827 30.9168C2.74714 30.9168 0.541016 28.6552 0.541016 25.9064C0.541016 23.1576 2.74714 20.896 5.50827 20.896C6.75702 20.896 7.89477 21.3585 8.76427 22.1216L10.0238 21.488V14.6152L15.9577 11.1465V9.8592C14.9582 9.52595 14.0892 8.88609 13.4742 8.03059C12.8592 7.1751 12.5296 6.14751 12.5321 5.09391ZM17.4993 13.8167L13.1071 16.3851V21.5527L17.4993 24.1212L21.8916 21.5527V16.3851L17.4993 13.8167ZM7.05456 24.8026C6.88314 24.55 6.65274 24.343 6.3833 24.1996C6.11386 24.0561 5.81351 23.9805 5.50827 23.9793C4.48768 23.9793 3.62435 24.8242 3.62435 25.9064C3.62435 26.9887 4.48614 27.8335 5.50827 27.8335C6.53193 27.8335 7.39218 26.9887 7.39218 25.9064C7.39218 25.6813 7.35518 25.4655 7.28735 25.2651L7.05456 24.8026ZM27.7114 25.2697C27.6415 25.4747 27.6061 25.6898 27.6065 25.9064C27.6065 26.9887 28.4668 27.8335 29.4904 27.8335C30.5126 27.8335 31.3744 26.9887 31.3744 25.9064C31.3744 24.8242 30.5126 23.9793 29.4904 23.9793C28.8584 23.9793 28.2895 24.3015 27.9457 24.801L27.7114 25.2697Z" fill="#ABC8DE"/>
</svg>
