<svg width="12" height="9" viewBox="0 0 12 9" fill="none" xmlns="http://www.w3.org/2000/svg">
<path d="M9.33333 3.375V0.75C9.33333 0.551088 9.2631 0.360322 9.13807 0.21967C9.01305 0.0790178 8.84348 0 8.66667 0H0.666667C0.489856 0 0.320286 0.0790178 0.195262 0.21967C0.0702379 0.360322 0 0.551088 0 0.75V8.25C0 8.44891 0.0702379 8.63968 0.195262 8.78033C0.320286 8.92098 0.489856 9 0.666667 9H8.66667C8.84348 9 9.01305 8.92098 9.13807 8.78033C9.2631 8.63968 9.33333 8.44891 9.33333 8.25V5.625L12 8.625V0.375L9.33333 3.375Z" fill="#355EAB"/>
</svg>
