<svg width="25" height="25" viewBox="0 0 25 25" fill="none" xmlns="http://www.w3.org/2000/svg">
<path d="M11.4582 20.8815L19.9998 12.3398C20.5207 11.819 21.1457 11.5065 21.8748 11.5065C22.604 11.5065 23.229 11.819 23.7498 12.3398L23.9582 12.5482V4.11068C23.9582 2.96484 23.0207 2.02734 21.8748 2.02734H3.12484C1.979 2.02734 1.0415 2.96484 1.0415 4.11068V20.7773C1.0415 21.9232 1.979 22.8607 3.12484 22.8607H11.4582V20.8815ZM3.12484 4.11068H21.8748V7.23568H3.12484V4.11068ZM21.8748 13.5898C21.7707 13.5898 21.5623 13.694 21.4582 13.7982L20.4165 14.8398L22.604 17.0273L23.6457 15.9857C23.854 15.7773 23.854 15.3607 23.6457 15.1523L22.2915 13.7982C22.1873 13.694 22.0832 13.5898 21.8748 13.5898ZM19.8957 15.4648L13.5415 21.7148V23.9023H15.729L22.0832 17.5482L19.8957 15.4648Z" fill="white"/>
</svg>
