<svg width="14" height="14" viewBox="0 0 14 14" fill="none" xmlns="http://www.w3.org/2000/svg">
<path d="M13.6855 8.23207C13.8148 8.32343 13.9112 8.45119 13.9614 8.59757C14.0115 8.74395 14.0129 8.90168 13.9652 9.04883C13.635 10.0618 13.0732 10.9913 12.3209 11.7695C12.2123 11.8813 12.0703 11.9579 11.9144 11.989C11.7584 12.0201 11.5963 12.004 11.4503 11.943L10.4318 11.5141C10.3205 11.4666 10.1992 11.4447 10.0775 11.4501C9.95622 11.4569 9.83838 11.4912 9.73361 11.5501C9.62868 11.6084 9.53964 11.6897 9.4738 11.7873C9.40796 11.885 9.36719 11.9962 9.35483 12.1119L9.2324 13.1766C9.21476 13.3282 9.14873 13.4708 9.04333 13.585C8.93794 13.6992 8.79835 13.7793 8.64366 13.8144C7.56204 14.0619 6.43458 14.0619 5.35296 13.8144C5.19935 13.7788 5.06081 13.6988 4.95601 13.5853C4.85121 13.4718 4.78519 13.3302 4.76683 13.1796L4.64439 12.1169C4.62322 11.9358 4.53327 11.7686 4.3917 11.6471C4.28103 11.5534 4.14498 11.4918 3.99931 11.4692C3.85363 11.4467 3.70427 11.4641 3.56851 11.5196L2.54994 11.949C2.40435 12.01 2.24266 12.0262 2.08707 11.9955C1.93147 11.9648 1.78959 11.8887 1.68089 11.7775C0.92737 10.9985 0.364862 10.0678 0.0345049 9.05333C-0.0128617 8.90636 -0.0114293 8.7489 0.0386038 8.60275C0.0886369 8.45659 0.184795 8.32898 0.313766 8.23757L1.21251 7.60026C1.31071 7.53118 1.39057 7.44088 1.44562 7.33666C1.50067 7.23245 1.52936 7.11727 1.52936 7.00044C1.52936 6.88361 1.50067 6.76842 1.44562 6.66421C1.39057 6.56 1.31071 6.4697 1.21251 6.40061L0.313766 5.7643C0.185485 5.67339 0.0897428 5.54655 0.0397289 5.40126C-0.010285 5.25597 -0.0121101 5.09937 0.0345049 4.95304C0.364771 3.93943 0.927114 3.00951 1.68037 2.23134C1.75331 2.15586 1.84188 2.09588 1.94088 2.05589C2.0373 2.01671 2.14095 1.99652 2.24567 1.99652C2.35038 1.99652 2.45403 2.01671 2.55046 2.05589L3.56486 2.48477C3.67646 2.53076 3.79773 2.55103 3.91897 2.54398C4.0402 2.53692 4.15803 2.50272 4.26302 2.44413C4.368 2.38553 4.45722 2.30416 4.52354 2.20654C4.58986 2.10892 4.63142 1.99775 4.64491 1.88195L4.76787 0.821258C4.78575 0.668098 4.85298 0.524103 4.96019 0.40933C5.0674 0.294557 5.20925 0.214722 5.36599 0.180947C5.90446 0.0669703 6.4537 0.00633682 7.00508 0C7.55319 0.00599823 8.0992 0.0664804 8.63428 0.180947C8.79136 0.214487 8.93351 0.294459 9.04072 0.409598C9.14793 0.524737 9.21479 0.669242 9.23188 0.822758L9.35483 1.88245C9.36787 1.99808 9.40908 2.10914 9.47514 2.20666C9.54119 2.30418 9.63024 2.38543 9.73508 2.44382C9.83992 2.50221 9.95761 2.53612 10.0786 2.5428C10.1997 2.54948 10.3206 2.52874 10.4318 2.48227L11.4456 2.05389C11.5919 1.99286 11.7542 1.97672 11.9103 2.00768C12.0665 2.03865 12.2088 2.1152 12.3178 2.22684C13.0706 3.0042 13.6326 3.93329 13.9626 4.94604C14.0103 5.09288 14.009 5.25036 13.9589 5.39644C13.9087 5.54253 13.8122 5.66992 13.6829 5.7608L12.7867 6.39712C12.6881 6.46557 12.6078 6.55545 12.5524 6.6594C12.4969 6.76335 12.4679 6.87841 12.4677 6.99518C12.4675 7.11195 12.4961 7.2271 12.5512 7.33123C12.6063 7.43535 12.6863 7.52549 12.7846 7.59426L13.6855 8.23207ZM6.99987 8.99585C7.55259 8.99585 8.08268 8.7852 8.47351 8.41024C8.86434 8.03527 9.08391 7.52672 9.08391 6.99644C9.08391 6.46616 8.86434 5.9576 8.47351 5.58264C8.08268 5.20768 7.55259 4.99703 6.99987 4.99703C6.44715 4.99703 5.91707 5.20768 5.52624 5.58264C5.13541 5.9576 4.91584 6.46616 4.91584 6.99644C4.91584 7.52672 5.13541 8.03527 5.52624 8.41024C5.91707 8.7852 6.44715 8.99585 6.99987 8.99585Z" fill="#355EAB"/>
</svg>
