<svg  viewBox="0 0 27 31" fill="none" xmlns="http://www.w3.org/2000/svg">
<path d="M19.4505 3.76808V26.8931C19.4505 29.4677 21.208 30.9168 23.1351 30.9168C24.8926 30.9168 26.8197 29.6989 26.8197 26.8931V3.93766C26.8197 1.5635 25.0622 0.0834961 23.1351 0.0834961C21.208 0.0834961 19.4505 1.71766 19.4505 3.76808ZM9.8151 15.5002V26.8931C9.8151 29.4831 11.6034 30.9168 13.4997 30.9168C15.2572 30.9168 17.1843 29.6989 17.1843 26.8931V15.6697C17.1843 13.2956 15.4268 11.8156 13.4997 11.8156C11.5726 11.8156 9.8151 13.4497 9.8151 15.5002ZM3.86427 23.5631C5.89927 23.5631 7.54885 25.2127 7.54885 27.2322C7.54885 28.2095 7.16066 29.1466 6.46967 29.8376C5.77867 30.5286 4.84148 30.9168 3.86427 30.9168C2.88706 30.9168 1.94987 30.5286 1.25888 29.8376C0.567884 29.1466 0.179688 28.2095 0.179688 27.2322C0.179687 25.2127 1.82927 23.5631 3.86427 23.5631Z" fill="#ABC8DE"/>
</svg>
