<svg width="35" height="34" viewBox="0 0 35 34" fill="none" xmlns="http://www.w3.org/2000/svg">
<g filter="url(#filter0_d_587_2893)">
<path d="M25.3639 0.084961C26.2429 0.084853 27.0891 0.418416 27.7316 1.01824C28.374 1.61806 28.7648 2.43941 28.825 3.31629L28.8327 3.55217V19.1662C28.6477 19.2895 28.4704 19.4344 28.307 19.5978L23.0514 24.8518L21.6516 23.4489C21.0361 22.8318 20.2101 22.47 19.3391 22.436H23.0514C23.3581 22.436 23.6522 22.3142 23.869 22.0974C24.0859 21.8805 24.2077 21.5865 24.2077 21.2798C24.2077 20.9731 24.0859 20.679 23.869 20.4622C23.6522 20.2454 23.3581 20.1235 23.0514 20.1235H15.3369C15.0303 20.1235 14.7362 20.2454 14.5193 20.4622C14.3025 20.679 14.1807 20.9731 14.1807 21.2798C14.1807 21.5865 14.3025 21.8805 14.5193 22.0974C14.7362 22.3142 15.0303 22.436 15.3369 22.436H19.057C18.3838 22.4636 17.7332 22.6867 17.1847 23.0779C16.6361 23.4692 16.2134 24.0117 15.9682 24.6392C15.7229 25.2667 15.6657 25.9521 15.8036 26.6116C15.9414 27.2711 16.2684 27.8762 16.7445 28.353L19.3006 30.9168H7.63477C6.75582 30.9169 5.90961 30.5833 5.26715 29.9835C4.62468 29.3837 4.23388 28.5623 4.17372 27.6854L4.16602 27.448V3.55371C4.16591 2.67477 4.49947 1.82855 5.09929 1.18609C5.69912 0.543629 6.52047 0.152828 7.39735 0.0926695L7.63477 0.084961H25.3639ZM11.8743 8.94954C11.8743 8.54067 11.7119 8.14854 11.4228 7.85942C11.1337 7.5703 10.7416 7.40788 10.3327 7.40788C9.92381 7.40788 9.53168 7.5703 9.24256 7.85942C8.95344 8.14854 8.79102 8.54067 8.79102 8.94954C8.79102 9.35842 8.95344 9.75055 9.24256 10.0397C9.53168 10.3288 9.92381 10.4912 10.3327 10.4912C10.7416 10.4912 11.1337 10.3288 11.4228 10.0397C11.7119 9.75055 11.8743 9.35842 11.8743 8.94954ZM15.3369 7.79175C15.0303 7.79175 14.7362 7.91357 14.5193 8.13041C14.3025 8.34725 14.1807 8.64135 14.1807 8.948C14.1807 9.25466 14.3025 9.54876 14.5193 9.76559C14.7362 9.98243 15.0303 10.1043 15.3369 10.1043H23.0514C23.3581 10.1043 23.6522 9.98243 23.869 9.76559C24.0859 9.54876 24.2077 9.25466 24.2077 8.948C24.2077 8.64135 24.0859 8.34725 23.869 8.13041C23.6522 7.91357 23.3581 7.79175 23.0514 7.79175H15.3369ZM14.1807 15.1147C14.1807 15.7529 14.6987 16.2709 15.3369 16.2709H23.0514C23.2033 16.2709 23.3536 16.241 23.4939 16.1829C23.6342 16.1248 23.7617 16.0396 23.869 15.9323C23.9764 15.8249 24.0616 15.6974 24.1197 15.5571C24.1778 15.4169 24.2077 15.2665 24.2077 15.1147C24.2077 14.9628 24.1778 14.8125 24.1197 14.6722C24.0616 14.5319 23.9764 14.4044 23.869 14.2971C23.7617 14.1897 23.6342 14.1045 23.4939 14.0464C23.3536 13.9883 23.2033 13.9584 23.0514 13.9584H15.3369C15.0303 13.9584 14.7362 14.0802 14.5193 14.2971C14.3025 14.5139 14.1807 14.808 14.1807 15.1147ZM11.8743 15.1147C11.8743 14.7058 11.7119 14.3137 11.4228 14.0245C11.1337 13.7354 10.7416 13.573 10.3327 13.573C9.92381 13.573 9.53168 13.7354 9.24256 14.0245C8.95344 14.3137 8.79102 14.7058 8.79102 15.1147C8.79102 15.5235 8.95344 15.9157 9.24256 16.2048C9.53168 16.4939 9.92381 16.6563 10.3327 16.6563C10.7416 16.6563 11.1337 16.4939 11.4228 16.2048C11.7119 15.9157 11.8743 15.5235 11.8743 15.1147ZM11.8743 21.2783C11.8743 20.8694 11.7119 20.4773 11.4228 20.1881C11.1337 19.899 10.7416 19.7366 10.3327 19.7366C9.92381 19.7366 9.53168 19.899 9.24256 20.1881C8.95344 20.4773 8.79102 20.8694 8.79102 21.2783C8.79102 21.6871 8.95344 22.0793 9.24256 22.3684C9.53168 22.6575 9.92381 22.8199 10.3327 22.8199C10.7416 22.8199 11.1337 22.6575 11.4228 22.3684C11.7119 22.0793 11.8743 21.6871 11.8743 21.2783ZM23.0514 28.1248L29.9427 21.2335C30.0494 21.1232 30.177 21.0351 30.3181 20.9746C30.4592 20.9141 30.6109 20.8823 30.7645 20.881C30.918 20.8797 31.0702 20.9091 31.2123 20.9673C31.3544 21.0255 31.4834 21.1114 31.592 21.22C31.7005 21.3286 31.7863 21.4577 31.8443 21.5999C31.9024 21.742 31.9316 21.8943 31.9302 22.0478C31.9288 22.2013 31.8968 22.353 31.8361 22.4941C31.7755 22.6351 31.6873 22.7626 31.5768 22.8693L23.8685 30.5776C23.6517 30.7941 23.3578 30.9157 23.0514 30.9157C22.745 30.9157 22.4511 30.7941 22.2343 30.5776L18.3802 26.7219C18.1759 26.5027 18.0648 26.2128 18.07 25.9132C18.0753 25.6137 18.1967 25.3279 18.4085 25.116C18.6204 24.9042 18.9062 24.7829 19.2057 24.7776C19.5053 24.7723 19.7952 24.8835 20.0143 25.0877L23.0514 28.1248Z" fill="#ABC8DE"/>
<path d="M25.364 0.584961L25.3639 0.584961L7.64288 0.584961L7.42293 0.592102C6.67569 0.645555 5.97616 0.979564 5.46477 1.52731C4.95141 2.07716 4.66592 2.8014 4.66602 3.55365L4.66602 3.55371L4.66602 27.4399L4.67316 27.6598C4.72661 28.4071 5.06062 29.1066 5.60836 29.618C6.15822 30.1314 6.88245 30.4168 7.6347 30.4168H7.63477H18.096L16.3907 28.7063M16.3907 28.7063L16.3904 28.706C16.3905 28.7061 16.3906 28.7062 16.3907 28.7063Z" stroke="black"/>
</g>
<defs>
<filter id="filter0_d_587_2893" x="0.166016" y="0.0849609" width="35.7637" height="38.832" filterUnits="userSpaceOnUse" color-interpolation-filters="sRGB">
<feFlood flood-opacity="0" result="BackgroundImageFix"/>
<feColorMatrix in="SourceAlpha" type="matrix" values="0 0 0 0 0 0 0 0 0 0 0 0 0 0 0 0 0 0 127 0" result="hardAlpha"/>
<feOffset dy="4"/>
<feGaussianBlur stdDeviation="2"/>
<feComposite in2="hardAlpha" operator="out"/>
<feColorMatrix type="matrix" values="0 0 0 0 0 0 0 0 0 0 0 0 0 0 0 0 0 0 0.25 0"/>
<feBlend mode="normal" in2="BackgroundImageFix" result="effect1_dropShadow_587_2893"/>
<feBlend mode="normal" in="SourceGraphic" in2="effect1_dropShadow_587_2893" result="shape"/>
</filter>
</defs>
</svg>
