<svg width="37" height="37" viewBox="0 0 37 37" fill="none" xmlns="http://www.w3.org/2000/svg">
<path d="M9.25065 20.0417C5.85898 20.0417 3.08398 22.8167 3.08398 26.2083C3.08398 29.6 5.85898 32.375 9.25065 32.375C12.6423 32.375 15.4173 29.6 15.4173 26.2083C15.4173 22.8167 12.6423 20.0417 9.25065 20.0417ZM18.5007 4.625C15.109 4.625 12.334 7.4 12.334 10.7917C12.334 14.1833 15.109 16.9583 18.5007 16.9583C21.8923 16.9583 24.6673 14.1833 24.6673 10.7917C24.6673 7.4 21.8923 4.625 18.5007 4.625ZM27.7507 20.0417C24.359 20.0417 21.584 22.8167 21.584 26.2083C21.584 29.6 24.359 32.375 27.7507 32.375C31.1423 32.375 33.9173 29.6 33.9173 26.2083C33.9173 22.8167 31.1423 20.0417 27.7507 20.0417Z" fill="#ABC8DE"/>
</svg>
