<svg width="37" height="37" viewBox="0 0 37 37" fill="none" xmlns="http://www.w3.org/2000/svg">
<g clip-path="url(#clip0_587_2882)">
<path d="M10.9458 25.1192C10.9501 22.9689 11.6634 20.88 12.9753 19.1761C14.2871 17.4722 16.1242 16.2485 18.202 15.6945L13.3611 3.08369C13.2872 2.88869 13.1556 2.7208 12.984 2.60233C12.8123 2.48386 12.6087 2.42041 12.4001 2.42041C12.1916 2.42041 11.988 2.48386 11.8163 2.60233C11.6447 2.7208 11.5131 2.88869 11.4392 3.08369L2.12751 27.2981C2.06751 27.4536 2.04623 27.6213 2.06547 27.7868C2.08472 27.9524 2.14392 28.1107 2.23799 28.2483C2.33205 28.3858 2.45815 28.4985 2.60541 28.5764C2.75268 28.6544 2.9167 28.6954 3.08334 28.6959H11.6344C11.1812 27.5579 10.9475 26.3442 10.9458 25.1192Z" fill="#ABC8DE"/>
<path d="M32.8885 10.2778H20.5551C20.2825 10.2778 20.0211 10.3861 19.8284 10.5789C19.6356 10.7716 19.5273 11.033 19.5273 11.3056V15.4167C20.8632 15.2444 22.2204 15.3524 23.5122 15.7338C24.804 16.1153 26.0021 16.7618 27.0301 17.6322C28.0581 18.5025 28.8933 19.5776 29.4826 20.7888C30.0719 22 30.4023 23.3207 30.4526 24.6667H32.8885C33.161 24.6667 33.4225 24.5584 33.6152 24.3657C33.808 24.1729 33.9162 23.9115 33.9162 23.6389V11.3056C33.9162 11.033 33.808 10.7716 33.6152 10.5789C33.4225 10.3861 33.161 10.2778 32.8885 10.2778Z" fill="#ABC8DE"/>
<path d="M20.7103 32.8273C24.9675 32.8273 28.4186 29.3762 28.4186 25.119C28.4186 20.8618 24.9675 17.4106 20.7103 17.4106C16.4531 17.4106 13.002 20.8618 13.002 25.119C13.002 29.3762 16.4531 32.8273 20.7103 32.8273Z" fill="#ABC8DE"/>
</g>
<defs>
<clipPath id="clip0_587_2882">
<rect width="37" height="37" fill="white"/>
</clipPath>
</defs>
</svg>
