<svg width="33" height="33" viewBox="0 0 33 33" fill="none" xmlns="http://www.w3.org/2000/svg">
<path d="M16.5 0.3125C13.2984 0.3125 10.1687 1.26188 7.50671 3.04059C4.84469 4.81929 2.7699 7.34743 1.54471 10.3053C0.319514 13.2632 -0.00105271 16.518 0.623546 19.658C1.24814 22.7981 2.78985 25.6824 5.05372 27.9463C7.31758 30.2102 10.2019 31.7519 13.342 32.3765C16.4821 33.0011 19.7368 32.6805 22.6947 31.4553C25.6526 30.2301 28.1807 28.1553 29.9594 25.4933C31.7381 22.8313 32.6875 19.7016 32.6875 16.5C32.6875 12.2068 30.982 8.08945 27.9463 5.05371C24.9106 2.01796 20.7932 0.3125 16.5 0.3125ZM16.5 7.25C16.843 7.25 17.1784 7.35172 17.4636 7.54229C17.7488 7.73287 17.9711 8.00374 18.1024 8.32066C18.2336 8.63757 18.268 8.9863 18.2011 9.32273C18.1341 9.65917 17.969 9.96821 17.7264 10.2108C17.4838 10.4533 17.1748 10.6185 16.8384 10.6854C16.5019 10.7523 16.1532 10.718 15.8363 10.5867C15.5194 10.4555 15.2485 10.2332 15.0579 9.94794C14.8674 9.66273 14.7656 9.3274 14.7656 8.98438C14.7656 8.52439 14.9484 8.08324 15.2736 7.75799C15.5989 7.43273 16.04 7.25 16.5 7.25ZM21.125 25.8945H11.875V23.293H15.1992V16.6445H13.0313V14.043H17.8008V23.293H21.125V25.8945Z" fill="#ABC8DE"/>
</svg>
