<svg width="25" height="25" viewBox="0 0 25 25" fill="none" xmlns="http://www.w3.org/2000/svg">
<g clip-path="url(#clip0_2193_2482)">
<path d="M7.39552 16.9723C7.39842 15.5194 7.88039 14.1079 8.76675 12.9567C9.65311 11.8054 10.8944 10.9786 12.2983 10.6042L9.02747 2.08342C8.97749 1.95166 8.88861 1.83822 8.77264 1.75817C8.65666 1.67812 8.51908 1.63525 8.37816 1.63525C8.23724 1.63525 8.09966 1.67812 7.98368 1.75817C7.86771 1.83822 7.77883 1.95166 7.72885 2.08342L1.43719 18.4445C1.39665 18.5496 1.38227 18.6629 1.39527 18.7747C1.40828 18.8866 1.44828 18.9936 1.51184 19.0865C1.57539 19.1795 1.66059 19.2556 1.7601 19.3082C1.8596 19.3609 1.97043 19.3886 2.08302 19.389H7.8608C7.55453 18.62 7.39666 17.8 7.39552 16.9723Z" fill="#ABC8DE"/>
<path d="M22.2231 6.94434H13.8898C13.7056 6.94434 13.5289 7.0175 13.3987 7.14773C13.2685 7.27797 13.1953 7.4546 13.1953 7.63878V10.4166C14.0979 10.3001 15.0149 10.3731 15.8878 10.6308C16.7606 10.8886 17.5701 11.3254 18.2647 11.9135C18.9593 12.5015 19.5237 13.2279 19.9219 14.0463C20.32 14.8647 20.5432 15.7571 20.5773 16.6666H22.2231C22.4073 16.6666 22.5839 16.5934 22.7141 16.4632C22.8444 16.3329 22.9175 16.1563 22.9175 15.9721V7.63878C22.9175 7.4546 22.8444 7.27797 22.7141 7.14773C22.5839 7.0175 22.4073 6.94434 22.2231 6.94434Z" fill="#ABC8DE"/>
<path d="M13.9935 22.1808C16.87 22.1808 19.2018 19.849 19.2018 16.9725C19.2018 14.096 16.87 11.7642 13.9935 11.7642C11.117 11.7642 8.78516 14.096 8.78516 16.9725C8.78516 19.849 11.117 22.1808 13.9935 22.1808Z" fill="#ABC8DE"/>
</g>
<defs>
<clipPath id="clip0_2193_2482">
<rect width="25" height="25" fill="white"/>
</clipPath>
</defs>
</svg>
