<svg width="25" height="25" viewBox="0 0 25 25"  xmlns="http://www.w3.org/2000/svg">
<path d="M16.5208 4.57259V20.1976C16.5208 21.9372 17.7083 22.9163 19.0104 22.9163C20.1979 22.9163 21.5 22.0934 21.5 20.1976V4.68717C21.5 3.08301 20.3125 2.08301 19.0104 2.08301C17.7083 2.08301 16.5208 3.18717 16.5208 4.57259ZM10.0104 12.4997V20.1976C10.0104 21.9476 11.2188 22.9163 12.5 22.9163C13.6875 22.9163 14.9896 22.0934 14.9896 20.1976V12.6143C14.9896 11.0101 13.8021 10.0101 12.5 10.0101C11.1979 10.0101 10.0104 11.1143 10.0104 12.4997ZM5.98958 17.9476C7.36458 17.9476 8.47917 19.0622 8.47917 20.4268C8.47917 21.087 8.21687 21.7203 7.74998 22.1872C7.2831 22.654 6.64986 22.9163 5.98958 22.9163C5.3293 22.9163 4.69607 22.654 4.22918 22.1872C3.76229 21.7203 3.5 21.087 3.5 20.4268C3.5 19.0622 4.61458 17.9476 5.98958 17.9476Z" />
</svg>
