<svg width="37" height="35" viewBox="0 0 37 35" fill="none" xmlns="http://www.w3.org/2000/svg">
<path d="M36.6282 8.55535L32.2344 5.16985C31.9358 4.97817 31.6112 4.83051 31.2705 4.7314C30.9313 4.62159 30.5781 4.56054 30.2216 4.5501H17.575L19.0569 13.8001H30.2216C30.525 13.8001 30.9043 13.7316 31.2687 13.6188C31.6332 13.5059 31.9847 13.3505 32.2326 13.1822L36.6263 9.793C36.8761 9.62465 37 9.4008 37 9.1751C37 8.9494 36.876 8.72555 36.6282 8.55535ZM15.725 0.850098H13.875C13.6297 0.850098 13.3944 0.947553 13.2209 1.12102C13.0475 1.29449 12.95 1.52977 12.95 1.7751V8.2501H6.7784C6.4713 8.2501 6.0939 8.31855 5.72945 8.43325C5.36315 8.54425 5.0135 8.6978 4.7656 8.86985L0.37185 12.2553C0.1221 12.4237 0 12.6494 0 12.8751C0 13.0989 0.1221 13.3228 0.37185 13.4948L4.7656 16.884C5.0135 17.0524 5.36315 17.2078 5.72945 17.3188C6.0939 17.4316 6.4713 17.5001 6.7784 17.5001H12.95V33.2251C12.95 33.4704 13.0475 33.7057 13.2209 33.8792C13.3944 34.0526 13.6297 34.1501 13.875 34.1501H15.725C15.9703 34.1501 16.2056 34.0526 16.3791 33.8792C16.5525 33.7057 16.65 33.4704 16.65 33.2251V1.7751C16.65 1.52977 16.5525 1.29449 16.3791 1.12102C16.2056 0.947553 15.9703 0.850098 15.725 0.850098Z" fill="#ABC8DE"/>
</svg>
