<svg width="20" height="20" viewBox="4 1 20 20" fill="none" xmlns="http://www.w3.org/2000/svg">
<g filter="url(#filter0_d_5086_14287)">
<path d="M19.8392 3.23944L17.9392 1.81611C17.8101 1.73553 17.6697 1.67345 17.5224 1.63178C17.3757 1.58561 17.223 1.55995 17.0688 1.55556H11.6L12.2408 5.44444H17.0688C17.2 5.44444 17.364 5.41567 17.5216 5.36822C17.6792 5.32078 17.8312 5.25544 17.9384 5.18467L19.8384 3.75978C19.9464 3.689 20 3.59489 20 3.5C20 3.40511 19.9464 3.311 19.8392 3.23944ZM10.8 0H10C9.89391 0 9.79217 0.0409721 9.71716 0.113903C9.64214 0.186834 9.6 0.285749 9.6 0.388889V3.11111H6.9312C6.7984 3.11111 6.6352 3.13989 6.4776 3.18811C6.3192 3.23478 6.168 3.29933 6.0608 3.37167L4.1608 4.795C4.0528 4.86578 4 4.96067 4 5.05556C4 5.14967 4.0528 5.24378 4.1608 5.31611L6.0608 6.741C6.168 6.81178 6.3192 6.87711 6.4776 6.92378C6.6352 6.97122 6.7984 7 6.9312 7H9.6V13.6111C9.6 13.7143 9.64214 13.8132 9.71716 13.8861C9.79217 13.959 9.89391 14 10 14H10.8C10.9061 14 11.0078 13.959 11.0828 13.8861C11.1579 13.8132 11.2 13.7143 11.2 13.6111V0.388889C11.2 0.285749 11.1579 0.186834 11.0828 0.113903C11.0078 0.0409721 10.9061 0 10.8 0Z" fill="#355EAB"/>
</g>
<defs>
<filter id="filter0_d_5086_14287" x="0" y="0" width="24" height="22" filterUnits="userSpaceOnUse" color-interpolation-filters="sRGB">
<feFlood flood-opacity="0" result="BackgroundImageFix"/>
<feColorMatrix in="SourceAlpha" type="matrix" values="0 0 0 0 0 0 0 0 0 0 0 0 0 0 0 0 0 0 127 0" result="hardAlpha"/>
<feOffset dy="4"/>
<feGaussianBlur stdDeviation="2"/>
<feComposite in2="hardAlpha" operator="out"/>
<feColorMatrix type="matrix" values="0 0 0 0 0 0 0 0 0 0 0 0 0 0 0 0 0 0 0.25 0"/>
<feBlend mode="normal" in2="BackgroundImageFix" result="effect1_dropShadow_5086_14287"/>
<feBlend mode="normal" in="SourceGraphic" in2="effect1_dropShadow_5086_14287" result="shape"/>
</filter>
</defs>
</svg>
