<svg width="31" height="31" viewBox="0 0 31 31" fill="none" xmlns="http://www.w3.org/2000/svg">
<path d="M5.22233 4.00694C6.8052 2.58904 8.66439 1.51406 10.6829 0.849609C11.2599 1.57297 11.9926 2.15695 12.8264 2.55811C13.6602 2.95928 14.5738 3.16731 15.4991 3.16673C16.4243 3.16749 17.3377 2.9597 18.1715 2.55881C19.0053 2.15791 19.7381 1.57423 20.3152 0.851151C22.3338 1.5156 24.193 2.59058 25.7758 4.00848C25.439 4.86943 25.3004 5.79518 25.3703 6.71702C25.4402 7.63887 25.7169 8.53312 26.1797 9.3334C26.6416 10.1352 27.2783 10.8226 28.0425 11.3444C28.8066 11.8662 29.6786 12.209 30.5935 12.3474C31.0263 14.4269 31.0263 16.5732 30.5935 18.6528C28.8052 18.9272 27.1556 19.9786 26.1797 21.6667C25.7167 22.4672 25.4399 23.3617 25.3699 24.2839C25.3 25.206 25.4387 26.132 25.7758 26.9932C24.1929 28.4106 22.3337 29.4851 20.3152 30.149C19.7381 29.4259 19.0053 28.8422 18.1715 28.4413C17.3377 28.0404 16.4243 27.8326 15.4991 27.8334C14.5738 27.8328 13.6602 28.0409 12.8264 28.442C11.9926 28.8432 11.2599 29.4272 10.6829 30.1505C8.66435 29.4862 6.80515 28.4112 5.22233 26.9932C5.55953 26.1321 5.69832 25.206 5.62839 24.2839C5.55846 23.3617 5.28161 22.4672 4.81841 21.6667C4.35636 20.8652 3.71959 20.1781 2.95544 19.6566C2.19128 19.1351 1.31941 18.7925 0.404621 18.6543C-0.0281027 16.5743 -0.0281027 14.4274 0.404621 12.3474C1.31955 12.209 2.19151 11.8662 2.95567 11.3444C3.71984 10.8226 4.35653 10.1352 4.81841 9.3334C5.28127 8.53312 5.55792 7.63887 5.62785 6.71702C5.69778 5.79518 5.55917 4.86788 5.22233 4.00694ZM17.8116 19.5038C18.3418 19.2023 18.8072 18.7989 19.1809 18.3169C19.5546 17.8348 19.8293 17.2836 19.9891 16.695C20.1489 16.1063 20.1907 15.4919 20.1121 14.887C20.0334 14.2822 19.836 13.6989 19.531 13.1706C19.226 12.6424 18.8196 12.1797 18.335 11.8092C17.8505 11.4387 17.2975 11.1677 16.7078 11.0118C16.1181 10.8559 15.5034 10.8182 14.8991 10.9008C14.2948 10.9835 13.7128 11.1848 13.1866 11.4933C12.133 12.1109 11.3664 13.1203 11.0543 14.301C10.7421 15.4818 10.9096 16.7381 11.5203 17.7957C12.131 18.8534 13.1352 19.6266 14.3139 19.9466C15.4925 20.2666 16.7499 20.1074 17.8116 19.5038Z" fill="#ABC8DE"/>
</svg>
