<svg width="24" height="20" viewBox="0 0 24 20" fill="none" xmlns="http://www.w3.org/2000/svg">
<path fill-rule="evenodd" clip-rule="evenodd" d="M14.1019 1.66602C14.4907 1.66611 14.8697 1.77625 15.1851 1.98086C15.5005 2.18546 15.7363 2.47414 15.8592 2.80602L16.3622 4.16602H19.4007C19.6464 4.16602 19.882 4.25381 20.0558 4.41009C20.2295 4.56637 20.3271 4.77834 20.3271 4.99935C20.3271 5.22036 20.2295 5.43232 20.0558 5.5886C19.882 5.74488 19.6464 5.83268 19.4007 5.83268L19.3979 5.89185L18.5948 16.011C18.5447 16.6415 18.2309 17.2315 17.7166 17.6623C17.2023 18.0931 16.5258 18.3326 15.8231 18.3327H8.15638C7.45369 18.3326 6.77711 18.0931 6.26284 17.6623C5.74857 17.2315 5.43479 16.6415 5.38467 16.011L4.5815 5.89102C4.57982 5.87161 4.5789 5.85215 4.57872 5.83268C4.33303 5.83268 4.0974 5.74488 3.92367 5.5886C3.74994 5.43232 3.65234 5.22036 3.65234 4.99935C3.65234 4.77834 3.74994 4.56637 3.92367 4.41009C4.0974 4.25381 4.33303 4.16602 4.57872 4.16602H7.61723L8.12025 2.80602C8.24318 2.47401 8.47916 2.18523 8.79474 1.98061C9.11033 1.776 9.4895 1.66593 9.87851 1.66602H14.1019ZM9.2106 8.33268C8.9837 8.33271 8.7647 8.40765 8.59514 8.54328C8.42558 8.67891 8.31725 8.86581 8.29071 9.06852L8.28422 9.16602V14.166C8.28448 14.3784 8.37489 14.5827 8.53698 14.7372C8.69907 14.8916 8.9206 14.9845 9.15631 14.997C9.39201 15.0094 9.62411 14.9405 9.80517 14.8041C9.98624 14.6678 10.1026 14.4744 10.1305 14.2635L10.137 14.166V9.16602C10.137 8.945 10.0394 8.73304 9.86564 8.57676C9.69191 8.42048 9.45629 8.33268 9.2106 8.33268ZM14.7688 8.33268C14.5232 8.33268 14.2875 8.42048 14.1138 8.57676C13.9401 8.73304 13.8425 8.945 13.8425 9.16602V14.166C13.8425 14.387 13.9401 14.599 14.1138 14.7553C14.2875 14.9116 14.5232 14.9993 14.7688 14.9993C15.0145 14.9993 15.2502 14.9116 15.4239 14.7553C15.5976 14.599 15.6952 14.387 15.6952 14.166V9.16602C15.6952 8.945 15.5976 8.73304 15.4239 8.57676C15.2502 8.42048 15.0145 8.33268 14.7688 8.33268ZM14.1019 3.33268H9.87759L9.5691 4.16602H14.4103L14.1019 3.33268Z" fill="#01354A" fill-opacity="0.67"/>
</svg>
