<svg width="22" height="18" viewBox="0 0 22 18" fill="none" xmlns="http://www.w3.org/2000/svg">
<path d="M17.7963 1.5H6.84845C5.98599 1.5 5.28194 2.1 5.28194 2.835V12.165C5.28194 12.9 5.98599 13.5 6.84845 13.5H17.7963C18.6588 13.5 19.3629 12.9075 19.3629 12.165V2.835C19.3629 2.1 18.6588 1.5 17.7963 1.5ZM9.73503 11.25H7.92211V9.705L13.2553 5.16L15.0682 6.705L9.73503 11.25ZM16.4587 5.5125L15.5786 6.2625L13.7745 4.725L14.6545 3.975C14.8394 3.81 15.1474 3.81 15.3322 3.975L16.4587 4.935C16.6523 5.0925 16.6523 5.355 16.4587 5.5125ZM3.52183 4.5H1.76172V15C1.76172 15.3978 1.94716 15.7794 2.27724 16.0607C2.60733 16.342 3.05502 16.5 3.52183 16.5H15.8426V15H3.52183V4.5Z" fill="#03163B"/>
</svg>
