<svg  viewBox="0 0 30 30" fill="none" xmlns="http://www.w3.org/2000/svg">
<path d="M12.5 2.5L9.5 6.75C10.5 6.5 11.5 6.25 12.5 6.25C13.5 6.25 14.5 6.5 15.5 6.75M23.75 6.25C22.3625 6.25 21.25 7.3625 21.25 8.75V17.2C20.45 17.9125 20 18.9375 20 20C20 22.075 21.675 23.75 23.75 23.75C25.825 23.75 27.5 22.075 27.5 20C27.5 18.9375 27.05 17.9125 26.25 17.2125V8.75C26.25 7.3625 25.1375 6.25 23.75 6.25ZM23.75 7.5C24.4375 7.5 25 8.0625 25 8.75V10H22.5V8.75C22.5 8.0625 23.0625 7.5 23.75 7.5ZM6.875 8.375L1.625 8.75L3.875 13.5C4 12.5 4.375 11.5 4.875 10.625C5.5 9.75 6.125 9 6.875 8.375ZM12.5 8.75C9 8.75 6.25 11.5 6.25 15C6.25 18.5 9 21.25 12.5 21.25C16 21.25 18.75 18.5 18.75 15C18.75 11.5 16 8.75 12.5 8.75ZM4 16.5L1.75 21.25L6.875 21.75C6.25 21.125 5.5 20.25 5 19.375C4.375 18.5 4.125 17.5 4 16.5ZM9.5 23.25L12.5 27.5L15.5 23.25C14.5 23.5 13.5 23.75 12.5 23.75C11.375 23.75 10.375 23.5 9.5 23.25Z" fill="#03163B"/>
</svg>
