<svg width="27" height="30" viewBox="0 0 27 30" fill="none" xmlns="http://www.w3.org/2000/svg">
<g clip-path="url(#clip0_2951_7541)">
<path d="M7.81264 23.25C8.7427 23.25 9.53325 22.8854 10.1843 22.1562C10.8353 21.4271 11.1609 20.5417 11.1609 19.5V12C11.1609 11.6458 11.268 11.3492 11.4823 11.11C11.6966 10.8708 11.9615 10.7508 12.2769 10.75C12.5931 10.75 12.8584 10.87 13.0727 11.11C13.287 11.35 13.3937 11.6467 13.393 12V19.5C13.393 20.5417 13.7185 21.4271 14.3696 22.1562C15.0206 22.8854 15.8112 23.25 16.7412 23.25C17.6713 23.25 18.4618 22.8854 19.1129 22.1562C19.7639 21.4271 20.0894 20.5417 20.0894 19.5V10.75C20.0894 10.3958 20.1966 10.0988 20.4109 9.85875C20.6251 9.61875 20.89 9.49917 21.2055 9.5H22.5169L21.2055 10.9375L22.768 12.7188L26.7859 8.25L22.768 3.75L21.2055 5.53125L22.5169 7H21.2055C20.2754 7 19.4849 7.36458 18.8338 8.09375C18.1828 8.82292 17.8573 9.70833 17.8573 10.75V19.5C17.8573 19.8542 17.7501 20.1512 17.5359 20.3913C17.3216 20.6313 17.0567 20.7508 16.7412 20.75C16.425 20.75 16.1597 20.63 15.9455 20.39C15.7312 20.15 15.6244 19.8533 15.6251 19.5V12C15.6251 10.9583 15.2996 10.0729 14.6486 9.34375C13.9975 8.61458 13.207 8.25 12.2769 8.25C11.3469 8.25 10.5563 8.61458 9.90528 9.34375C9.25423 10.0729 8.92871 10.9583 8.92871 12V19.5C8.92871 19.8542 8.82157 20.1512 8.60728 20.3913C8.393 20.6313 8.12812 20.7508 7.81264 20.75C7.49642 20.75 7.23117 20.63 7.01688 20.39C6.8026 20.15 6.69583 19.8533 6.69657 19.5V8.25H4.46443V19.5C4.46443 20.5417 4.78995 21.4271 5.44099 22.1562C6.09203 22.8854 6.88258 23.25 7.81264 23.25ZM3.34836 27C2.73452 27 2.20885 26.755 1.77135 26.265C1.33385 25.775 1.11547 25.1867 1.11621 24.5V14.5H25.6698V24.5C25.6698 25.1875 25.451 25.7763 25.0135 26.2663C24.576 26.7563 24.0507 27.0008 23.4376 27H3.34836Z" fill="#03163B"/>
</g>
<defs>
<clipPath id="clip0_2951_7541">
<rect width="26.7857" height="30" fill="white"/>
</clipPath>
</defs>
</svg>
