<svg  viewBox="0 0 51 38" fill="none" xmlns="http://www.w3.org/2000/svg">
<path d="M13.459 31.2C15.2993 31.2 16.8635 30.6167 18.1517 29.45C19.4399 28.2833 20.084 26.8667 20.084 25.2V13.2C20.084 12.6333 20.296 12.1587 20.72 11.776C21.144 11.3933 21.6681 11.2013 22.2923 11.2C22.918 11.2 23.4429 11.392 23.8669 11.776C24.2909 12.16 24.5021 12.6347 24.5007 13.2V25.2C24.5007 26.8667 25.1448 28.2833 26.4329 29.45C27.7211 30.6167 29.2854 31.2 31.1257 31.2C32.9659 31.2 34.5302 30.6167 35.8184 29.45C37.1066 28.2833 37.7507 26.8667 37.7507 25.2V11.2C37.7507 10.6333 37.9627 10.158 38.3867 9.774C38.8107 9.39 39.3348 9.19867 39.959 9.2H42.5538L39.959 11.5L43.0507 14.35L51.0007 7.2L43.0507 0L39.959 2.85L42.5538 5.2H39.959C38.1187 5.2 36.5545 5.78333 35.2663 6.95C33.9781 8.11667 33.334 9.53333 33.334 11.2V25.2C33.334 25.7667 33.122 26.242 32.698 26.626C32.274 27.01 31.7499 27.2013 31.1257 27.2C30.5 27.2 29.9751 27.008 29.5511 26.624C29.1271 26.24 28.9158 25.7653 28.9173 25.2V13.2C28.9173 11.5333 28.2732 10.1167 26.985 8.95C25.6968 7.78333 24.1326 7.2 22.2923 7.2C20.452 7.2 18.8878 7.78333 17.5996 8.95C16.3114 10.1167 15.6673 11.5333 15.6673 13.2V25.2C15.6673 25.7667 15.4553 26.242 15.0313 26.626C14.6073 27.01 14.0832 27.2013 13.459 27.2C12.8333 27.2 12.3084 27.008 11.8844 26.624C11.4604 26.24 11.2492 25.7653 11.2507 25.2V7.2H6.83399V25.2C6.83399 26.8667 7.47809 28.2833 8.76628 29.45C10.0545 30.6167 11.6187 31.2 13.459 31.2ZM4.62565 37.2C3.41107 37.2 2.37095 36.808 1.50528 36.024C0.639613 35.24 0.207516 34.2987 0.208988 33.2V17.2H48.7923V33.2C48.7923 34.3 48.3595 35.242 47.4938 36.026C46.6282 36.81 45.5888 37.2013 44.3757 37.2H4.62565Z" fill="#01354A"/>
</svg>
