<svg xmlns="http://www.w3.org/2000/svg" version="1.1" width="30" height="30">
<svg  fill="none">
<path d="M15.584 40.0827C14.1204 40.0827 13.0086 39.5846 12.2486 38.5885C11.4887 37.5923 11.1081 36.4585 11.107 35.1869C11.107 34.3382 11.2723 33.5138 11.6029 32.7135C11.9335 31.9132 12.4426 31.2526 13.1303 30.7316C13.7617 30.2747 14.2713 29.6872 14.6594 28.9691C15.0474 28.2511 15.3125 27.4841 15.4549 26.6681L14.9383 26.3744C14.7661 26.2764 14.6083 26.1622 14.4648 26.0316L10.5043 27.6473C10.0164 27.8431 9.54291 28.0063 9.08373 28.1369C8.62454 28.2674 8.15101 28.3327 7.66313 28.3327C5.8551 28.3327 4.25485 27.4351 2.86238 25.64C1.46991 23.8448 0.774244 21.2174 0.775392 17.7577C0.775392 16.0931 1.21334 14.8287 2.08923 13.9644C2.96512 13.1001 3.9472 12.6673 5.03546 12.666C5.78163 12.666 6.51345 12.854 7.23093 13.23C7.9484 13.606 8.53673 14.185 8.99591 14.9671C9.39769 15.6851 9.91427 16.2641 10.5456 16.7041C11.177 17.1441 11.8514 17.4463 12.5689 17.6108L12.8272 17.0233C12.9133 16.8275 13.0138 16.648 13.1286 16.4848L11.708 11.9806C11.5358 11.4257 11.3923 10.8872 11.2775 10.365C11.1627 9.84275 11.1053 9.32053 11.1053 8.79831C11.1053 6.70942 11.8945 4.87316 13.4729 3.28952C15.0514 1.70588 17.3622 0.914712 20.4054 0.916017C21.8691 0.916017 22.9815 1.41409 23.7426 2.41023C24.5037 3.40636 24.8836 4.52327 24.8825 5.76093C24.8825 6.60954 24.7172 7.44184 24.3866 8.25781C24.0559 9.07378 23.5468 9.74288 22.8592 10.2651C22.2278 10.722 21.7187 11.3095 21.3318 12.0276C20.945 12.7457 20.6792 13.5127 20.5346 14.3286L21.0512 14.6224C21.2234 14.7203 21.3812 14.8345 21.5247 14.9651L25.4852 13.3005C25.973 13.1047 26.4397 12.95 26.8851 12.8364C27.3305 12.7228 27.7966 12.666 28.2833 12.666C30.6079 12.666 32.3442 13.7594 33.4921 15.9462C34.6401 18.133 35.2141 20.5646 35.2141 23.241C35.2141 24.9056 34.7549 26.1707 33.8365 27.0363C32.9182 27.9019 31.8994 28.334 30.7801 28.3327C30.0626 28.3327 29.3664 28.1447 28.6914 27.7687C28.0164 27.3927 27.4499 26.8137 26.9918 26.0316C26.5901 25.3136 26.0735 24.7346 25.4421 24.2946C24.8107 23.8546 24.1363 23.5524 23.4188 23.3879L23.1605 23.9754C23.0744 24.1712 22.974 24.3507 22.8592 24.5139L24.2798 29.0181C24.452 29.5403 24.5955 30.0384 24.7103 30.5123C24.8251 30.9862 24.8825 31.4836 24.8825 32.0046C24.9112 34.1261 24.1363 36.0028 22.5579 37.6348C20.9794 39.2667 18.6548 40.0827 15.584 40.0827ZM17.9947 23.4369C18.7122 23.4369 19.3223 23.1509 19.8252 22.5791C20.328 22.0073 20.5788 21.314 20.5776 20.4994C20.5776 19.6834 20.3262 18.9895 19.8234 18.4176C19.3206 17.8458 18.7111 17.5605 17.9947 17.5619C17.2773 17.5619 16.6671 17.8478 16.1643 18.4196C15.6615 18.9914 15.4107 19.6847 15.4118 20.4994C15.4118 21.3153 15.6632 22.0092 16.166 22.5811C16.6688 23.1529 17.2784 23.4382 17.9947 23.4369Z" fill="#03163B"/>
</svg>
</svg>
