<svg width="32" height="32" viewBox="0 0 32 32" fill="none" xmlns="http://www.w3.org/2000/svg">
<path d="M5.5 20.5H10C11.1935 20.5 12.3381 20.9741 13.182 21.818C14.0259 22.6619 14.5 23.8065 14.5 25C14.5 26.1935 14.0259 27.3381 13.182 28.182C12.3381 29.0259 11.1935 29.5 10 29.5H5.5V20.5Z" stroke="#03163B" stroke-width="2" stroke-linejoin="round"/>
<path d="M5.5 19V31M1 22H5.5M1 26.5H5.5M14.5 25H20.5C20.8978 25 21.2794 24.842 21.5607 24.5607C21.842 24.2794 22 23.8978 22 23.5V15.25M22 1V6.25M15.1592 3.90925L18.3408 7.09075M15.1592 16.8408L18.3408 13.6592M28.8407 3.90925L25.66 7.09M28.8407 16.8408L25.66 13.66" stroke="#03163B" stroke-width="2" stroke-linecap="round" stroke-linejoin="round"/>
<path d="M22 15.25C24.4853 15.25 26.5 13.2353 26.5 10.75C26.5 8.26472 24.4853 6.25 22 6.25C19.5147 6.25 17.5 8.26472 17.5 10.75C17.5 13.2353 19.5147 15.25 22 15.25Z" stroke="#03163B" stroke-width="2"/>
<path d="M13 10.75H17.5M26.5 10.75H31" stroke="#03163B" stroke-width="2" stroke-linecap="round" stroke-linejoin="round"/>
</svg>
