<svg  viewBox="0 0 40 40" fill="none" xmlns="http://www.w3.org/2000/svg">
<path d="M17.2 40C15.5 40 14.2087 39.4913 13.326 38.474C12.4433 37.4567 12.0013 36.2987 12 35C12 34.1333 12.192 33.2913 12.576 32.474C12.96 31.6567 13.5513 30.982 14.35 30.45C15.0833 29.9833 15.6753 29.3833 16.126 28.65C16.5767 27.9167 16.8847 27.1333 17.05 26.3L16.45 26C16.25 25.9 16.0667 25.7833 15.9 25.65L11.3 27.3C10.7333 27.5 10.1833 27.6667 9.65 27.8C9.11667 27.9333 8.56667 28 8 28C5.9 28 4.04133 27.0833 2.424 25.25C0.806668 23.4167 -0.00133169 20.7333 1.64745e-06 17.2C1.64745e-06 15.5 0.508668 14.2087 1.526 13.326C2.54333 12.4433 3.684 12.0013 4.948 12C5.81467 12 6.66467 12.192 7.498 12.576C8.33134 12.96 9.01467 13.5513 9.548 14.35C10.0147 15.0833 10.6147 15.6747 11.348 16.124C12.0813 16.5733 12.8647 16.882 13.698 17.05L13.998 16.45C14.098 16.25 14.2147 16.0667 14.348 15.9L12.698 11.3C12.498 10.7333 12.3313 10.1833 12.198 9.65C12.0647 9.11667 11.998 8.58334 11.998 8.05C11.998 5.91667 12.9147 4.04133 14.748 2.424C16.5813 0.806668 19.2653 -0.00133169 22.8 1.64745e-06C24.5 1.64745e-06 25.792 0.508668 26.676 1.526C27.56 2.54333 28.0013 3.684 28 4.948C28 5.81467 27.808 6.66467 27.424 7.498C27.04 8.33134 26.4487 9.01467 25.65 9.548C24.9167 10.0147 24.3253 10.6147 23.876 11.348C23.4267 12.0813 23.118 12.8647 22.95 13.698L23.55 13.998C23.75 14.098 23.9333 14.2147 24.1 14.348L28.7 12.648C29.2667 12.448 29.8087 12.29 30.326 12.174C30.8433 12.058 31.3847 12 31.95 12C34.65 12 36.6667 13.1167 38 15.35C39.3333 17.5833 40 20.0667 40 22.8C40 24.5 39.4667 25.792 38.4 26.676C37.3333 27.56 36.15 28.0013 34.85 28C34.0167 28 33.208 27.808 32.424 27.424C31.64 27.04 30.982 26.4487 30.45 25.65C29.9833 24.9167 29.3833 24.3253 28.65 23.876C27.9167 23.4267 27.1333 23.118 26.3 22.95L26 23.55C25.9 23.75 25.7833 23.9333 25.65 24.1L27.3 28.7C27.5 29.2333 27.6667 29.742 27.8 30.226C27.9333 30.71 28 31.218 28 31.75C28.0333 33.9167 27.1333 35.8333 25.3 37.5C23.4667 39.1667 20.7667 40 17.2 40ZM20 23C20.8333 23 21.542 22.708 22.126 22.124C22.71 21.54 23.0013 20.832 23 20C23 19.1667 22.708 18.458 22.124 17.874C21.54 17.29 20.832 16.9987 20 17C19.1667 17 18.458 17.292 17.874 17.876C17.29 18.46 16.9987 19.168 17 20C17 20.8333 17.292 21.542 17.876 22.126C18.46 22.71 19.168 23.0013 20 23Z" fill="#01354A"/>
</svg>
