<svg  viewBox="0 0 45 41" fill="none" xmlns="http://www.w3.org/2000/svg">
<path d="M21.4752 36.8L32.2416 17.34H24.7981V4.79999L13.7216 24.26H21.4752V36.8ZM22.5828 0.799988C28.6749 0.799988 33.8809 2.79999 38.2008 6.69999C42.5206 10.6 44.736 15.3 44.736 20.8C44.736 26.3 42.5206 31 38.2008 34.9C33.8809 38.8 28.6749 40.8 22.5828 40.8C16.4907 40.8 11.2847 38.8 6.96486 34.9C2.645 31 0.429688 26.3 0.429688 20.8C0.429688 15.3 2.645 10.6 6.96486 6.69999C11.2847 2.79999 16.4907 0.799988 22.5828 0.799988Z" fill="#01354A"/>
</svg>
