<svg  viewBox="0 0 44 40" fill="none" xmlns="http://www.w3.org/2000/svg">
<path d="M18.834 0.833313L13.834 7.34998C15.5007 6.96665 17.1673 6.58331 18.834 6.58331C20.5007 6.58331 22.1673 6.96665 23.834 7.34998M37.584 6.58331C35.2715 6.58331 33.4173 8.28915 33.4173 10.4166V23.3733C32.084 24.4658 31.334 26.0375 31.334 27.6666C31.334 30.8483 34.1257 33.4166 37.584 33.4166C41.0423 33.4166 43.834 30.8483 43.834 27.6666C43.834 26.0375 43.084 24.4658 41.7507 23.3925V10.4166C41.7507 8.28915 39.8965 6.58331 37.584 6.58331ZM37.584 8.49998C38.7298 8.49998 39.6673 9.36248 39.6673 10.4166V12.3333H35.5007V10.4166C35.5007 9.36248 36.4382 8.49998 37.584 8.49998ZM9.45898 9.84165L0.708984 10.4166L4.45898 17.7C4.66732 16.1666 5.29232 14.6333 6.12565 13.2916C7.16732 11.95 8.20898 10.8 9.45898 9.84165ZM18.834 10.4166C13.0007 10.4166 8.41732 14.6333 8.41732 20C8.41732 25.3666 13.0007 29.5833 18.834 29.5833C24.6673 29.5833 29.2507 25.3666 29.2507 20C29.2507 14.6333 24.6673 10.4166 18.834 10.4166ZM4.66732 22.3L0.917318 29.5833L9.45898 30.35C8.41732 29.3916 7.16732 28.05 6.33398 26.7083C5.29232 25.3666 4.87565 23.8333 4.66732 22.3ZM13.834 32.65L18.834 39.1666L23.834 32.65C22.1673 33.0333 20.5007 33.4166 18.834 33.4166C16.959 33.4166 15.2923 33.0333 13.834 32.65Z" fill="#01354A"/>
</svg>
