<svg width="60" height="56" viewBox="0 0 60 56" fill="none" xmlns="http://www.w3.org/2000/svg">
<rect width="53" height="54" rx="5" fill="#355EAB"/>
<g filter="url(#filter0_d_3880_13369)">
<path d="M53.8927 45.0891C53.8656 47.8504 51.6052 50.1003 48.8438 50.1145L9.00001 50.3184C6.23862 50.3326 4.02198 48.1055 4.04899 45.3443L4.43137 6.25502C4.45838 3.49372 6.71883 1.24379 9.48022 1.22966L49.324 1.0257C52.0854 1.01157 54.3021 3.23857 54.275 5.99987L53.8927 45.0891Z" fill="white"/>
</g>
<mask id="path-3-inside-1_3880_13369" fill="white">
<path fill-rule="evenodd" clip-rule="evenodd" d="M22.9555 10.4364C24.4854 9.59453 25.8702 9.18168 27.761 9.0075C28.0096 8.98493 29.4625 9.01718 29.7583 9.05266C32.4747 9.3752 34.8952 10.5686 36.9192 12.5877L37.2713 12.9393L36.4635 12.9489L35.6557 12.9554L35.3687 12.7199C33.685 11.3266 31.8681 10.5299 29.7139 10.2396C29.2997 10.1848 27.7018 10.1848 27.2876 10.2396C25.8583 10.4299 24.6481 10.8266 23.4142 11.504C23.1922 11.6233 22.9881 11.7426 22.9614 11.7684C22.9111 11.8071 22.9259 11.8426 23.1272 12.2297L23.3491 12.649L23.2692 12.6715C23.2248 12.6812 22.8224 12.7167 22.3755 12.7457C21.6151 12.7973 21.5559 12.807 21.4494 12.878C21.4324 12.89 21.418 12.9001 21.4029 12.9087C21.3206 12.9552 21.2158 12.9544 20.5409 12.9489L19.7391 12.9393L20.7037 11.3104C21.2363 10.4138 21.6861 9.66548 21.7038 9.64291C21.7305 9.61388 21.8104 9.73967 22.0471 10.1848C22.2158 10.5041 22.3608 10.7621 22.3726 10.7557C22.377 10.7524 22.4451 10.7154 22.5508 10.6577L22.5509 10.6577L22.551 10.6576L22.5516 10.6573C22.6573 10.5997 22.8005 10.5216 22.9555 10.4364ZM14.0311 15.9195C14.1406 14.7519 14.4956 14.3197 15.4603 14.1843C15.7562 14.1423 25.2103 14.1423 25.5269 14.1843C26.03 14.252 26.4472 14.4552 26.6247 14.7197C26.8052 14.9874 26.9088 15.3325 26.962 15.8421C26.9798 16.0292 26.9917 18.245 26.9917 22.0574V27.9857H26.6809H26.3703L26.3614 21.8639C26.3555 16.1485 26.3495 15.7324 26.3022 15.5357C26.2341 15.268 26.1365 15.1067 25.9797 15.01C25.9697 15.0037 25.9604 14.9977 25.9514 14.9919L25.951 14.9917L25.9509 14.9916L25.9508 14.9916C25.9366 14.9824 25.9231 14.9737 25.9095 14.9656C25.701 14.842 25.4308 14.842 21.0436 14.8422H21.0228H21.0021C20.8347 14.8422 20.6613 14.8422 20.4818 14.8422C15.6674 14.8422 15.4277 14.8455 15.2591 14.9003C14.9099 15.0196 14.7886 15.1615 14.6909 15.5841C14.6406 15.797 14.6377 16.1775 14.6377 22.4703C14.6377 27.8212 14.6465 29.1758 14.6761 29.3597C14.7294 29.6629 14.8507 29.8951 15.0223 30.0016L15.0306 30.0069C15.0495 30.0191 15.067 30.0304 15.0849 30.0409C15.3153 30.1758 15.612 30.176 19.7261 30.1788H19.7261H19.7262H19.7262H19.7263H19.7264H19.7264L19.9728 30.179H24.3285V30.537V30.8918L19.9994 30.8789C17.1233 30.8692 15.6053 30.8498 15.4692 30.8273C14.9691 30.7434 14.6761 30.6112 14.4601 30.3757C14.2145 30.108 14.0932 29.7468 14.0311 29.0856C13.9896 28.6243 13.9896 16.3807 14.0311 15.9195ZM31.445 14.1843C30.9745 14.2488 30.5632 14.452 30.3856 14.7068C30.2525 14.8971 30.1341 15.2067 30.0779 15.5196C30.0276 15.7937 30.0247 16.1808 30.0247 22.5026C30.0247 28.8243 30.0276 29.2113 30.0779 29.4855C30.2051 30.1757 30.4715 30.5305 30.9952 30.7111C31.4332 30.8628 31.4627 30.866 36.0256 30.8789L40.3369 30.8918V30.537V30.179H35.9812L35.7348 30.1788C31.622 30.176 31.3238 30.1758 31.0913 30.041C31.0731 30.0305 31.0553 30.0191 31.0361 30.0069L31.0278 30.0016C30.865 29.8984 30.7674 29.7403 30.6993 29.4694C30.649 29.2726 30.646 28.8953 30.646 22.5187C30.646 16.1485 30.649 15.7647 30.6993 15.5518C30.7644 15.2712 30.8591 15.11 31.0218 15.01C31.032 15.0036 31.0415 14.9975 31.0506 14.9916L31.0507 14.9916C31.0649 14.9824 31.0784 14.9737 31.092 14.9656C31.3005 14.842 31.5707 14.842 35.9579 14.8422H35.9787C36.1525 14.8422 36.3328 14.8422 36.5198 14.8422C41.3193 14.8422 41.5738 14.8455 41.7424 14.9003C42.0798 15.0132 42.21 15.168 42.3106 15.5712C42.3579 15.7615 42.3609 16.2066 42.3698 21.88L42.3816 27.9857H42.6893H43V22.1187C43 18.2547 42.9882 16.1388 42.9704 15.9195C42.9083 15.2583 42.8018 14.9358 42.5591 14.6552C42.3283 14.3875 42.0235 14.252 41.5086 14.181C41.2098 14.1391 31.7438 14.1455 31.445 14.1843ZM16.7297 20.119C16.7268 19.9513 16.7268 19.7964 16.7356 19.7706C16.7504 19.7351 17.4044 19.7287 20.5025 19.7351L24.2545 19.7448V20.0835V20.4222H20.4966H16.7386L16.7297 20.119ZM32.744 19.7706C32.7351 19.7964 32.7351 19.9513 32.7381 20.119L32.747 20.4222H36.5049H40.2629V20.0835V19.7448L36.5109 19.7351C33.4128 19.7287 32.7588 19.7351 32.744 19.7706ZM16.7297 22.538C16.7268 22.3703 16.7268 22.2155 16.7356 22.1897C16.7504 22.1542 17.4044 22.1477 20.5025 22.1542L24.2545 22.1639V22.5026V22.8412H20.4966H16.7386L16.7297 22.538ZM32.7529 22.1703C32.7411 22.18 32.7322 22.3413 32.7322 22.5251V22.8573L36.499 22.8509L40.2629 22.8412V22.5026V22.1639L36.5168 22.1542C34.4573 22.151 32.7617 22.1574 32.7529 22.1703ZM16.7297 24.9571C16.7268 24.7893 16.7268 24.6345 16.7356 24.6087C16.7504 24.5732 17.4044 24.5668 20.5025 24.5732L24.2545 24.5829V24.9216V25.2602H20.4966H16.7386L16.7297 24.9571ZM32.744 24.6087C32.7351 24.6345 32.7351 24.7893 32.7381 24.9571L32.747 25.2602H36.5049H40.2629V24.9216V24.5829L36.5109 24.5732C33.4128 24.5668 32.7588 24.5732 32.744 24.6087ZM24.7132 30.4531V29.4274V28.405H25.6453C26.1572 28.405 26.5774 28.4082 26.5774 28.4147C26.5774 28.4179 26.1572 28.8791 25.6453 29.4371L24.7132 30.4531ZM40.7216 29.4274V30.4531L41.6536 29.4371C42.1656 28.8791 42.5858 28.4179 42.5858 28.4147C42.5858 28.4082 42.1656 28.405 41.6536 28.405H40.7216V29.4274ZM21.0351 33.285C20.5764 32.9044 19.7716 32.1368 19.7716 32.0755C19.7716 32.0626 20.1267 32.0497 20.5646 32.0497H21.3576L21.6506 32.2948C23.2958 33.6656 25.1541 34.4784 27.2876 34.7655C27.7048 34.8203 29.2997 34.8203 29.7139 34.7655C30.8265 34.6139 31.8297 34.3365 32.7706 33.9172C33.1701 33.7366 34.0193 33.285 34.0637 33.227C34.0815 33.2044 34.0134 33.0463 33.8537 32.7464C33.7234 32.5012 33.6258 32.2916 33.6347 32.2787C33.6465 32.269 34.0726 32.2368 34.5816 32.2077C35.348 32.1658 35.5225 32.1497 35.5847 32.1045C35.6527 32.0561 35.7504 32.0497 36.4606 32.0561L37.2624 32.0658L36.2564 33.6914C35.9327 34.214 35.6415 34.6825 35.4549 34.9827C35.3224 35.1957 35.2427 35.324 35.2414 35.3267C35.2355 35.3332 35.0994 35.0912 34.9396 34.7881C34.7798 34.4881 34.6407 34.243 34.6289 34.2494C34.6171 34.2558 34.3952 34.3784 34.1348 34.5236C32.7144 35.3138 31.3266 35.7653 29.6992 35.9589C29.2287 36.0137 27.7699 36.0137 27.2876 35.9589C24.9677 35.6879 22.846 34.7816 21.0351 33.285Z"/>
</mask>
<path fill-rule="evenodd" clip-rule="evenodd" d="M22.9555 10.4364C24.4854 9.59453 25.8702 9.18168 27.761 9.0075C28.0096 8.98493 29.4625 9.01718 29.7583 9.05266C32.4747 9.3752 34.8952 10.5686 36.9192 12.5877L37.2713 12.9393L36.4635 12.9489L35.6557 12.9554L35.3687 12.7199C33.685 11.3266 31.8681 10.5299 29.7139 10.2396C29.2997 10.1848 27.7018 10.1848 27.2876 10.2396C25.8583 10.4299 24.6481 10.8266 23.4142 11.504C23.1922 11.6233 22.9881 11.7426 22.9614 11.7684C22.9111 11.8071 22.9259 11.8426 23.1272 12.2297L23.3491 12.649L23.2692 12.6715C23.2248 12.6812 22.8224 12.7167 22.3755 12.7457C21.6151 12.7973 21.5559 12.807 21.4494 12.878C21.4324 12.89 21.418 12.9001 21.4029 12.9087C21.3206 12.9552 21.2158 12.9544 20.5409 12.9489L19.7391 12.9393L20.7037 11.3104C21.2363 10.4138 21.6861 9.66548 21.7038 9.64291C21.7305 9.61388 21.8104 9.73967 22.0471 10.1848C22.2158 10.5041 22.3608 10.7621 22.3726 10.7557C22.377 10.7524 22.4451 10.7154 22.5508 10.6577L22.5509 10.6577L22.551 10.6576L22.5516 10.6573C22.6573 10.5997 22.8005 10.5216 22.9555 10.4364ZM14.0311 15.9195C14.1406 14.7519 14.4956 14.3197 15.4603 14.1843C15.7562 14.1423 25.2103 14.1423 25.5269 14.1843C26.03 14.252 26.4472 14.4552 26.6247 14.7197C26.8052 14.9874 26.9088 15.3325 26.962 15.8421C26.9798 16.0292 26.9917 18.245 26.9917 22.0574V27.9857H26.6809H26.3703L26.3614 21.8639C26.3555 16.1485 26.3495 15.7324 26.3022 15.5357C26.2341 15.268 26.1365 15.1067 25.9797 15.01C25.9697 15.0037 25.9604 14.9977 25.9514 14.9919L25.951 14.9917L25.9509 14.9916L25.9508 14.9916C25.9366 14.9824 25.9231 14.9737 25.9095 14.9656C25.701 14.842 25.4308 14.842 21.0436 14.8422H21.0228H21.0021C20.8347 14.8422 20.6613 14.8422 20.4818 14.8422C15.6674 14.8422 15.4277 14.8455 15.2591 14.9003C14.9099 15.0196 14.7886 15.1615 14.6909 15.5841C14.6406 15.797 14.6377 16.1775 14.6377 22.4703C14.6377 27.8212 14.6465 29.1758 14.6761 29.3597C14.7294 29.6629 14.8507 29.8951 15.0223 30.0016L15.0306 30.0069C15.0495 30.0191 15.067 30.0304 15.0849 30.0409C15.3153 30.1758 15.612 30.176 19.7261 30.1788H19.7261H19.7262H19.7262H19.7263H19.7264H19.7264L19.9728 30.179H24.3285V30.537V30.8918L19.9994 30.8789C17.1233 30.8692 15.6053 30.8498 15.4692 30.8273C14.9691 30.7434 14.6761 30.6112 14.4601 30.3757C14.2145 30.108 14.0932 29.7468 14.0311 29.0856C13.9896 28.6243 13.9896 16.3807 14.0311 15.9195ZM31.445 14.1843C30.9745 14.2488 30.5632 14.452 30.3856 14.7068C30.2525 14.8971 30.1341 15.2067 30.0779 15.5196C30.0276 15.7937 30.0247 16.1808 30.0247 22.5026C30.0247 28.8243 30.0276 29.2113 30.0779 29.4855C30.2051 30.1757 30.4715 30.5305 30.9952 30.7111C31.4332 30.8628 31.4627 30.866 36.0256 30.8789L40.3369 30.8918V30.537V30.179H35.9812L35.7348 30.1788C31.622 30.176 31.3238 30.1758 31.0913 30.041C31.0731 30.0305 31.0553 30.0191 31.0361 30.0069L31.0278 30.0016C30.865 29.8984 30.7674 29.7403 30.6993 29.4694C30.649 29.2726 30.646 28.8953 30.646 22.5187C30.646 16.1485 30.649 15.7647 30.6993 15.5518C30.7644 15.2712 30.8591 15.11 31.0218 15.01C31.032 15.0036 31.0415 14.9975 31.0506 14.9916L31.0507 14.9916C31.0649 14.9824 31.0784 14.9737 31.092 14.9656C31.3005 14.842 31.5707 14.842 35.9579 14.8422H35.9787C36.1525 14.8422 36.3328 14.8422 36.5198 14.8422C41.3193 14.8422 41.5738 14.8455 41.7424 14.9003C42.0798 15.0132 42.21 15.168 42.3106 15.5712C42.3579 15.7615 42.3609 16.2066 42.3698 21.88L42.3816 27.9857H42.6893H43V22.1187C43 18.2547 42.9882 16.1388 42.9704 15.9195C42.9083 15.2583 42.8018 14.9358 42.5591 14.6552C42.3283 14.3875 42.0235 14.252 41.5086 14.181C41.2098 14.1391 31.7438 14.1455 31.445 14.1843ZM16.7297 20.119C16.7268 19.9513 16.7268 19.7964 16.7356 19.7706C16.7504 19.7351 17.4044 19.7287 20.5025 19.7351L24.2545 19.7448V20.0835V20.4222H20.4966H16.7386L16.7297 20.119ZM32.744 19.7706C32.7351 19.7964 32.7351 19.9513 32.7381 20.119L32.747 20.4222H36.5049H40.2629V20.0835V19.7448L36.5109 19.7351C33.4128 19.7287 32.7588 19.7351 32.744 19.7706ZM16.7297 22.538C16.7268 22.3703 16.7268 22.2155 16.7356 22.1897C16.7504 22.1542 17.4044 22.1477 20.5025 22.1542L24.2545 22.1639V22.5026V22.8412H20.4966H16.7386L16.7297 22.538ZM32.7529 22.1703C32.7411 22.18 32.7322 22.3413 32.7322 22.5251V22.8573L36.499 22.8509L40.2629 22.8412V22.5026V22.1639L36.5168 22.1542C34.4573 22.151 32.7617 22.1574 32.7529 22.1703ZM16.7297 24.9571C16.7268 24.7893 16.7268 24.6345 16.7356 24.6087C16.7504 24.5732 17.4044 24.5668 20.5025 24.5732L24.2545 24.5829V24.9216V25.2602H20.4966H16.7386L16.7297 24.9571ZM32.744 24.6087C32.7351 24.6345 32.7351 24.7893 32.7381 24.9571L32.747 25.2602H36.5049H40.2629V24.9216V24.5829L36.5109 24.5732C33.4128 24.5668 32.7588 24.5732 32.744 24.6087ZM24.7132 30.4531V29.4274V28.405H25.6453C26.1572 28.405 26.5774 28.4082 26.5774 28.4147C26.5774 28.4179 26.1572 28.8791 25.6453 29.4371L24.7132 30.4531ZM40.7216 29.4274V30.4531L41.6536 29.4371C42.1656 28.8791 42.5858 28.4179 42.5858 28.4147C42.5858 28.4082 42.1656 28.405 41.6536 28.405H40.7216V29.4274ZM21.0351 33.285C20.5764 32.9044 19.7716 32.1368 19.7716 32.0755C19.7716 32.0626 20.1267 32.0497 20.5646 32.0497H21.3576L21.6506 32.2948C23.2958 33.6656 25.1541 34.4784 27.2876 34.7655C27.7048 34.8203 29.2997 34.8203 29.7139 34.7655C30.8265 34.6139 31.8297 34.3365 32.7706 33.9172C33.1701 33.7366 34.0193 33.285 34.0637 33.227C34.0815 33.2044 34.0134 33.0463 33.8537 32.7464C33.7234 32.5012 33.6258 32.2916 33.6347 32.2787C33.6465 32.269 34.0726 32.2368 34.5816 32.2077C35.348 32.1658 35.5225 32.1497 35.5847 32.1045C35.6527 32.0561 35.7504 32.0497 36.4606 32.0561L37.2624 32.0658L36.2564 33.6914C35.9327 34.214 35.6415 34.6825 35.4549 34.9827C35.3224 35.1957 35.2427 35.324 35.2414 35.3267C35.2355 35.3332 35.0994 35.0912 34.9396 34.7881C34.7798 34.4881 34.6407 34.243 34.6289 34.2494C34.6171 34.2558 34.3952 34.3784 34.1348 34.5236C32.7144 35.3138 31.3266 35.7653 29.6992 35.9589C29.2287 36.0137 27.7699 36.0137 27.2876 35.9589C24.9677 35.6879 22.846 34.7816 21.0351 33.285Z" fill="#355EAB"/>
<path fill-rule="evenodd" clip-rule="evenodd" d="M22.9555 10.4364C24.4854 9.59453 25.8702 9.18168 27.761 9.0075C28.0096 8.98493 29.4625 9.01718 29.7583 9.05266C32.4747 9.3752 34.8952 10.5686 36.9192 12.5877L37.2713 12.9393L36.4635 12.9489L35.6557 12.9554L35.3687 12.7199C33.685 11.3266 31.8681 10.5299 29.7139 10.2396C29.2997 10.1848 27.7018 10.1848 27.2876 10.2396C25.8583 10.4299 24.6481 10.8266 23.4142 11.504C23.1922 11.6233 22.9881 11.7426 22.9614 11.7684C22.9111 11.8071 22.9259 11.8426 23.1272 12.2297L23.3491 12.649L23.2692 12.6715C23.2248 12.6812 22.8224 12.7167 22.3755 12.7457C21.6151 12.7973 21.5559 12.807 21.4494 12.878C21.4324 12.89 21.418 12.9001 21.4029 12.9087C21.3206 12.9552 21.2158 12.9544 20.5409 12.9489L19.7391 12.9393L20.7037 11.3104C21.2363 10.4138 21.6861 9.66548 21.7038 9.64291C21.7305 9.61388 21.8104 9.73967 22.0471 10.1848C22.2158 10.5041 22.3608 10.7621 22.3726 10.7557C22.377 10.7524 22.4451 10.7154 22.5508 10.6577L22.5509 10.6577L22.551 10.6576L22.5516 10.6573C22.6573 10.5997 22.8005 10.5216 22.9555 10.4364ZM14.0311 15.9195C14.1406 14.7519 14.4956 14.3197 15.4603 14.1843C15.7562 14.1423 25.2103 14.1423 25.5269 14.1843C26.03 14.252 26.4472 14.4552 26.6247 14.7197C26.8052 14.9874 26.9088 15.3325 26.962 15.8421C26.9798 16.0292 26.9917 18.245 26.9917 22.0574V27.9857H26.6809H26.3703L26.3614 21.8639C26.3555 16.1485 26.3495 15.7324 26.3022 15.5357C26.2341 15.268 26.1365 15.1067 25.9797 15.01C25.9697 15.0037 25.9604 14.9977 25.9514 14.9919L25.951 14.9917L25.9509 14.9916L25.9508 14.9916C25.9366 14.9824 25.9231 14.9737 25.9095 14.9656C25.701 14.842 25.4308 14.842 21.0436 14.8422H21.0228H21.0021C20.8347 14.8422 20.6613 14.8422 20.4818 14.8422C15.6674 14.8422 15.4277 14.8455 15.2591 14.9003C14.9099 15.0196 14.7886 15.1615 14.6909 15.5841C14.6406 15.797 14.6377 16.1775 14.6377 22.4703C14.6377 27.8212 14.6465 29.1758 14.6761 29.3597C14.7294 29.6629 14.8507 29.8951 15.0223 30.0016L15.0306 30.0069C15.0495 30.0191 15.067 30.0304 15.0849 30.0409C15.3153 30.1758 15.612 30.176 19.7261 30.1788H19.7261H19.7262H19.7262H19.7263H19.7264H19.7264L19.9728 30.179H24.3285V30.537V30.8918L19.9994 30.8789C17.1233 30.8692 15.6053 30.8498 15.4692 30.8273C14.9691 30.7434 14.6761 30.6112 14.4601 30.3757C14.2145 30.108 14.0932 29.7468 14.0311 29.0856C13.9896 28.6243 13.9896 16.3807 14.0311 15.9195ZM31.445 14.1843C30.9745 14.2488 30.5632 14.452 30.3856 14.7068C30.2525 14.8971 30.1341 15.2067 30.0779 15.5196C30.0276 15.7937 30.0247 16.1808 30.0247 22.5026C30.0247 28.8243 30.0276 29.2113 30.0779 29.4855C30.2051 30.1757 30.4715 30.5305 30.9952 30.7111C31.4332 30.8628 31.4627 30.866 36.0256 30.8789L40.3369 30.8918V30.537V30.179H35.9812L35.7348 30.1788C31.622 30.176 31.3238 30.1758 31.0913 30.041C31.0731 30.0305 31.0553 30.0191 31.0361 30.0069L31.0278 30.0016C30.865 29.8984 30.7674 29.7403 30.6993 29.4694C30.649 29.2726 30.646 28.8953 30.646 22.5187C30.646 16.1485 30.649 15.7647 30.6993 15.5518C30.7644 15.2712 30.8591 15.11 31.0218 15.01C31.032 15.0036 31.0415 14.9975 31.0506 14.9916L31.0507 14.9916C31.0649 14.9824 31.0784 14.9737 31.092 14.9656C31.3005 14.842 31.5707 14.842 35.9579 14.8422H35.9787C36.1525 14.8422 36.3328 14.8422 36.5198 14.8422C41.3193 14.8422 41.5738 14.8455 41.7424 14.9003C42.0798 15.0132 42.21 15.168 42.3106 15.5712C42.3579 15.7615 42.3609 16.2066 42.3698 21.88L42.3816 27.9857H42.6893H43V22.1187C43 18.2547 42.9882 16.1388 42.9704 15.9195C42.9083 15.2583 42.8018 14.9358 42.5591 14.6552C42.3283 14.3875 42.0235 14.252 41.5086 14.181C41.2098 14.1391 31.7438 14.1455 31.445 14.1843ZM16.7297 20.119C16.7268 19.9513 16.7268 19.7964 16.7356 19.7706C16.7504 19.7351 17.4044 19.7287 20.5025 19.7351L24.2545 19.7448V20.0835V20.4222H20.4966H16.7386L16.7297 20.119ZM32.744 19.7706C32.7351 19.7964 32.7351 19.9513 32.7381 20.119L32.747 20.4222H36.5049H40.2629V20.0835V19.7448L36.5109 19.7351C33.4128 19.7287 32.7588 19.7351 32.744 19.7706ZM16.7297 22.538C16.7268 22.3703 16.7268 22.2155 16.7356 22.1897C16.7504 22.1542 17.4044 22.1477 20.5025 22.1542L24.2545 22.1639V22.5026V22.8412H20.4966H16.7386L16.7297 22.538ZM32.7529 22.1703C32.7411 22.18 32.7322 22.3413 32.7322 22.5251V22.8573L36.499 22.8509L40.2629 22.8412V22.5026V22.1639L36.5168 22.1542C34.4573 22.151 32.7617 22.1574 32.7529 22.1703ZM16.7297 24.9571C16.7268 24.7893 16.7268 24.6345 16.7356 24.6087C16.7504 24.5732 17.4044 24.5668 20.5025 24.5732L24.2545 24.5829V24.9216V25.2602H20.4966H16.7386L16.7297 24.9571ZM32.744 24.6087C32.7351 24.6345 32.7351 24.7893 32.7381 24.9571L32.747 25.2602H36.5049H40.2629V24.9216V24.5829L36.5109 24.5732C33.4128 24.5668 32.7588 24.5732 32.744 24.6087ZM24.7132 30.4531V29.4274V28.405H25.6453C26.1572 28.405 26.5774 28.4082 26.5774 28.4147C26.5774 28.4179 26.1572 28.8791 25.6453 29.4371L24.7132 30.4531ZM40.7216 29.4274V30.4531L41.6536 29.4371C42.1656 28.8791 42.5858 28.4179 42.5858 28.4147C42.5858 28.4082 42.1656 28.405 41.6536 28.405H40.7216V29.4274ZM21.0351 33.285C20.5764 32.9044 19.7716 32.1368 19.7716 32.0755C19.7716 32.0626 20.1267 32.0497 20.5646 32.0497H21.3576L21.6506 32.2948C23.2958 33.6656 25.1541 34.4784 27.2876 34.7655C27.7048 34.8203 29.2997 34.8203 29.7139 34.7655C30.8265 34.6139 31.8297 34.3365 32.7706 33.9172C33.1701 33.7366 34.0193 33.285 34.0637 33.227C34.0815 33.2044 34.0134 33.0463 33.8537 32.7464C33.7234 32.5012 33.6258 32.2916 33.6347 32.2787C33.6465 32.269 34.0726 32.2368 34.5816 32.2077C35.348 32.1658 35.5225 32.1497 35.5847 32.1045C35.6527 32.0561 35.7504 32.0497 36.4606 32.0561L37.2624 32.0658L36.2564 33.6914C35.9327 34.214 35.6415 34.6825 35.4549 34.9827C35.3224 35.1957 35.2427 35.324 35.2414 35.3267C35.2355 35.3332 35.0994 35.0912 34.9396 34.7881C34.7798 34.4881 34.6407 34.243 34.6289 34.2494C34.6171 34.2558 34.3952 34.3784 34.1348 34.5236C32.7144 35.3138 31.3266 35.7653 29.6992 35.9589C29.2287 36.0137 27.7699 36.0137 27.2876 35.9589C24.9677 35.6879 22.846 34.7816 21.0351 33.285Z" fill="#355EAB"/>
<path fill-rule="evenodd" clip-rule="evenodd" d="M22.9555 10.4364C24.4854 9.59453 25.8702 9.18168 27.761 9.0075C28.0096 8.98493 29.4625 9.01718 29.7583 9.05266C32.4747 9.3752 34.8952 10.5686 36.9192 12.5877L37.2713 12.9393L36.4635 12.9489L35.6557 12.9554L35.3687 12.7199C33.685 11.3266 31.8681 10.5299 29.7139 10.2396C29.2997 10.1848 27.7018 10.1848 27.2876 10.2396C25.8583 10.4299 24.6481 10.8266 23.4142 11.504C23.1922 11.6233 22.9881 11.7426 22.9614 11.7684C22.9111 11.8071 22.9259 11.8426 23.1272 12.2297L23.3491 12.649L23.2692 12.6715C23.2248 12.6812 22.8224 12.7167 22.3755 12.7457C21.6151 12.7973 21.5559 12.807 21.4494 12.878C21.4324 12.89 21.418 12.9001 21.4029 12.9087C21.3206 12.9552 21.2158 12.9544 20.5409 12.9489L19.7391 12.9393L20.7037 11.3104C21.2363 10.4138 21.6861 9.66548 21.7038 9.64291C21.7305 9.61388 21.8104 9.73967 22.0471 10.1848C22.2158 10.5041 22.3608 10.7621 22.3726 10.7557C22.377 10.7524 22.4451 10.7154 22.5508 10.6577L22.5509 10.6577L22.551 10.6576L22.5516 10.6573C22.6573 10.5997 22.8005 10.5216 22.9555 10.4364ZM14.0311 15.9195C14.1406 14.7519 14.4956 14.3197 15.4603 14.1843C15.7562 14.1423 25.2103 14.1423 25.5269 14.1843C26.03 14.252 26.4472 14.4552 26.6247 14.7197C26.8052 14.9874 26.9088 15.3325 26.962 15.8421C26.9798 16.0292 26.9917 18.245 26.9917 22.0574V27.9857H26.6809H26.3703L26.3614 21.8639C26.3555 16.1485 26.3495 15.7324 26.3022 15.5357C26.2341 15.268 26.1365 15.1067 25.9797 15.01C25.9697 15.0037 25.9604 14.9977 25.9514 14.9919L25.951 14.9917L25.9509 14.9916L25.9508 14.9916C25.9366 14.9824 25.9231 14.9737 25.9095 14.9656C25.701 14.842 25.4308 14.842 21.0436 14.8422H21.0228H21.0021C20.8347 14.8422 20.6613 14.8422 20.4818 14.8422C15.6674 14.8422 15.4277 14.8455 15.2591 14.9003C14.9099 15.0196 14.7886 15.1615 14.6909 15.5841C14.6406 15.797 14.6377 16.1775 14.6377 22.4703C14.6377 27.8212 14.6465 29.1758 14.6761 29.3597C14.7294 29.6629 14.8507 29.8951 15.0223 30.0016L15.0306 30.0069C15.0495 30.0191 15.067 30.0304 15.0849 30.0409C15.3153 30.1758 15.612 30.176 19.7261 30.1788H19.7261H19.7262H19.7262H19.7263H19.7264H19.7264L19.9728 30.179H24.3285V30.537V30.8918L19.9994 30.8789C17.1233 30.8692 15.6053 30.8498 15.4692 30.8273C14.9691 30.7434 14.6761 30.6112 14.4601 30.3757C14.2145 30.108 14.0932 29.7468 14.0311 29.0856C13.9896 28.6243 13.9896 16.3807 14.0311 15.9195ZM31.445 14.1843C30.9745 14.2488 30.5632 14.452 30.3856 14.7068C30.2525 14.8971 30.1341 15.2067 30.0779 15.5196C30.0276 15.7937 30.0247 16.1808 30.0247 22.5026C30.0247 28.8243 30.0276 29.2113 30.0779 29.4855C30.2051 30.1757 30.4715 30.5305 30.9952 30.7111C31.4332 30.8628 31.4627 30.866 36.0256 30.8789L40.3369 30.8918V30.537V30.179H35.9812L35.7348 30.1788C31.622 30.176 31.3238 30.1758 31.0913 30.041C31.0731 30.0305 31.0553 30.0191 31.0361 30.0069L31.0278 30.0016C30.865 29.8984 30.7674 29.7403 30.6993 29.4694C30.649 29.2726 30.646 28.8953 30.646 22.5187C30.646 16.1485 30.649 15.7647 30.6993 15.5518C30.7644 15.2712 30.8591 15.11 31.0218 15.01C31.032 15.0036 31.0415 14.9975 31.0506 14.9916L31.0507 14.9916C31.0649 14.9824 31.0784 14.9737 31.092 14.9656C31.3005 14.842 31.5707 14.842 35.9579 14.8422H35.9787C36.1525 14.8422 36.3328 14.8422 36.5198 14.8422C41.3193 14.8422 41.5738 14.8455 41.7424 14.9003C42.0798 15.0132 42.21 15.168 42.3106 15.5712C42.3579 15.7615 42.3609 16.2066 42.3698 21.88L42.3816 27.9857H42.6893H43V22.1187C43 18.2547 42.9882 16.1388 42.9704 15.9195C42.9083 15.2583 42.8018 14.9358 42.5591 14.6552C42.3283 14.3875 42.0235 14.252 41.5086 14.181C41.2098 14.1391 31.7438 14.1455 31.445 14.1843ZM16.7297 20.119C16.7268 19.9513 16.7268 19.7964 16.7356 19.7706C16.7504 19.7351 17.4044 19.7287 20.5025 19.7351L24.2545 19.7448V20.0835V20.4222H20.4966H16.7386L16.7297 20.119ZM32.744 19.7706C32.7351 19.7964 32.7351 19.9513 32.7381 20.119L32.747 20.4222H36.5049H40.2629V20.0835V19.7448L36.5109 19.7351C33.4128 19.7287 32.7588 19.7351 32.744 19.7706ZM16.7297 22.538C16.7268 22.3703 16.7268 22.2155 16.7356 22.1897C16.7504 22.1542 17.4044 22.1477 20.5025 22.1542L24.2545 22.1639V22.5026V22.8412H20.4966H16.7386L16.7297 22.538ZM32.7529 22.1703C32.7411 22.18 32.7322 22.3413 32.7322 22.5251V22.8573L36.499 22.8509L40.2629 22.8412V22.5026V22.1639L36.5168 22.1542C34.4573 22.151 32.7617 22.1574 32.7529 22.1703ZM16.7297 24.9571C16.7268 24.7893 16.7268 24.6345 16.7356 24.6087C16.7504 24.5732 17.4044 24.5668 20.5025 24.5732L24.2545 24.5829V24.9216V25.2602H20.4966H16.7386L16.7297 24.9571ZM32.744 24.6087C32.7351 24.6345 32.7351 24.7893 32.7381 24.9571L32.747 25.2602H36.5049H40.2629V24.9216V24.5829L36.5109 24.5732C33.4128 24.5668 32.7588 24.5732 32.744 24.6087ZM24.7132 30.4531V29.4274V28.405H25.6453C26.1572 28.405 26.5774 28.4082 26.5774 28.4147C26.5774 28.4179 26.1572 28.8791 25.6453 29.4371L24.7132 30.4531ZM40.7216 29.4274V30.4531L41.6536 29.4371C42.1656 28.8791 42.5858 28.4179 42.5858 28.4147C42.5858 28.4082 42.1656 28.405 41.6536 28.405H40.7216V29.4274ZM21.0351 33.285C20.5764 32.9044 19.7716 32.1368 19.7716 32.0755C19.7716 32.0626 20.1267 32.0497 20.5646 32.0497H21.3576L21.6506 32.2948C23.2958 33.6656 25.1541 34.4784 27.2876 34.7655C27.7048 34.8203 29.2997 34.8203 29.7139 34.7655C30.8265 34.6139 31.8297 34.3365 32.7706 33.9172C33.1701 33.7366 34.0193 33.285 34.0637 33.227C34.0815 33.2044 34.0134 33.0463 33.8537 32.7464C33.7234 32.5012 33.6258 32.2916 33.6347 32.2787C33.6465 32.269 34.0726 32.2368 34.5816 32.2077C35.348 32.1658 35.5225 32.1497 35.5847 32.1045C35.6527 32.0561 35.7504 32.0497 36.4606 32.0561L37.2624 32.0658L36.2564 33.6914C35.9327 34.214 35.6415 34.6825 35.4549 34.9827C35.3224 35.1957 35.2427 35.324 35.2414 35.3267C35.2355 35.3332 35.0994 35.0912 34.9396 34.7881C34.7798 34.4881 34.6407 34.243 34.6289 34.2494C34.6171 34.2558 34.3952 34.3784 34.1348 34.5236C32.7144 35.3138 31.3266 35.7653 29.6992 35.9589C29.2287 36.0137 27.7699 36.0137 27.2876 35.9589C24.9677 35.6879 22.846 34.7816 21.0351 33.285Z" fill="#355EAB"/>
<path fill-rule="evenodd" clip-rule="evenodd" d="M22.9555 10.4364C24.4854 9.59453 25.8702 9.18168 27.761 9.0075C28.0096 8.98493 29.4625 9.01718 29.7583 9.05266C32.4747 9.3752 34.8952 10.5686 36.9192 12.5877L37.2713 12.9393L36.4635 12.9489L35.6557 12.9554L35.3687 12.7199C33.685 11.3266 31.8681 10.5299 29.7139 10.2396C29.2997 10.1848 27.7018 10.1848 27.2876 10.2396C25.8583 10.4299 24.6481 10.8266 23.4142 11.504C23.1922 11.6233 22.9881 11.7426 22.9614 11.7684C22.9111 11.8071 22.9259 11.8426 23.1272 12.2297L23.3491 12.649L23.2692 12.6715C23.2248 12.6812 22.8224 12.7167 22.3755 12.7457C21.6151 12.7973 21.5559 12.807 21.4494 12.878C21.4324 12.89 21.418 12.9001 21.4029 12.9087C21.3206 12.9552 21.2158 12.9544 20.5409 12.9489L19.7391 12.9393L20.7037 11.3104C21.2363 10.4138 21.6861 9.66548 21.7038 9.64291C21.7305 9.61388 21.8104 9.73967 22.0471 10.1848C22.2158 10.5041 22.3608 10.7621 22.3726 10.7557C22.377 10.7524 22.4451 10.7154 22.5508 10.6577L22.5509 10.6577L22.551 10.6576L22.5516 10.6573C22.6573 10.5997 22.8005 10.5216 22.9555 10.4364ZM14.0311 15.9195C14.1406 14.7519 14.4956 14.3197 15.4603 14.1843C15.7562 14.1423 25.2103 14.1423 25.5269 14.1843C26.03 14.252 26.4472 14.4552 26.6247 14.7197C26.8052 14.9874 26.9088 15.3325 26.962 15.8421C26.9798 16.0292 26.9917 18.245 26.9917 22.0574V27.9857H26.6809H26.3703L26.3614 21.8639C26.3555 16.1485 26.3495 15.7324 26.3022 15.5357C26.2341 15.268 26.1365 15.1067 25.9797 15.01C25.9697 15.0037 25.9604 14.9977 25.9514 14.9919L25.951 14.9917L25.9509 14.9916L25.9508 14.9916C25.9366 14.9824 25.9231 14.9737 25.9095 14.9656C25.701 14.842 25.4308 14.842 21.0436 14.8422H21.0228H21.0021C20.8347 14.8422 20.6613 14.8422 20.4818 14.8422C15.6674 14.8422 15.4277 14.8455 15.2591 14.9003C14.9099 15.0196 14.7886 15.1615 14.6909 15.5841C14.6406 15.797 14.6377 16.1775 14.6377 22.4703C14.6377 27.8212 14.6465 29.1758 14.6761 29.3597C14.7294 29.6629 14.8507 29.8951 15.0223 30.0016L15.0306 30.0069C15.0495 30.0191 15.067 30.0304 15.0849 30.0409C15.3153 30.1758 15.612 30.176 19.7261 30.1788H19.7261H19.7262H19.7262H19.7263H19.7264H19.7264L19.9728 30.179H24.3285V30.537V30.8918L19.9994 30.8789C17.1233 30.8692 15.6053 30.8498 15.4692 30.8273C14.9691 30.7434 14.6761 30.6112 14.4601 30.3757C14.2145 30.108 14.0932 29.7468 14.0311 29.0856C13.9896 28.6243 13.9896 16.3807 14.0311 15.9195ZM31.445 14.1843C30.9745 14.2488 30.5632 14.452 30.3856 14.7068C30.2525 14.8971 30.1341 15.2067 30.0779 15.5196C30.0276 15.7937 30.0247 16.1808 30.0247 22.5026C30.0247 28.8243 30.0276 29.2113 30.0779 29.4855C30.2051 30.1757 30.4715 30.5305 30.9952 30.7111C31.4332 30.8628 31.4627 30.866 36.0256 30.8789L40.3369 30.8918V30.537V30.179H35.9812L35.7348 30.1788C31.622 30.176 31.3238 30.1758 31.0913 30.041C31.0731 30.0305 31.0553 30.0191 31.0361 30.0069L31.0278 30.0016C30.865 29.8984 30.7674 29.7403 30.6993 29.4694C30.649 29.2726 30.646 28.8953 30.646 22.5187C30.646 16.1485 30.649 15.7647 30.6993 15.5518C30.7644 15.2712 30.8591 15.11 31.0218 15.01C31.032 15.0036 31.0415 14.9975 31.0506 14.9916L31.0507 14.9916C31.0649 14.9824 31.0784 14.9737 31.092 14.9656C31.3005 14.842 31.5707 14.842 35.9579 14.8422H35.9787C36.1525 14.8422 36.3328 14.8422 36.5198 14.8422C41.3193 14.8422 41.5738 14.8455 41.7424 14.9003C42.0798 15.0132 42.21 15.168 42.3106 15.5712C42.3579 15.7615 42.3609 16.2066 42.3698 21.88L42.3816 27.9857H42.6893H43V22.1187C43 18.2547 42.9882 16.1388 42.9704 15.9195C42.9083 15.2583 42.8018 14.9358 42.5591 14.6552C42.3283 14.3875 42.0235 14.252 41.5086 14.181C41.2098 14.1391 31.7438 14.1455 31.445 14.1843ZM16.7297 20.119C16.7268 19.9513 16.7268 19.7964 16.7356 19.7706C16.7504 19.7351 17.4044 19.7287 20.5025 19.7351L24.2545 19.7448V20.0835V20.4222H20.4966H16.7386L16.7297 20.119ZM32.744 19.7706C32.7351 19.7964 32.7351 19.9513 32.7381 20.119L32.747 20.4222H36.5049H40.2629V20.0835V19.7448L36.5109 19.7351C33.4128 19.7287 32.7588 19.7351 32.744 19.7706ZM16.7297 22.538C16.7268 22.3703 16.7268 22.2155 16.7356 22.1897C16.7504 22.1542 17.4044 22.1477 20.5025 22.1542L24.2545 22.1639V22.5026V22.8412H20.4966H16.7386L16.7297 22.538ZM32.7529 22.1703C32.7411 22.18 32.7322 22.3413 32.7322 22.5251V22.8573L36.499 22.8509L40.2629 22.8412V22.5026V22.1639L36.5168 22.1542C34.4573 22.151 32.7617 22.1574 32.7529 22.1703ZM16.7297 24.9571C16.7268 24.7893 16.7268 24.6345 16.7356 24.6087C16.7504 24.5732 17.4044 24.5668 20.5025 24.5732L24.2545 24.5829V24.9216V25.2602H20.4966H16.7386L16.7297 24.9571ZM32.744 24.6087C32.7351 24.6345 32.7351 24.7893 32.7381 24.9571L32.747 25.2602H36.5049H40.2629V24.9216V24.5829L36.5109 24.5732C33.4128 24.5668 32.7588 24.5732 32.744 24.6087ZM24.7132 30.4531V29.4274V28.405H25.6453C26.1572 28.405 26.5774 28.4082 26.5774 28.4147C26.5774 28.4179 26.1572 28.8791 25.6453 29.4371L24.7132 30.4531ZM40.7216 29.4274V30.4531L41.6536 29.4371C42.1656 28.8791 42.5858 28.4179 42.5858 28.4147C42.5858 28.4082 42.1656 28.405 41.6536 28.405H40.7216V29.4274ZM21.0351 33.285C20.5764 32.9044 19.7716 32.1368 19.7716 32.0755C19.7716 32.0626 20.1267 32.0497 20.5646 32.0497H21.3576L21.6506 32.2948C23.2958 33.6656 25.1541 34.4784 27.2876 34.7655C27.7048 34.8203 29.2997 34.8203 29.7139 34.7655C30.8265 34.6139 31.8297 34.3365 32.7706 33.9172C33.1701 33.7366 34.0193 33.285 34.0637 33.227C34.0815 33.2044 34.0134 33.0463 33.8537 32.7464C33.7234 32.5012 33.6258 32.2916 33.6347 32.2787C33.6465 32.269 34.0726 32.2368 34.5816 32.2077C35.348 32.1658 35.5225 32.1497 35.5847 32.1045C35.6527 32.0561 35.7504 32.0497 36.4606 32.0561L37.2624 32.0658L36.2564 33.6914C35.9327 34.214 35.6415 34.6825 35.4549 34.9827C35.3224 35.1957 35.2427 35.324 35.2414 35.3267C35.2355 35.3332 35.0994 35.0912 34.9396 34.7881C34.7798 34.4881 34.6407 34.243 34.6289 34.2494C34.6171 34.2558 34.3952 34.3784 34.1348 34.5236C32.7144 35.3138 31.3266 35.7653 29.6992 35.9589C29.2287 36.0137 27.7699 36.0137 27.2876 35.9589C24.9677 35.6879 22.846 34.7816 21.0351 33.285Z" stroke="#355EAB" stroke-width="20" mask="url(#path-3-inside-1_3880_13369)"/>
<g clip-path="url(#clip0_3880_13369)">
<path d="M17.0282 44.6896C17.0126 47.2004 14.9649 49.2718 12.4544 49.3162L10.609 49.3488C8.09851 49.3931 6.07602 47.3937 6.09161 44.8829C6.10721 42.3721 8.15497 40.3007 10.6654 40.2564L12.5109 40.2238C15.0213 40.1794 17.0438 42.1788 17.0282 44.6896Z" fill="white"/>
<path d="M13.549 48.1484C13.6741 48.0312 13.745 47.874 13.746 47.7114C13.747 47.5489 13.6781 47.3942 13.5544 47.2814L10.2881 44.3044L13.5921 41.2112C13.7137 41.0934 13.7815 40.9374 13.781 40.7766C13.7805 40.6159 13.7117 40.4634 13.5893 40.3518C13.467 40.2403 13.3009 40.1788 13.1269 40.1805C12.9529 40.1822 12.7849 40.2469 12.659 40.3608L8.88313 43.8957C8.758 44.0129 8.68714 44.1701 8.68613 44.3327C8.68512 44.4952 8.75404 44.6499 8.87775 44.7627L12.6106 48.165C12.7343 48.2777 12.9027 48.3393 13.0787 48.3362C13.2546 48.3331 13.4238 48.2655 13.549 48.1484Z" fill="#355EAB"/>
</g>
<defs>
<filter id="filter0_d_3880_13369" x="3.04688" y="0.0256348" width="56.2266" height="55.293" filterUnits="userSpaceOnUse" color-interpolation-filters="sRGB">
<feFlood flood-opacity="0" result="BackgroundImageFix"/>
<feColorMatrix in="SourceAlpha" type="matrix" values="0 0 0 0 0 0 0 0 0 0 0 0 0 0 0 0 0 0 127 0" result="hardAlpha"/>
<feOffset dx="2" dy="2"/>
<feGaussianBlur stdDeviation="1.5"/>
<feComposite in2="hardAlpha" operator="out"/>
<feColorMatrix type="matrix" values="0 0 0 0 0.670588 0 0 0 0 0.784314 0 0 0 0 0.870588 0 0 0 0.33 0"/>
<feBlend mode="normal" in2="BackgroundImageFix" result="effect1_dropShadow_3880_13369"/>
<feBlend mode="normal" in="SourceGraphic" in2="effect1_dropShadow_3880_13369" result="shape"/>
</filter>
<clipPath id="clip0_3880_13369">
<path d="M17.0282 44.6896C17.0126 47.2004 14.9649 49.2718 12.4544 49.3162L10.609 49.3488C8.09851 49.3931 6.07602 47.3937 6.09161 44.8829C6.10721 42.3721 8.15497 40.3007 10.6654 40.2564L12.5109 40.2238C15.0213 40.1794 17.0438 42.1788 17.0282 44.6896Z" fill="white"/>
</clipPath>
</defs>
</svg>
